<?xml version="1.0" standalone="no"?>
<!DOCTYPE svg PUBLIC "-//W3C//DTD SVG 1.1//EN" "http://www.w3.org/Graphics/SVG/1.1/DTD/svg11.dtd" >
<svg xmlns="http://www.w3.org/2000/svg" xmlns:xlink="http://www.w3.org/1999/xlink" version="1.1">
<metadata>
Created by FontForge 20170731 at Thu Aug 20 17:12:37 2020
 By Aleksey,,,
</metadata>
<defs>
<font id="NanumSquareRoundOTFEB00" horiz-adv-x="1863" vert-adv-y="2048" >
  <font-face 
    font-family="NanumSquareRoundOTFEB00"
    font-weight="700"
    font-stretch="normal"
    units-per-em="2048"
    panose-1="2 0 8 3 0 0 0 0 0 0"
    ascent="1638"
    descent="-410"
    x-height="1096"
    cap-height="1464"
    bbox="-136.127 -522 2570 1831"
    underline-thickness="102"
    underline-position="-307"
    unicode-range="U+0020-FFE6"
  />
<missing-glyph vert-adv-y="2263" 
d="M313 1614h1237q65 0 90 -26t25 -95v-1602q0 -69 -25 -94.5t-90 -25.5h-1237q-65 0 -89.5 25.5t-24.5 94.5v1602q0 69 24.5 95t89.5 26zM932 633l-617 -791h1233zM1587 1479l-606 -785l606 -784v1569zM276 1479v-1569l607 784zM319 1542l613 -788l612 788h-1225z" />
    <glyph glyph-name=".notdef" vert-adv-y="2263" 
d="M313 1614h1237q65 0 90 -26t25 -95v-1602q0 -69 -25 -94.5t-90 -25.5h-1237q-65 0 -89.5 25.5t-24.5 94.5v1602q0 69 24.5 95t89.5 26zM932 633l-617 -791h1233zM1587 1479l-606 -785l606 -784v1569zM276 1479v-1569l607 784zM319 1542l613 -788l612 788h-1225z" />
    <glyph glyph-name=".null" horiz-adv-x="0" vert-adv-y="0" 
 />
    <glyph glyph-name="nonmarkingreturn" horiz-adv-x="682" 
 />
    <glyph glyph-name="space" unicode=" " horiz-adv-x="512" vert-adv-y="2263" 
 />
    <glyph glyph-name="exclam" unicode="!" horiz-adv-x="655" vert-adv-y="2263" 
d="M328 217q66 0 110.5 -45t44.5 -111t-44.5 -110.5t-110.5 -44.5t-111 44.5t-45 110.5t45 111t111 45zM328 1528q68 0 106 -30t37 -95l-33 -936q-1 -59 -32.5 -86t-77.5 -27t-78 27t-33 86l-33 936q-1 65 37.5 95t106.5 30z" />
    <glyph glyph-name="quotedbl" unicode="&#x22;" horiz-adv-x="821" vert-adv-y="2263" 
d="M223 1528q56 0 94 -28.5t35 -82.5l-16 -291q-6 -110 -113 -110q-106 0 -112 110l-17 291q-3 54 35 82.5t94 28.5zM598 1528q56 0 94 -28.5t35 -82.5l-16 -291q-6 -110 -113 -110t-113 110l-16 291q-3 54 35 82.5t94 28.5z" />
    <glyph glyph-name="numbersign" unicode="#" horiz-adv-x="1316" vert-adv-y="2263" 
d="M526 1477q44 -3 69 -30.5t19 -72.5l-36 -274h243l41 291q5 40 37.5 64.5t81.5 21.5q44 -3 69 -30.5t19 -72.5l-37 -274h101q47 0 70.5 -31t23.5 -78q0 -46 -23.5 -77t-70.5 -31h-132l-36 -281h104q47 0 70.5 -31t23.5 -77q0 -47 -23.5 -78t-70.5 -31h-133l-41 -303
q-5 -40 -38 -64.5t-83 -21.5q-44 3 -69 30t-19 72l39 287h-244l-41 -303q-5 -40 -38 -64.5t-83 -21.5q-44 3 -69 30t-19 72l39 287h-102q-47 0 -70.5 31t-23.5 78q0 46 23.5 77t70.5 31h131l39 281h-107q-47 0 -70.5 31t-23.5 77q0 47 23.5 78t70.5 31h136l41 291
q5 40 37 64.5t81 21.5zM545 883l-37 -281h248l39 281h-250z" />
    <glyph glyph-name="dollar" unicode="$" horiz-adv-x="1282" vert-adv-y="2263" 
d="M717 610v-385q101 11 146.5 58.5t45.5 113.5v11q0 40 -6 65t-24.5 52t-58 47t-103.5 38zM565 1247q-178 -19 -178 -147v-25q0 -85 38.5 -123t139.5 -69v364zM641 1591q32 0 54 -16.5t22 -48.5v-62q185 -12 317 -84q42 -23 53 -66.5t-12 -82.5q-22 -41 -56.5 -53.5
t-76.5 8.5q-112 57 -225 65v-405q135 -36 222 -76t137 -92t69.5 -111t19.5 -141v-6q0 -109 -34 -187t-97.5 -123.5t-140 -68.5t-176.5 -29v-88q0 -32 -22 -48.5t-54 -16.5t-54 16.5t-22 48.5v88q-105 8 -210.5 38t-182.5 75q-43 26 -51.5 73.5t18.5 86.5q28 42 67.5 51.5
t82.5 -14.5q128 -74 276 -95v420q-49 12 -85.5 22.5t-84 29t-82 39.5t-70 53.5t-58 70t-36.5 90t-14 113.5v27q0 50 13 97t44.5 93.5t79 83t123 62.5t170.5 34v64q0 32 22 48.5t54 16.5z" />
    <glyph glyph-name="percent" unicode="%" horiz-adv-x="1894" vert-adv-y="2263" 
d="M469 1487q167 0 258.5 -98t91.5 -265v-43q0 -167 -91 -264.5t-259 -97.5t-259 97.5t-91 264.5v43q0 167 91.5 265t258.5 98zM469 1307q-76 0 -110.5 -47t-34.5 -148v-20q0 -100 34.5 -146.5t110.5 -46.5t110.5 46.5t34.5 146.5v20q0 101 -34.5 148t-110.5 47zM1389 1462
q36 -20 48 -54.5t-12 -78.5l-780 -1288q-22 -35 -62.5 -43t-74.5 12q-37 20 -48.5 54.5t11.5 78.5l780 1289q22 35 63 42.5t75 -12.5zM1425 754q168 0 259.5 -98t91.5 -265v-43q0 -167 -91.5 -264.5t-259.5 -97.5t-259 97.5t-91 264.5v43q0 167 91.5 265t258.5 98zM1425 573
q-76 0 -110.5 -47t-34.5 -147v-21q0 -100 34.5 -146t110.5 -46t111 46t35 146v21q0 100 -35 147t-111 47z" />
    <glyph glyph-name="ampersand" unicode="&#x26;" horiz-adv-x="1413" vert-adv-y="2263" 
d="M643 1487q182 0 284.5 -95t102.5 -235v-16q0 -221 -260 -365l248 -270q35 96 35 207q0 51 35 78.5t86 25.5q52 -2 84 -29t32 -79q0 -202 -108 -383l123 -136q37 -46 31.5 -89t-44.5 -76q-36 -32 -84 -31t-84 39l-98 108q-179 -155 -424 -155q-149 0 -264.5 43.5
t-185.5 135t-70 220.5v29q0 138 84 237.5t246 177.5l-47 56q-113 126 -113 258v24q0 141 104.5 230.5t286.5 89.5zM604 213q160 0 275 94l-322 361q-119 -65 -169 -125.5t-50 -132.5v-19q0 -80 75.5 -129t190.5 -49zM498 1147q0 -71 112 -195l19 -20q159 81 159 209v8
q0 52 -39.5 88.5t-105.5 36.5q-74 0 -109.5 -34t-35.5 -83v-10z" />
    <glyph glyph-name="quotesingle" unicode="'" horiz-adv-x="446" vert-adv-y="2263" 
d="M223 1528q56 0 94 -28.5t35 -82.5l-16 -291q-6 -110 -113 -110q-106 0 -112 110l-17 291q-3 54 35 82.5t94 28.5z" />
    <glyph glyph-name="parenleft" unicode="(" horiz-adv-x="739" vert-adv-y="2263" 
d="M549 1628q39 -20 49.5 -57.5t-12.5 -77.5q-191 -332 -191 -772v-78q0 -440 191 -772q23 -40 12.5 -77.5t-49.5 -57.5q-38 -21 -79 -11t-73 50q-266 350 -266 878v58q0 528 266 878q32 40 73 50t79 -11z" />
    <glyph glyph-name="parenright" unicode=")" horiz-adv-x="739" vert-adv-y="2263" 
d="M190 1628q38 21 79 11t73 -50q266 -350 266 -878v-58q0 -528 -266 -878q-32 -40 -73 -50t-79 11q-39 20 -49 57.5t13 77.5q190 331 190 772v78q0 441 -190 772q-23 40 -13 77.5t49 57.5z" />
    <glyph glyph-name="asterisk" unicode="*" horiz-adv-x="980" vert-adv-y="2263" 
d="M489 1536q47 0 77 -24t24 -66l-29 -201l172 129q34 24 72 10t59 -55q22 -39 11 -80t-52 -55l-207 -74l207 -71q41 -14 52 -55.5t-11 -80.5q-21 -41 -59 -55t-72 10l-172 129l29 -198q6 -42 -24 -66t-77 -24q-46 0 -75 24t-23 66l29 198l-172 -129q-34 -24 -72 -10t-59 55
q-22 39 -11 80.5t52 55.5l207 71l-207 74q-41 14 -52 55t11 80q21 41 59 55t72 -10l172 -129l-29 201q-6 42 23 66t75 24z" />
    <glyph glyph-name="plus" unicode="+" horiz-adv-x="1228" vert-adv-y="2263" 
d="M614 1266q47 0 81 -25t34 -72v-331h334q42 0 65 -30t23 -75t-23 -75.5t-65 -30.5h-334v-363q0 -46 -34 -71t-81 -25t-80.5 25t-33.5 71v363h-334q-42 0 -65 30.5t-23 75.5t23 75t65 30h334v331q0 47 33.5 72t80.5 25z" />
    <glyph glyph-name="comma" unicode="," horiz-adv-x="548" vert-adv-y="2263" 
d="M315 225q59 -11 88.5 -53.5t8.5 -99.5l-105 -283q-35 -92 -131 -74q-43 8 -65 35.5t-15 69.5l51 311q10 58 59 81.5t109 12.5z" />
    <glyph glyph-name="hyphen" unicode="-" horiz-adv-x="876" vert-adv-y="2263" 
d="M166 840h545q42 0 65 -31t23 -78t-23 -77.5t-65 -30.5h-545q-42 0 -65 30.5t-23 77.5t23 78t65 31z" />
    <glyph glyph-name="period" unicode="." horiz-adv-x="548" vert-adv-y="2263" 
d="M274 229q69 0 115.5 -46t46.5 -115t-46.5 -115.5t-115.5 -46.5t-115 46.5t-46 115.5t46 115t115 46z" />
    <glyph glyph-name="slash" unicode="/" horiz-adv-x="886" vert-adv-y="2263" 
d="M772 1634q46 -12 69.5 -49.5t8.5 -83.5l-582 -1706q-18 -51 -62.5 -66.5t-90.5 1.5q-47 13 -70 49.5t-6 83.5l579 1706q18 51 63 66.5t91 -1.5z" />
    <glyph glyph-name="zero" unicode="0" horiz-adv-x="1269" vert-adv-y="2263" 
d="M635 1487q545 0 545 -707v-88q0 -706 -545 -706t-545 706v88q0 707 545 707zM635 1239q-157 0 -219 -109.5t-62 -367.5v-51q0 -258 62 -368t219 -110t218.5 109.5t61.5 368.5v51q0 259 -61.5 368t-218.5 109z" />
    <glyph glyph-name="one" unicode="1" horiz-adv-x="1269" vert-adv-y="2263" 
d="M774 1477q62 0 99.5 -28.5t37.5 -84.5v-1255q0 -55 -37.5 -84t-93.5 -29t-93.5 29t-37.5 84v1060l-264 -151q-52 -27 -96 -11.5t-70 62.5q-25 40 -14.5 88.5t55.5 73.5l346 192q100 54 168 54z" />
    <glyph glyph-name="two" unicode="2" horiz-adv-x="1269" vert-adv-y="2263" 
d="M614 1487q121 0 215 -30.5t151 -83t85.5 -118.5t28.5 -143v-22q0 -224 -213 -437l-432 -428h620q45 0 68.5 -30.5t23.5 -77.5t-23.5 -78t-68.5 -31h-780q-96 0 -140.5 34.5t-44.5 107.5q0 53 68 124l475 480q109 109 145.5 179.5t36.5 153.5v11q0 70 -54.5 112.5
t-156.5 42.5q-88 0 -150 -33.5t-118 -105.5q-29 -38 -72 -44.5t-83 22.5q-42 31 -53 72.5t18 88.5q72 107 186.5 170.5t267.5 63.5z" />
    <glyph glyph-name="three" unicode="3" horiz-adv-x="1269" vert-adv-y="2263" 
d="M586 1487q122 0 217 -30.5t153 -82.5t87.5 -118t29.5 -142v-10q0 -116 -65.5 -212t-178.5 -130q61 -8 114 -31t97 -62t69.5 -100t25.5 -137v-20q0 -86 -35 -162.5t-101 -135.5t-169.5 -93.5t-231.5 -34.5q-243 0 -412 108q-46 30 -54 79t20 91q28 46 69.5 56.5
t87.5 -17.5q72 -46 134 -65t137 -19q153 0 221.5 55.5t68.5 149.5v16q0 105 -71 155t-226 50h-108q-47 0 -70.5 32t-23.5 81t23.5 80.5t70.5 31.5h86q136 0 201 52.5t65 158.5v6q0 81 -57.5 125.5t-175.5 44.5q-71 0 -124 -23t-108 -73q-39 -33 -83 -28.5t-74 41.5
q-30 38 -28 80t32 77q140 156 387 156z" />
    <glyph glyph-name="four" unicode="4" horiz-adv-x="1269" vert-adv-y="2263" 
d="M858 1456q44 -28 54.5 -69.5t-21.5 -94.5l-535 -772h424v336q0 54 37 82.5t92 28.5t92 -28.5t37 -82.5v-336h125q45 0 66.5 -30t21.5 -76q0 -45 -22 -75t-66 -30h-125v-203q0 -54 -37 -82t-92 -28t-92 28t-37 82v203h-573q-84 0 -123 31t-39 96q0 25 11.5 52t52.5 87
l587 850q30 43 76.5 50t85.5 -19z" />
    <glyph glyph-name="five" unicode="5" horiz-adv-x="1269" vert-adv-y="2263" 
d="M397 1464h592q45 0 68.5 -31.5t23.5 -78.5q0 -49 -23.5 -80t-68.5 -31h-520l-16 -371q126 76 274 76q137 0 239 -63.5t151.5 -164t49.5 -222.5v-21q0 -73 -18.5 -142t-60 -133t-101.5 -111.5t-149.5 -76t-198.5 -28.5q-275 0 -442 108q-46 30 -54.5 79t19.5 91
q28 46 69.5 56.5t87.5 -17.5q135 -80 318 -80q131 0 198.5 69t67.5 187v13q0 118 -68 181.5t-192 63.5q-142 0 -242 -84q-32 -26 -54 -35.5t-54 -9.5q-48 0 -76 23.5t-27 64.5l33 590q6 108 40.5 143t133.5 35z" />
    <glyph glyph-name="six" unicode="6" horiz-adv-x="1269" vert-adv-y="2263" 
d="M657 745q-134 0 -201 -69t-67 -178v-21q0 -121 66.5 -187.5t191.5 -66.5q134 0 203.5 66t69.5 190v13q0 129 -64 191t-199 62zM711 1487q200 0 319 -68q90 -53 49 -153q-19 -47 -58.5 -63.5t-92.5 3.5q-107 43 -234 43t-210 -95t-99 -308q52 61 143 95t189 34
q214 0 337.5 -129t123.5 -346v-31q0 -103 -36.5 -191t-103 -153t-166 -102t-219.5 -37q-139 0 -241 43.5t-164.5 126.5t-92.5 196t-30 258v74q0 190 30.5 333t82 231.5t128.5 143t159.5 75t185.5 20.5z" />
    <glyph glyph-name="seven" unicode="7" horiz-adv-x="1269" vert-adv-y="2263" 
d="M182 1464h801q93 0 133.5 -33.5t40.5 -107.5q0 -38 -10 -70.5t-51 -126.5l-480 -1063q-16 -35 -44.5 -52t-59 -16t-61.5 15q-48 22 -66 61.5t6 102.5l492 1069h-701q-45 0 -68.5 32t-23.5 79t23.5 78.5t68.5 31.5z" />
    <glyph glyph-name="eight" unicode="8" horiz-adv-x="1269" vert-adv-y="2263" 
d="M635 1260q-90 0 -147.5 -50.5t-57.5 -142.5v-10q0 -92 62.5 -141.5t144.5 -49.5q84 0 143.5 49.5t59.5 141.5v10q0 93 -56 143t-149 50zM639 637q-106 0 -176 -52.5t-70 -158.5v-10q0 -94 67 -147.5t179 -53.5q110 0 174 53.5t64 147.5v10q0 103 -67.5 157t-170.5 54z
M633 1487q114 0 206.5 -33.5t150 -90.5t88 -129.5t30.5 -152.5v-14q0 -80 -50.5 -166t-150.5 -143q99 -30 169.5 -123.5t70.5 -210.5v-25q0 -183 -133.5 -298t-372.5 -115q-247 0 -382.5 114.5t-135.5 298.5v25q0 117 72.5 211t169.5 123q-98 49 -150.5 138.5t-52.5 170.5
v14q0 81 28.5 152.5t84.5 129t148.5 91t209.5 33.5z" />
    <glyph glyph-name="nine" unicode="9" horiz-adv-x="1269" vert-adv-y="2263" 
d="M623 1487q139 0 241 -44t164.5 -127t92.5 -196t30 -258v-74q0 -191 -28 -333t-76.5 -231t-124.5 -143t-161 -74.5t-196 -20.5q-201 0 -319 67q-90 53 -49 154q19 47 58.5 63.5t92.5 -4.5q107 -43 234 -43q149 0 223 91.5t86 312.5q-52 -61 -143 -95t-189 -34
q-214 0 -337.5 128t-123.5 345v30q0 211 142.5 348.5t382.5 137.5zM629 1249q-134 0 -203.5 -66t-69.5 -190v-12q0 -129 63.5 -191.5t198.5 -62.5q134 0 201.5 69.5t67.5 178.5v20q0 121 -66.5 187.5t-191.5 66.5z" />
    <glyph glyph-name="colon" unicode=":" horiz-adv-x="716" vert-adv-y="2263" 
d="M358 1239q69 0 115.5 -46.5t46.5 -115.5t-46.5 -115.5t-115.5 -46.5t-115 46.5t-46 115.5t46 115.5t115 46.5zM358 440q69 0 115.5 -46t46.5 -115t-46.5 -115.5t-115.5 -46.5t-115 46.5t-46 115.5t46 115t115 46z" />
    <glyph glyph-name="semicolon" unicode=";" horiz-adv-x="716" vert-adv-y="2263" 
d="M399 436q59 -11 88.5 -53.5t8.5 -99.5l-105 -283q-35 -92 -131 -74q-43 8 -65 35.5t-15 69.5l51 311q10 58 59 81.5t109 12.5zM358 1239q69 0 115.5 -46.5t46.5 -115.5t-46.5 -115.5t-115.5 -46.5t-115 46.5t-46 115.5t46 115.5t115 46.5z" />
    <glyph glyph-name="less" unicode="&#x3c;" horiz-adv-x="1269" vert-adv-y="2263" 
d="M969 1274q52 25 90 12t59 -59q22 -40 12.5 -85.5t-55.5 -68.5l-659 -332v-12l659 -336q46 -23 55.5 -68.5t-12.5 -86.5q-21 -46 -60 -59.5t-91 11.5l-729 383q-72 38 -96.5 72t-24.5 86q0 53 24.5 87.5t96.5 72.5z" />
    <glyph glyph-name="equal" unicode="=" horiz-adv-x="1269" vert-adv-y="2263" 
d="M227 1055h815q42 0 65 -30.5t23 -76.5q0 -45 -23 -75.5t-65 -30.5h-815q-42 0 -65 30.5t-23 75.5q0 46 23 76.5t65 30.5zM227 621h815q42 0 65 -30.5t23 -76.5q0 -45 -23 -75.5t-65 -30.5h-815q-42 0 -65 30.5t-23 75.5q0 46 23 76.5t65 30.5z" />
    <glyph glyph-name="greater" unicode="&#x3e;" horiz-adv-x="1269" vert-adv-y="2263" 
d="M301 1274l731 -383q72 -38 96.5 -72.5t24.5 -87.5q0 -52 -24.5 -86t-96.5 -72l-729 -383q-52 -25 -91 -11.5t-60 59.5q-22 41 -12.5 86.5t55.5 68.5l659 336v12l-659 332q-46 23 -55.5 68.5t12.5 85.5q21 46 59 59t90 -12z" />
    <glyph glyph-name="question" unicode="?" horiz-adv-x="1140" vert-adv-y="2263" 
d="M553 1487q220 0 347.5 -104.5t127.5 -274.5v-23q0 -100 -51 -182.5t-195 -212.5q-86 -76 -110.5 -121.5t-24.5 -113.5q0 -44 -35 -72.5t-84 -28.5q-55 0 -90 27t-35 80q0 114 32.5 184.5t137.5 163.5q123 106 158 158t35 116v11q0 71 -53.5 116t-167.5 45
q-132 0 -260 -88q-40 -27 -80 -18.5t-70 47.5q-30 36 -27 83t42 77q168 131 403 131zM526 217q66 0 111 -45t45 -111t-45 -110.5t-111 -44.5t-110.5 44.5t-44.5 110.5t44.5 111t110.5 45z" />
    <glyph glyph-name="at" unicode="@" horiz-adv-x="2054" vert-adv-y="2263" 
d="M1010 893q-97 0 -144 -59.5t-47 -190.5v-41q0 -118 45.5 -179t145.5 -61q87 0 142.5 52t55.5 145v125q0 100 -49 154.5t-149 54.5zM1010 1561q224 0 403 -63.5t296.5 -180t180 -279t62.5 -360.5v-6q0 -78 -10.5 -150t-38.5 -144.5t-70.5 -125.5t-111.5 -86t-158 -33
q-90 0 -157 42t-93 134h-2q-18 -46 -56.5 -81.5t-85.5 -54t-91 -27.5t-83 -9q-211 0 -319.5 122.5t-108.5 334.5v61q0 211 103 334t295 123t260 -129v25q0 49 33.5 74.5t82.5 25.5q50 0 84.5 -25.5t34.5 -74.5v-521q0 -88 28 -129t91 -41q87 0 130.5 80t43.5 271v4
q0 339 -195 523.5t-548 184.5q-151 0 -280.5 -50t-225 -142t-149.5 -232.5t-54 -312.5v-8q0 -248 93 -421.5t259 -258t394 -84.5q277 0 503 98q37 18 70.5 7t48.5 -46q18 -36 7 -71.5t-50 -55.5q-106 -49 -254.5 -81.5t-318.5 -32.5q-447 0 -699 254.5t-252 689.5v12
q0 197 64.5 366t181 290.5t287.5 190.5t375 69z" />
    <glyph glyph-name="A" unicode="A" horiz-adv-x="1413" vert-adv-y="2263" 
d="M705 1477q56 0 94.5 -27t64.5 -94l461 -1188q22 -59 0.5 -103t-74.5 -59q-134 -39 -174 74l-119 328h-516l-120 -336q-20 -56 -68 -71.5t-96 5.5q-52 18 -72.5 57.5t0.5 94.5l461 1198q25 67 64 94t94 27zM700 1149q-35 -123 -71 -227l-109 -297h361l-107 297
q-46 126 -74 227z" />
    <glyph glyph-name="B" unicode="B" horiz-adv-x="1353" vert-adv-y="2263" 
d="M340 1464h399q234 0 349.5 -89.5t115.5 -274.5v-25q0 -53 -12.5 -98.5t-38.5 -86t-72.5 -70.5t-109.5 -46q141 -21 221 -104.5t80 -235.5v-33q0 -189 -117.5 -291t-351.5 -102h-463q-98 0 -136 36.5t-38 133.5v1116q0 97 38 133.5t136 36.5zM426 659v-434h238
q75 0 124.5 4t94 16t69 35t38.5 59.5t14 90.5v27q0 72 -31 114.5t-110 65t-218 22.5h-219zM426 1247v-375h213q123 0 186 18t88 58t25 119v18q0 95 -69.5 128.5t-241.5 33.5h-201z" />
    <glyph glyph-name="C" unicode="C" horiz-adv-x="1347" vert-adv-y="2263" 
d="M735 1487q264 0 422 -111q45 -31 51 -79.5t-24 -88.5q-27 -40 -69.5 -51t-86.5 14q-66 39 -135 56.5t-164 17.5q-175 0 -264.5 -115.5t-89.5 -371.5v-43q0 -254 87 -370t269 -116q186 0 328 95q41 28 86.5 20.5t75.5 -49.5q32 -42 24.5 -94t-55.5 -86
q-180 -129 -465 -129q-614 0 -614 708v84q0 709 624 709z" />
    <glyph glyph-name="D" unicode="D" horiz-adv-x="1433" vert-adv-y="2263" 
d="M340 1464h338q326 0 485.5 -163t159.5 -527v-76q0 -364 -159.5 -527t-485.5 -163h-338q-98 0 -136 36.5t-38 133.5v1116q0 97 38 133.5t136 36.5zM426 1243v-1014h217q153 0 242 46t131.5 152.5t42.5 291.5v35q0 185 -42.5 291.5t-131.5 152t-242 45.5h-217z" />
    <glyph glyph-name="E" unicode="E" horiz-adv-x="1245" vert-adv-y="2263" 
d="M340 1464h698q44 0 67 -30.5t23 -77.5q0 -46 -23.5 -77.5t-66.5 -31.5h-612v-387h571q42 0 65 -30.5t23 -75.5q0 -46 -23 -76.5t-65 -30.5h-571v-422h627q43 0 66.5 -31t23.5 -77q0 -47 -23 -78t-67 -31h-713q-98 0 -136 36.5t-38 133.5v1116q0 97 38 133.5t136 36.5z
" />
    <glyph glyph-name="F" unicode="F" horiz-adv-x="1189" vert-adv-y="2263" 
d="M340 1464h696q45 0 68.5 -31.5t23.5 -78.5t-23.5 -79t-68.5 -32h-608v-412h565q45 0 68.5 -31.5t23.5 -78.5t-23.5 -79t-68.5 -32h-565v-501q0 -55 -37.5 -84t-93.5 -29t-93.5 29t-37.5 84v1185q0 97 38 133.5t136 36.5z" />
    <glyph glyph-name="G" unicode="G" horiz-adv-x="1404" vert-adv-y="2263" 
d="M768 1487q263 0 424 -111q45 -31 51 -79.5t-24 -88.5q-29 -41 -71.5 -51.5t-80.5 14.5q-124 78 -299 78q-106 0 -177.5 -23.5t-121 -80.5t-72 -151.5t-22.5 -235.5v-43q0 -189 41 -296t127.5 -151.5t236.5 -44.5q141 0 246 43v342h-229q-45 0 -68.5 32t-23.5 79
q0 46 23.5 77t68.5 31h315q98 0 136 -36.5t38 -133.5v-405q0 -78 -26.5 -121.5t-92.5 -71.5q-177 -73 -395 -73q-164 0 -284.5 38t-206 121.5t-128 220t-42.5 328.5v84q0 192 42.5 329t127.5 220t204.5 121.5t282.5 38.5z" />
    <glyph glyph-name="H" unicode="H" horiz-adv-x="1468" vert-adv-y="2263" 
d="M297 1477q56 0 93.5 -29t37.5 -84v-487h612v487q0 55 37.5 84t93.5 29q57 0 94.5 -29t37.5 -84v-1255q0 -55 -37.5 -84t-94.5 -29q-56 0 -93.5 29t-37.5 84v550h-612v-550q0 -55 -37.5 -84t-93.5 -29t-93.5 29t-37.5 84v1255q0 55 37.5 84t93.5 29z" />
    <glyph glyph-name="I" unicode="I" horiz-adv-x="593" vert-adv-y="2263" 
d="M297 1477q56 0 93.5 -29t37.5 -84v-1255q0 -55 -37.5 -84t-93.5 -29t-93.5 29t-37.5 84v1255q0 55 37.5 84t93.5 29z" />
    <glyph glyph-name="J" unicode="J" horiz-adv-x="1005" vert-adv-y="2263" 
d="M711 1477q56 0 93.5 -29t37.5 -84v-936q0 -229 -116.5 -335.5t-342.5 -106.5q-79 0 -158.5 22.5t-132.5 57.5q-39 25 -44.5 70t20.5 87q25 42 64 54t85 -11q80 -41 166 -41q104 0 150.5 60.5t46.5 206.5v872q0 55 37.5 84t93.5 29z" />
    <glyph glyph-name="K" unicode="K" horiz-adv-x="1363" vert-adv-y="2263" 
d="M297 1477q56 0 93.5 -29t37.5 -84v-565l600 645q35 35 82.5 32t81.5 -38q35 -36 39 -81t-29 -81l-454 -473l501 -598q38 -47 32 -94t-50 -82q-38 -34 -89.5 -33t-86.5 45l-477 596l-150 -154v-374q0 -55 -37.5 -84t-93.5 -29t-93.5 29t-37.5 84v1255q0 55 37.5 84
t93.5 29z" />
    <glyph glyph-name="L" unicode="L" horiz-adv-x="1142" vert-adv-y="2263" 
d="M297 1477q56 0 93.5 -29t37.5 -84v-1135h594q45 0 68.5 -31.5t23.5 -78.5t-23.5 -79t-68.5 -32h-682q-98 0 -136 36.5t-38 133.5v1186q0 55 37.5 84t93.5 29z" />
    <glyph glyph-name="M" unicode="M" horiz-adv-x="1792" vert-adv-y="2263" 
d="M340 1468h43q49 0 78.5 -6.5t58 -29t51 -62.5t50.5 -110l280 -701l268 698q50 130 98 170.5t142 40.5h43q98 0 136 -36.5t38 -133.5v-1196q0 -53 -35 -79.5t-90 -26.5q-52 0 -87.5 27t-35.5 79v1137q-33 -136 -67 -221l-271 -666q-26 -63 -55.5 -85.5t-83.5 -22.5
q-63 0 -95 23.5t-58 90.5l-265 660q-28 67 -71 221v-1137q0 -52 -35.5 -79t-89.5 -27q-50 0 -85.5 27t-35.5 79v1196q0 97 38 133.5t136 36.5z" />
    <glyph glyph-name="N" unicode="N" horiz-adv-x="1476" vert-adv-y="2263" 
d="M1190 1477q50 0 85.5 -27.5t35.5 -79.5v-1196q0 -97 -38 -133.5t-136 -36.5q-41 0 -66 6t-54 28t-56.5 62t-67.5 111l-387 692q-66 120 -98 236v-1037q0 -52 -35.5 -79t-85.5 -27t-85.5 27t-35.5 79v1196q0 97 38 133.5t136 36.5q54 0 86.5 -13.5t69 -56.5t88.5 -136
l387 -693q67 -121 98 -235v1036q0 52 35.5 79.5t85.5 27.5z" />
    <glyph glyph-name="O" unicode="O" horiz-adv-x="1474" vert-adv-y="2263" 
d="M737 1487q627 0 627 -709v-84q0 -708 -627 -708q-626 0 -626 708v84q0 709 626 709zM737 1247q-124 0 -201.5 -44.5t-119 -153t-41.5 -291.5v-43q0 -183 41.5 -292t119 -153.5t201.5 -44.5t201.5 44.5t119.5 153.5t42 292v43q0 138 -22.5 233t-69.5 151t-112.5 80.5
t-158.5 24.5z" />
    <glyph glyph-name="P" unicode="P" horiz-adv-x="1302" vert-adv-y="2263" 
d="M340 1464h383q254 0 380 -115t126 -307v-28q0 -92 -31.5 -171t-92.5 -141t-159.5 -97.5t-222.5 -35.5h-295v-460q0 -55 -37.5 -84t-93.5 -29t-93.5 29t-37.5 84v1185q0 97 38 133.5t136 36.5zM428 1245v-454h260q137 0 207 52t70 175v22q0 114 -65.5 159.5t-188.5 45.5
h-283z" />
    <glyph glyph-name="Q" unicode="Q" horiz-adv-x="1462" vert-adv-y="2263" 
d="M737 1487q627 0 627 -709v-84q0 -330 -135 -506l119 -116q31 -34 26 -71t-39 -71q-32 -32 -68.5 -36.5t-70.5 26.5l-133 131q-133 -65 -326 -65q-626 0 -626 708v84q0 709 626 709zM737 1247q-124 0 -201.5 -44.5t-119 -153t-41.5 -291.5v-43q0 -183 41.5 -292
t119 -153.5t201.5 -44.5q73 0 133 17l-120 120q-31 34 -26.5 71t36.5 69q34 34 70.5 38.5t70.5 -26.5l137 -137q62 118 62 338v43q0 138 -22.5 233t-69.5 151t-112.5 80.5t-158.5 24.5z" />
    <glyph glyph-name="R" unicode="R" horiz-adv-x="1351" vert-adv-y="2263" 
d="M340 1464h385q225 0 352 -113t127 -307v-36q0 -138 -65.5 -233t-182.5 -142l258 -457q26 -52 11 -96t-64 -68q-46 -25 -96.5 -15.5t-75.5 58.5l-280 537q-14 -2 -45 -2h-236v-481q0 -55 -37.5 -84t-93.5 -29t-93.5 29t-37.5 84v1185q0 97 38 133.5t136 36.5zM428 1245
v-436h240q146 0 211 50.5t65 152.5v26q0 207 -254 207h-262z" />
    <glyph glyph-name="S" unicode="S" horiz-adv-x="1282" vert-adv-y="2263" 
d="M657 1487q222 0 371 -76q44 -23 57 -68.5t-12 -89.5q-24 -45 -63.5 -58t-81.5 7q-119 51 -266 51q-126 0 -199.5 -54t-73.5 -124v-12q0 -79 62 -121.5t245 -79.5q252 -52 365 -155.5t113 -270.5v-18q0 -210 -138.5 -321t-404.5 -111q-124 0 -245 31t-204 83
q-47 29 -54.5 79t22.5 91q29 44 70 54.5t87 -15.5q154 -88 336 -88q135 0 201.5 48t66.5 128v15q0 85 -65 133t-215 78q-136 27 -225 58.5t-154 81.5t-94 121.5t-29 172.5v14q0 87 34.5 162t100 132t166.5 89.5t227 32.5z" />
    <glyph glyph-name="T" unicode="T" horiz-adv-x="1169" vert-adv-y="2263" 
d="M100 1464h969q45 0 68.5 -31.5t23.5 -78.5t-23.5 -79t-68.5 -32h-352v-1134q0 -55 -37.5 -84t-93.5 -29t-93.5 29t-37.5 84v1134h-355q-45 0 -68.5 32t-23.5 79t23.5 78.5t68.5 31.5z" />
    <glyph glyph-name="U" unicode="U" horiz-adv-x="1425" vert-adv-y="2263" 
d="M270 1477q56 0 93.5 -29t37.5 -84v-752q0 -214 73.5 -301.5t238.5 -87.5t238 87.5t73 301.5v752q0 55 37.5 84t93.5 29t93.5 -29t37.5 -84v-748q0 -179 -36.5 -302t-111.5 -194.5t-178 -102.5t-247 -31t-246.5 31t-178 102.5t-112.5 194.5t-37 302v748q0 55 37.5 84
t93.5 29z" />
    <glyph glyph-name="V" unicode="V" horiz-adv-x="1447" vert-adv-y="2263" 
d="M1268 1466q52 -18 73.5 -58.5t-0.5 -96.5l-462 -1194q-26 -67 -66 -94t-96 -27q-55 0 -94.5 27t-65.5 94l-451 1192q-22 57 0 97t76 60q50 22 102.5 4.5t71.5 -71.5l367 -1067l375 1063q21 57 70 75t100 -4z" />
    <glyph glyph-name="W" unicode="W" horiz-adv-x="2031" vert-adv-y="2263" 
d="M1024 1477q52 0 95 -30t61 -93l266 -963l260 995q13 54 54.5 76t94.5 11q54 -10 76.5 -50t7.5 -96l-337 -1208q-18 -63 -61 -93t-95 -30q-53 0 -96 30.5t-60 96.5l-268 1001l-281 -1005q-17 -63 -60.5 -93t-96.5 -30q-55 0 -97.5 30t-60.5 95l-330 1194q-17 59 8 100
t82 55q131 31 160 -79l252 -1002l268 965q18 63 61 93t97 30z" />
    <glyph glyph-name="X" unicode="X" horiz-adv-x="1370" vert-adv-y="2263" 
d="M1180 1458q51 -28 63.5 -73t-20.5 -97l-371 -538l381 -557q34 -49 24 -97.5t-61 -79.5q-43 -28 -95.5 -19.5t-82.5 54.5l-338 520l-340 -516q-29 -44 -79.5 -55.5t-94.5 14.5q-47 29 -59.5 75t18.5 93l399 572l-362 526q-33 50 -17 100t70 78q49 27 100.5 15.5
t81.5 -60.5l303 -483l310 485q30 47 77.5 58.5t92.5 -15.5z" />
    <glyph glyph-name="Y" unicode="Y" horiz-adv-x="1327" vert-adv-y="2263" 
d="M1161 1462q51 -23 66 -63.5t-15 -100.5l-417 -716v-473q0 -55 -37.5 -84t-93.5 -29q-57 0 -94.5 29t-37.5 84v473l-415 714q-28 50 -13.5 93.5t66.5 70.5q43 26 93.5 13.5t78.5 -64.5l328 -586l321 584q28 52 75 65.5t95 -10.5z" />
    <glyph glyph-name="Z" unicode="Z" horiz-adv-x="1288" vert-adv-y="2263" 
d="M182 1464h832q93 0 133.5 -33.5t40.5 -107.5q0 -36 -14.5 -66t-69.5 -100l-731 -924h768q47 0 70.5 -31.5t23.5 -80.5t-23.5 -81t-70.5 -32h-908q-101 0 -143.5 35t-42.5 115q0 37 20.5 77.5t92.5 131.5l688 872h-666q-47 0 -70.5 32t-23.5 81t23.5 80.5t70.5 31.5z" />
    <glyph glyph-name="bracketleft" unicode="[" horiz-adv-x="864" vert-adv-y="2263" 
d="M352 1630h346q45 0 69 -31.5t24 -78.5t-24 -79t-69 -32h-260v-1454h260q45 0 69 -32t24 -79t-24 -78.5t-69 -31.5h-346q-98 0 -136 36.5t-38 133.5v1556q0 97 38 133.5t136 36.5z" />
    <glyph glyph-name="backslash" unicode="\" horiz-adv-x="1970" vert-adv-y="2263" 
d="M997 1477q109 0 140 -123l114 -488h215l117 523q11 52 52 73t89 11q51 -11 75 -48.5t11 -93.5l-116 -465h164q29 0 44 -20t15 -53q0 -31 -15 -51.5t-44 -20.5h-199l-150 -602q-16 -63 -54 -93t-85 -30t-85 30.5t-54 96.5l-139 598h-197l-152 -602q-16 -63 -55 -93
t-86 -30q-48 0 -86.5 30.5t-52.5 94.5l-150 600h-200q-29 0 -44.5 20.5t-15.5 51.5q0 32 15.5 52.5t44.5 20.5h166l-115 465q-13 56 11.5 93.5t76.5 48.5q50 12 90 -8t53 -76l117 -523h223l123 488q31 123 139 123zM545 721l71 -324l82 324h-153zM1286 721l76 -322l72 322
h-148zM997 1124l-65 -258h125z" />
    <glyph glyph-name="bracketright" unicode="]" horiz-adv-x="864" vert-adv-y="2263" 
d="M166 1630h346q98 0 136 -36.5t38 -133.5v-1556q0 -97 -38 -133.5t-136 -36.5h-346q-45 0 -68.5 31.5t-23.5 78.5t23.5 79t68.5 32h260v1454h-260q-45 0 -68.5 32t-23.5 79t23.5 78.5t68.5 31.5z" />
    <glyph glyph-name="asciicircum" unicode="^" horiz-adv-x="1073" vert-adv-y="2263" 
d="M537 1516q60 0 102.5 -31.5t79.5 -104.5l207 -403q23 -48 9.5 -83.5t-56.5 -53.5q-40 -20 -82.5 -9t-63.5 54l-196 415l-197 -415q-21 -43 -63 -54t-82 9q-43 18 -57 53.5t9 83.5l209 403q38 73 80 104.5t101 31.5z" />
    <glyph glyph-name="underscore" unicode="_" horiz-adv-x="1064" vert-adv-y="2263" 
d="M74 -66h917q35 0 54.5 -26t19.5 -66q0 -37 -19.5 -62.5t-54.5 -25.5h-917q-35 0 -54.5 25.5t-19.5 62.5q0 40 19.5 66t54.5 26z" />
    <glyph glyph-name="grave" unicode="`" horiz-adv-x="675" vert-adv-y="2263" 
d="M217 1579q37 32 87 28t81 -51l125 -192q44 -72 -23 -127q-32 -26 -68.5 -22t-68.5 38l-157 166q-34 42 -25.5 85.5t49.5 74.5z" />
    <glyph glyph-name="a" unicode="a" horiz-adv-x="1171" vert-adv-y="2263" 
d="M526 473q-97 0 -139.5 -36.5t-42.5 -106.5v-4q0 -119 154 -119q121 0 190 41q50 29 71 68.5t21 103.5v53h-254zM580 1120q202 0 328 -96.5t126 -263.5v-666q0 -48 -34 -73t-82 -25t-82.5 25t-34.5 73v53h-2q-26 -62 -121 -110q-88 -45 -201 -45q-183 0 -283 84t-100 237
v33q0 326 426 326h258v28q0 104 -47.5 150.5t-152.5 46.5q-139 0 -263 -74q-42 -24 -81 -13t-64 52q-24 38 -17 81t46 69q75 50 175 79t206 29z" />
    <glyph glyph-name="b" unicode="b" horiz-adv-x="1255" vert-adv-y="2263" 
d="M283 1528q55 0 92 -28t37 -81v-434q34 49 93 81t112 43t104 11q220 0 330 -136t110 -400v-54q0 -261 -121.5 -399.5t-330.5 -138.5q-108 0 -185.5 39.5t-117.5 107.5h-7v-39q0 -51 -36 -77.5t-87 -26.5t-86.5 26.5t-35.5 77.5v1319q0 52 37.5 80.5t91.5 28.5zM670 899
q-125 0 -193.5 -73.5t-68.5 -192.5v-191q0 -89 77.5 -160t190.5 -71t171 82.5t58 243.5v41q0 162 -55 241.5t-180 79.5z" />
    <glyph glyph-name="c" unicode="c" horiz-adv-x="1079" vert-adv-y="2263" 
d="M606 1120q209 0 350 -92q39 -26 46 -72.5t-21 -85.5q-26 -37 -62.5 -47t-78.5 13q-101 59 -234 59q-127 0 -189.5 -77t-62.5 -236v-52q0 -151 66 -231t188 -80q142 0 250 60q41 24 83 14t65 -51q25 -40 17.5 -86.5t-48.5 -73.5q-143 -90 -369 -90q-245 0 -378.5 136
t-133.5 402v52q0 266 133 402t379 136z" />
    <glyph glyph-name="d" unicode="d" horiz-adv-x="1253" vert-adv-y="2263" 
d="M588 899q-240 0 -240 -324v-40q0 -165 55.5 -244.5t174.5 -79.5q124 0 196 78.5t72 197.5v189q0 88 -67 155.5t-191 67.5zM971 1528q55 0 92 -28t37 -81v-1319q0 -51 -36 -77.5t-87 -26.5q-50 0 -85.5 26.5t-35.5 77.5v41h-6q-42 -77 -128 -113t-196 -36
q-213 0 -323.5 136.5t-110.5 399.5v54q0 261 122 399.5t331 138.5q119 0 192 -36.5t105 -84.5v420q0 52 37.5 80.5t91.5 28.5z" />
    <glyph glyph-name="e" unicode="e" horiz-adv-x="1191" vert-adv-y="2263" 
d="M604 907q-125 0 -191.5 -65.5t-66.5 -173.5v-15h508v21q0 107 -61 170t-189 63zM608 1120q224 0 359 -128.5t135 -356.5v-4q0 -97 -38 -133.5t-136 -36.5h-582v-4q0 -113 71 -181.5t204 -68.5q157 0 282 57q41 19 79.5 5t57.5 -56t7.5 -82.5t-50.5 -60.5
q-156 -78 -387 -78q-248 0 -382 136t-134 400v54q0 262 135.5 400t378.5 138z" />
    <glyph glyph-name="f" unicode="f" horiz-adv-x="831" vert-adv-y="2263" 
d="M596 1528q72 0 139 -21q87 -28 70 -121q-20 -100 -105 -86q-50 9 -79 9q-136 0 -136 -142v-71h209q44 0 67 -30.5t23 -76.5t-23 -76t-67 -30h-209v-779q0 -53 -37 -80.5t-92 -27.5q-54 0 -91.5 28t-37.5 80v779h-104q-44 0 -67 30t-23 76t23 76.5t67 30.5h104v78
q0 171 92.5 262.5t276.5 91.5z" />
    <glyph glyph-name="g" unicode="g" horiz-adv-x="1253" vert-adv-y="2263" 
d="M545 1120q118 0 194.5 -38t110.5 -85h2v7q0 51 36 77.5t89 26.5q51 0 87 -26.5t36 -77.5v-965q0 -236 -131 -351.5t-406 -115.5q-85 0 -171.5 23t-147.5 57q-39 22 -47 69t16 84q54 94 141 50q114 -60 213 -60q139 0 209 59t70 187v127h-4q-80 -148 -316 -148
q-213 0 -323.5 135.5t-110.5 393.5v41q0 256 122 393t331 137zM588 899q-240 0 -240 -315v-29q0 -160 55.5 -237.5t174.5 -77.5q124 0 196 78.5t72 197.5v160q0 88 -67 155.5t-191 67.5z" />
    <glyph glyph-name="h" unicode="h" horiz-adv-x="1271" vert-adv-y="2263" 
d="M276 1528q51 0 87 -27t36 -78v-456h4q45 75 137.5 114t194.5 39q182 0 287.5 -108t105.5 -310v-598q0 -53 -37 -80.5t-92 -27.5q-54 0 -91.5 28t-37.5 80v543q0 138 -56.5 193t-158.5 55q-42 0 -82 -13.5t-77.5 -42t-60.5 -82.5t-23 -126v-527q0 -53 -37 -80.5t-92 -27.5
q-54 0 -91.5 28t-37.5 80v1319q0 51 35.5 78t86.5 27z" />
    <glyph glyph-name="i" unicode="i" horiz-adv-x="577" vert-adv-y="2263" 
d="M289 1108q55 0 92 -28t37 -81v-895q0 -53 -37 -80.5t-92 -27.5q-54 0 -91.5 28t-37.5 80v895q0 52 37.5 80.5t91.5 28.5zM289 1532q67 0 114.5 -45.5t47.5 -110.5t-47.5 -110t-114.5 -45t-114.5 45t-47.5 110t47.5 110.5t114.5 45.5z" />
    <glyph glyph-name="j" unicode="j" horiz-adv-x="626" vert-adv-y="2263" 
d="M338 1532q67 0 114.5 -45.5t47.5 -110.5t-47.5 -110t-114.5 -45t-114.5 45t-47.5 110t47.5 110.5t114.5 45.5zM338 1108q55 0 92 -28t37 -81v-1032q0 -375 -365 -375q-105 0 -180 35q-38 17 -51.5 53.5t0.5 79.5q14 47 47 63t68 5q47 -16 94 -16q69 0 99 35t30 118v1034
q0 52 37.5 80.5t91.5 28.5z" />
    <glyph glyph-name="k" unicode="k" horiz-adv-x="1191" vert-adv-y="2263" 
d="M283 1528q55 0 92 -28t37 -81v-782l440 434q39 38 91.5 35.5t86.5 -39.5q36 -39 35.5 -87t-39.5 -83l-303 -274l356 -420q35 -44 28.5 -91t-46.5 -81q-40 -36 -93.5 -35t-86.5 43l-342 424l-127 -115v-244q0 -53 -37 -80.5t-92 -27.5q-54 0 -91.5 28t-37.5 80v1315
q0 52 37.5 80.5t91.5 28.5z" />
    <glyph glyph-name="l" unicode="l" horiz-adv-x="565" vert-adv-y="2263" 
d="M283 1528q55 0 92 -28.5t37 -82.5v-1311q0 -54 -37 -82t-92 -28t-92 28t-37 82v1311q0 54 37 82.5t92 28.5z" />
    <glyph glyph-name="m" unicode="m" horiz-adv-x="1894" vert-adv-y="2263" 
d="M711 1120q104 0 187 -47.5t114 -124.5q62 88 144 130t206 42q79 0 149 -27.5t124 -79t85 -134t31 -185.5v-590q0 -53 -37 -80.5t-92 -27.5q-54 0 -91.5 28t-37.5 80v537q0 140 -55.5 195t-149.5 55q-87 0 -147 -56.5t-60 -185.5v-545q0 -53 -37 -80.5t-92 -27.5
q-54 0 -91.5 28t-37.5 80v541q0 246 -205 246q-94 0 -150 -59t-56 -173v-555q0 -53 -37 -80.5t-92 -27.5q-54 0 -91.5 28t-37.5 80v900q0 51 35 77.5t85 26.5q51 0 87 -26.5t36 -77.5v-58q44 83 125.5 128.5t188.5 45.5z" />
    <glyph glyph-name="n" unicode="n" horiz-adv-x="1271" vert-adv-y="2263" 
d="M735 1120q182 0 287.5 -108t105.5 -310v-598q0 -53 -37 -80.5t-92 -27.5q-54 0 -91.5 28t-37.5 80v543q0 138 -56.5 193t-158.5 55q-42 0 -82 -13.5t-77.5 -42t-60.5 -82.5t-23 -126v-527q0 -53 -37 -80.5t-92 -27.5q-54 0 -91.5 28t-37.5 80v900q0 51 35.5 77.5
t86.5 26.5t87 -26.5t36 -77.5v-37h4q45 75 137.5 114t194.5 39z" />
    <glyph glyph-name="o" unicode="o" horiz-adv-x="1245" vert-adv-y="2263" 
d="M623 1120q251 0 389.5 -138t138.5 -400v-52q0 -262 -138.5 -400t-389.5 -138q-252 0 -390.5 138.5t-138.5 399.5v52q0 261 138.5 399.5t390.5 138.5zM623 895q-139 0 -204 -76t-65 -241v-43q0 -165 65 -241.5t204 -76.5q138 0 203 76.5t65 241.5v43q0 165 -64.5 241
t-203.5 76z" />
    <glyph glyph-name="p" unicode="p" horiz-adv-x="1255" vert-adv-y="2263" 
d="M721 1120q220 0 330 -136t110 -400v-54q0 -261 -121.5 -399.5t-330.5 -138.5q-200 0 -297 131v-416q0 -53 -37 -80.5t-92 -27.5q-54 0 -91.5 28t-37.5 80v1297q0 51 35.5 77.5t86.5 26.5q53 0 89 -26.5t36 -77.5v-31q54 79 140.5 113t179.5 34zM670 899
q-125 0 -193.5 -73.5t-68.5 -192.5v-191q0 -89 77.5 -160t190.5 -71t171 82.5t58 243.5v41q0 162 -55 241.5t-180 79.5z" />
    <glyph glyph-name="q" unicode="q" horiz-adv-x="1253" vert-adv-y="2263" 
d="M545 1120q115 0 190 -37t111 -84h4v5q0 51 36 77.5t91 26.5q51 0 87 -26.5t36 -77.5v-1299q0 -51 -37.5 -78.5t-89.5 -27.5q-53 0 -90 27.5t-37 78.5v434h-6q-80 -147 -314 -147q-213 0 -323.5 136.5t-110.5 399.5v54q0 261 122 399.5t331 138.5zM588 899
q-240 0 -240 -324v-40q0 -165 55.5 -244.5t174.5 -79.5q124 0 196 78.5t72 197.5v189q0 88 -67 155.5t-191 67.5z" />
    <glyph glyph-name="r" unicode="r" horiz-adv-x="905" vert-adv-y="2263" 
d="M700 1120q72 0 111 -22q69 -38 53 -129q-11 -57 -47 -88.5t-82 -22.5q-10 2 -32 6.5t-38 7t-32 2.5q-94 0 -157.5 -68.5t-63.5 -170.5v-531q0 -53 -37 -80.5t-92 -27.5q-54 0 -91.5 28t-37.5 80v900q0 51 35.5 77.5t86.5 26.5q53 0 89 -26.5t36 -77.5v-72h5
q43 86 121.5 137t172.5 51z" />
    <glyph glyph-name="s" unicode="s" horiz-adv-x="1050" vert-adv-y="2263" 
d="M537 1120q202 0 319 -63q100 -55 53 -154q-19 -39 -53.5 -51.5t-79.5 6.5q-99 47 -211 47q-109 0 -158 -26.5t-49 -69.5v-4q0 -36 13.5 -54t57 -34t138.5 -35q165 -32 253.5 -75.5t124.5 -108.5t36 -172v-9q0 -141 -123.5 -233t-325.5 -92q-235 0 -403 92q-41 22 -51 67
t12 85q22 44 61.5 57.5t84.5 -8.5q145 -76 294 -76q189 0 189 108v5q0 37 -14.5 56t-64 36.5t-157.5 38.5q-213 41 -298 119t-85 229v8q0 132 113.5 221.5t323.5 89.5z" />
    <glyph glyph-name="t" unicode="t" horiz-adv-x="845" vert-adv-y="2263" 
d="M354 1397q55 0 92 -28.5t37 -82.5v-190h215q44 0 67 -30.5t23 -76.5t-23 -76t-67 -30h-215v-541q0 -68 24.5 -99.5t76.5 -31.5q47 0 94 16q35 12 68 -4.5t47 -62.5q14 -43 0 -79.5t-52 -53.5q-75 -35 -180 -35q-179 0 -257.5 89t-78.5 273v529h-102q-44 0 -67 30t-23 76
t23 76.5t67 30.5h102v190q0 54 37 82.5t92 28.5z" />
    <glyph glyph-name="u" unicode="u" horiz-adv-x="1265" vert-adv-y="2263" 
d="M272 1108q54 0 91.5 -28.5t37.5 -80.5v-536q0 -138 56 -193t157 -55q42 0 81.5 13.5t76.5 42t59.5 82.5t22.5 126v520q0 53 37 81t92 28q54 0 91.5 -28.5t37.5 -80.5v-899q0 -51 -36 -77.5t-87 -26.5t-87 26.5t-36 77.5v43h-4q-45 -75 -136 -114t-191 -39
q-181 0 -286.5 108t-105.5 310v591q0 53 37 81t92 28z" />
    <glyph glyph-name="v" unicode="v" horiz-adv-x="1097" vert-adv-y="2263" 
d="M127 1096q33 10 65.5 11.5t61 -18t41.5 -57.5l258 -760h2l258 760q19 56 68.5 70.5t95.5 -6.5q49 -18 71 -58.5t1 -93.5l-310 -811q-53 -137 -190 -137q-138 0 -191 137l-309 811q-20 52 4 92.5t74 59.5z" />
    <glyph glyph-name="w" unicode="w" horiz-adv-x="1609" vert-adv-y="2263" 
d="M813 1108q50 0 91 -30.5t57 -94.5l167 -721h9l161 750q13 62 55 83t97 9t79 -52t9 -100l-209 -817q-20 -74 -64 -106.5t-118 -32.5q-146 0 -182 137l-154 629h-8l-156 -629q-36 -137 -182 -137t-182 137l-209 813q-15 61 11 103.5t83 54.5q59 12 104 -10.5t58 -87.5
l147 -744h8l177 717q16 67 58 98t93 31z" />
    <glyph glyph-name="x" unicode="x" horiz-adv-x="1089" vert-adv-y="2263" 
d="M952 1081q43 -32 51 -76.5t-24 -89.5l-277 -352l295 -364q34 -42 28.5 -89t-50.5 -85q-37 -33 -91 -28t-87 50l-254 338l-254 -336q-35 -47 -85 -52.5t-87 26.5q-43 34 -51.5 76.5t24.5 88.5l301 375l-270 342q-34 42 -28.5 89t50.5 85q37 33 91.5 28t87.5 -50l229 -316
l229 314q34 47 84.5 52.5t87.5 -26.5z" />
    <glyph glyph-name="y" unicode="y" horiz-adv-x="1144" vert-adv-y="2263" 
d="M995 1100q49 -14 73.5 -56.5t4.5 -93.5l-512 -1300q-19 -49 -65 -62t-95 9q-50 20 -68 57.5t1 83.5l110 266l-372 938q-21 52 4 93.5t76 60.5q33 10 64.5 11.5t60 -18t42.5 -59.5l256 -733h3l253 733q13 38 41.5 58t59.5 20t63 -8z" />
    <glyph glyph-name="z" unicode="z" horiz-adv-x="1019" vert-adv-y="2263" 
d="M166 1096h602q93 0 133.5 -34t40.5 -108q0 -40 -16 -72.5t-68 -93.5l-483 -557h516q45 0 68.5 -31.5t23.5 -80.5t-23.5 -80t-68.5 -31h-682q-168 0 -168 113q0 40 16.5 72.5t77.5 103.5l490 575h-459q-45 0 -68.5 31t-23.5 80t23.5 81t68.5 32z" />
    <glyph glyph-name="braceleft" unicode="{" horiz-adv-x="978" vert-adv-y="2263" 
d="M647 1630h166q45 0 68.5 -31.5t23.5 -78.5t-23.5 -79t-68.5 -32h-123q-35 0 -58 -7t-37 -18.5t-21 -37t-9 -52t-2 -73.5v-269q0 -54 -14 -101.5t-56.5 -91.5t-109.5 -59q67 -15 109.5 -59t56.5 -91t14 -101v-322q0 -107 22 -139.5t105 -32.5h123q45 0 68.5 -32t23.5 -79
t-23.5 -78.5t-68.5 -31.5h-166q-161 0 -252.5 74t-91.5 219v411q0 130 -137 148q-51 7 -71.5 36t-20.5 78q0 50 20.5 79t71.5 36q137 18 137 148v358q0 148 92.5 228.5t251.5 80.5z" />
    <glyph glyph-name="bar" unicode="|" horiz-adv-x="628" vert-adv-y="2263" 
d="M313 1642q56 0 92.5 -28t36.5 -82v-1700q0 -54 -36.5 -82.5t-92.5 -28.5q-55 0 -91 28.5t-36 82.5v1700q0 54 36 82t91 28z" />
    <glyph glyph-name="braceright" unicode="}" horiz-adv-x="978" vert-adv-y="2263" 
d="M166 1630h166q159 0 251.5 -80.5t92.5 -228.5v-358q0 -130 137 -148q51 -7 71.5 -36t20.5 -79q0 -49 -20.5 -78t-71.5 -36q-137 -18 -137 -148v-411q0 -145 -91.5 -219t-252.5 -74h-166q-45 0 -68.5 31.5t-23.5 78.5t23.5 79t68.5 32h123q83 0 105 32.5t22 139.5v322
q0 54 14 101t56.5 91t109.5 59q-67 15 -109.5 59t-56.5 91.5t-14 101.5v269q0 47 -2 73.5t-9 52t-21 37t-37 18.5t-58 7h-123q-45 0 -68.5 32t-23.5 79t23.5 78.5t68.5 31.5z" />
    <glyph glyph-name="asciitilde" unicode="~" horiz-adv-x="1228" vert-adv-y="2263" 
d="M1030 950q43 -9 66 -40.5t14 -80.5q-29 -146 -111.5 -223.5t-197.5 -77.5q-53 0 -100.5 19t-81 46t-63.5 54.5t-62 46.5t-64 19q-73 0 -102 -131q-10 -45 -46.5 -62.5t-82.5 -7.5q-42 10 -64.5 41t-13.5 80q10 53 34.5 104.5t61.5 96.5t91 72.5t116 27.5q55 0 103.5 -19
t82 -46t63.5 -54t61.5 -46t62.5 -19q78 0 104 131q10 45 46.5 62t82.5 7z" />
    <glyph glyph-name="uni20A9" unicode="&#x20a9;" horiz-adv-x="1970" vert-adv-y="2263" 
d="M997 1477q109 0 140 -123l114 -488h215l117 523q11 52 52 73t89 11q51 -11 75 -48.5t11 -93.5l-116 -465h164q29 0 44 -20t15 -53q0 -31 -15 -51.5t-44 -20.5h-199l-150 -602q-16 -63 -54 -93t-85 -30t-85 30.5t-54 96.5l-139 598h-197l-152 -602q-16 -63 -55 -93
t-86 -30q-48 0 -86.5 30.5t-52.5 94.5l-150 600h-200q-29 0 -44.5 20.5t-15.5 51.5q0 32 15.5 52.5t44.5 20.5h166l-115 465q-13 56 11.5 93.5t76.5 48.5q50 12 90 -8t53 -76l117 -523h223l123 488q31 123 139 123zM545 721l71 -324l82 324h-153zM1286 721l76 -322l72 322
h-148zM997 1124l-65 -258h125z" />
    <glyph glyph-name="uni2010" unicode="&#x2010;" horiz-adv-x="860" vert-adv-y="2263" 
d="M135 850h590q45 0 69.5 -34.5t24.5 -84.5q0 -49 -24.5 -83t-69.5 -34h-590q-45 0 -69.5 34t-24.5 83q0 50 24.5 84.5t69.5 34.5z" />
    <glyph glyph-name="copyright" unicode="&#xa9;" horiz-adv-x="1740" vert-adv-y="2263" 
d="M866 1315q-244 0 -402.5 -161.5t-158.5 -418.5q0 -125 42.5 -233t117 -183.5t178.5 -119t223 -43.5q251 0 410.5 162.5t159.5 416.5q0 257 -161 418.5t-409 161.5zM866 1487q171 0 314.5 -58.5t239.5 -160t149 -239t53 -294.5q0 -155 -53.5 -292.5t-150 -239
t-239.5 -160.5t-313 -59q-166 0 -307 59t-237 160.5t-149.5 239t-53.5 292.5q0 157 53.5 294.5t149.5 239t237 160t307 58.5zM885 1130q151 0 245 -63q28 -19 32.5 -51t-15.5 -60q-41 -59 -98 -26q-69 41 -164 41q-176 0 -176 -217v-35q0 -106 46 -161.5t132 -55.5
q101 0 174 43q29 15 58 7.5t44 -36.5q18 -28 14 -61t-34 -52q-97 -61 -258 -61q-172 0 -265.5 95.5t-93.5 281.5v35q0 186 93 281t266 95z" />
    <glyph glyph-name="Korea1.99" horiz-adv-x="1452" vert-adv-y="2263" 
d="M86 1464h438q32 0 48 -21t16 -52q0 -32 -16 -54t-48 -22h-131v-459q0 -36 -26 -55t-64 -19q-41 0 -66.5 18.5t-25.5 55.5v459h-125q-32 0 -47.5 22t-15.5 54q0 31 15.5 52t47.5 21zM741 1464h17q56 0 82 -21t61 -95l115 -246l114 246q34 72 60.5 94t81.5 22h14
q67 0 92 -21.5t25 -78.5v-518q0 -31 -25 -48.5t-61 -17.5q-33 0 -57.5 17.5t-24.5 48.5v397q-8 -24 -43 -100l-88 -176q-19 -37 -39 -53.5t-49 -16.5q-54 0 -90 70l-86 176q-30 61 -43 100v-397q0 -31 -25 -48.5t-61 -17.5q-33 0 -57.5 17.5t-24.5 48.5v518q0 57 24.5 78.5
t87.5 21.5z" />
    <glyph glyph-name="Korea1.100" vert-adv-y="2263" 
d="M379 229q69 0 115.5 -46t46.5 -115t-46.5 -115.5t-115.5 -46.5t-115.5 46.5t-46.5 115.5t46.5 115t115.5 46zM932 229q69 0 115.5 -46t46.5 -115t-46.5 -115.5t-115.5 -46.5t-115.5 46.5t-46.5 115.5t46.5 115t115.5 46zM1485 229q69 0 115.5 -46t46.5 -115t-46.5 -115.5
t-115.5 -46.5t-115.5 46.5t-46.5 115.5t46.5 115t115.5 46z" />
    <glyph glyph-name="uni3164" unicode="&#x3000;" vert-adv-y="2263" 
 />
    <glyph glyph-name="uni3164" unicode="&#x3164;" vert-adv-y="2263" 
 />
    <glyph glyph-name="uni3001" unicode="&#x3001;" vert-adv-y="2263" 
d="M330 266q90 -73 156 -138t143 -157q35 -45 28.5 -89t-43.5 -77q-26 -21 -53 -29.5t-56.5 0.5t-51.5 38q-71 91 -131 154.5t-156 146.5q-37 35 -35.5 74t35.5 73q33 33 76.5 35.5t87.5 -31.5z" />
    <glyph glyph-name="uni3002" unicode="&#x3002;" vert-adv-y="2263" 
d="M397 225q-71 0 -111 -45.5t-40 -111.5q0 -69 40 -113.5t111 -44.5q69 0 111.5 45t42.5 113q0 65 -42.5 111t-111.5 46zM397 379q140 0 229 -89t89 -222t-90 -223.5t-228 -90.5q-141 0 -230 90t-89 224q0 132 89 221.5t230 89.5z" />
    <glyph glyph-name="uni30FB" unicode="&#x30fb;" horiz-adv-x="931" vert-adv-y="2263" 
d="M467 893q69 0 115.5 -46.5t46.5 -115.5t-46.5 -115.5t-115.5 -46.5t-115.5 46.5t-46.5 115.5t46.5 115.5t115.5 46.5z" />
    <glyph glyph-name="twodotenleader" unicode="&#x2025;" vert-adv-y="2263" 
d="M641 893q69 0 115.5 -46.5t46.5 -115.5t-46.5 -115.5t-115.5 -46.5t-115.5 46.5t-46.5 115.5t46.5 115.5t115.5 46.5zM1223 893q69 0 115 -46.5t46 -115.5t-46 -115.5t-115 -46.5t-115.5 46.5t-46.5 115.5t46.5 115.5t115.5 46.5z" />
    <glyph glyph-name="uni22EF" unicode="&#x2026;" vert-adv-y="2263" 
d="M350 893q69 0 115.5 -46.5t46.5 -115.5t-46.5 -115.5t-115.5 -46.5t-115.5 46.5t-46.5 115.5t46.5 115.5t115.5 46.5zM932 893q69 0 115.5 -46.5t46.5 -115.5t-46.5 -115.5t-115.5 -46.5t-115.5 46.5t-46.5 115.5t46.5 115.5t115.5 46.5zM1513 893q69 0 115.5 -46.5
t46.5 -115.5t-46.5 -115.5t-115.5 -46.5t-115 46.5t-46 115.5t46 115.5t115 46.5z" />
    <glyph glyph-name="uni22EF" unicode="&#x22ef;" vert-adv-y="2263" 
d="M350 893q69 0 115.5 -46.5t46.5 -115.5t-46.5 -115.5t-115.5 -46.5t-115.5 46.5t-46.5 115.5t46.5 115.5t115.5 46.5zM932 893q69 0 115.5 -46.5t46.5 -115.5t-46.5 -115.5t-115.5 -46.5t-115.5 46.5t-46.5 115.5t46.5 115.5t115.5 46.5zM1513 893q69 0 115.5 -46.5
t46.5 -115.5t-46.5 -115.5t-115.5 -46.5t-115 46.5t-46 115.5t46 115.5t115 46.5z" />
    <glyph glyph-name="dieresis" unicode="&#xa8;" horiz-adv-x="905" vert-adv-y="2263" 
d="M254 1516q61 0 101 -41t40 -101t-40 -100.5t-101 -40.5q-60 0 -100.5 40.5t-40.5 100.5t40.5 101t100.5 41zM651 1516q61 0 101.5 -41t40.5 -101t-40.5 -100.5t-101.5 -40.5q-60 0 -100.5 40.5t-40.5 100.5t40.5 101t100.5 41z" />
    <glyph glyph-name="uni3003" unicode="&#x3003;" vert-adv-y="2263" 
d="M840 1040q61 -12 87.5 -55.5t0.5 -93.5l-238 -479q-36 -70 -112 -52q-39 9 -54 35.5t-4 61.5l170 508q34 98 150 75zM1233 1040q61 -12 87.5 -55.5t0.5 -93.5l-238 -479q-36 -70 -112 -52q-39 9 -54 35.5t-4 61.5l170 508q34 98 150 75z" />
    <glyph glyph-name="endash" unicode="&#x2013;" horiz-adv-x="897" vert-adv-y="2263" 
d="M74 823h749q35 0 54.5 -26t19.5 -66q0 -37 -19.5 -62.5t-54.5 -25.5h-749q-35 0 -54.5 25.5t-19.5 62.5q0 40 19.5 66t54.5 26z" />
    <glyph glyph-name="emdash" unicode="&#x2014;" horiz-adv-x="1794" vert-adv-y="2263" 
d="M74 823h1646q35 0 54.5 -26t19.5 -66q0 -37 -19.5 -62.5t-54.5 -25.5h-1646q-35 0 -54.5 25.5t-19.5 62.5q0 40 19.5 66t54.5 26z" />
    <glyph glyph-name="uni2016" unicode="&#x2016;" vert-adv-y="2263" 
d="M1053 1665h116v-1966h-116v1966zM694 1665h115v-1966h-115v1966z" />
    <glyph glyph-name="uniFF3C" unicode="&#xff3c;" vert-adv-y="2263" 
d="M147 1616l1631 -1804l-64 -64l-1628 1800z" />
    <glyph glyph-name="uniFF5E" unicode="&#xff5e;" vert-adv-y="2263" 
d="M653 868q84 0 147.5 -17t131.5 -54q75 -41 139 -62.5t139 -21.5q139 0 226 129l84 -56q-48 -78 -136 -135t-174 -57q-83 0 -145 17t-133 55q-159 84 -279 84q-138 0 -225 -129l-84 55q48 78 135.5 135t173.5 57z" />
    <glyph glyph-name="quoteleft" unicode="&#x2018;" horiz-adv-x="409" vert-adv-y="2263" 
d="M295 1595q39 -6 60 -34t14 -68l-52 -295q-10 -57 -55 -80.5t-102 -13.5q-56 11 -82 50.5t-6 94.5l96 279q31 85 127 67z" />
    <glyph glyph-name="quoteright" unicode="&#x2019;" horiz-adv-x="409" vert-adv-y="2263" 
d="M250 1565q56 -11 82 -51t6 -95l-96 -278q-31 -86 -127 -68q-39 6 -60 34.5t-14 68.5l51 294q10 57 55.5 81t102.5 14z" />
    <glyph glyph-name="quotedblleft" unicode="&#x201c;" horiz-adv-x="716" vert-adv-y="2263" 
d="M608 1597q35 -6 52.5 -33.5t11.5 -64.5l-56 -307q-8 -52 -49 -74t-92 -14q-51 9 -74.5 45t-5.5 88l103 297q27 77 110 63zM301 1597q35 -6 52.5 -33.5t11.5 -64.5l-56 -307q-8 -52 -49 -74t-92 -14q-51 9 -74.5 45t-5.5 88l102 297q27 77 111 63z" />
    <glyph glyph-name="quotedblright" unicode="&#x201d;" horiz-adv-x="716" vert-adv-y="2263" 
d="M242 1565q51 -9 74.5 -45t5.5 -88l-103 -297q-27 -78 -110 -64q-35 6 -52.5 33.5t-11.5 64.5l55 308q8 52 49 74t93 14zM549 1565q51 -9 74.5 -45t5.5 -88l-103 -297q-27 -78 -110 -64q-35 6 -52.5 33.5t-11.5 64.5l56 308q8 52 49 74t92 14z" />
    <glyph glyph-name="uni3014" unicode="&#x3014;" horiz-adv-x="704" vert-adv-y="2263" 
d="M571 1599l74 -124l-424 -238v-1110l424 -238l-74 -125l-501 281v1274z" />
    <glyph glyph-name="uni3015" unicode="&#x3015;" horiz-adv-x="733" vert-adv-y="2263" 
d="M143 1599l502 -280v-1274l-502 -281l-73 125l424 238v1110l-424 238z" />
    <glyph glyph-name="uni3008" unicode="&#x3008;" horiz-adv-x="956" vert-adv-y="2263" 
d="M774 1573l107 -78l-639 -813l639 -809l-105 -82l-698 891z" />
    <glyph glyph-name="uni3009" unicode="&#x3009;" horiz-adv-x="976" vert-adv-y="2263" 
d="M190 1573l699 -891l-696 -891l-111 82l639 809l-639 813z" />
    <glyph glyph-name="uni300A" unicode="&#x300a;" horiz-adv-x="1032" vert-adv-y="2263" 
d="M868 1612l109 -66l-498 -864l498 -864l-109 -62l-538 926zM594 1612l113 -66l-500 -864l500 -864l-113 -62l-535 926z" />
    <glyph glyph-name="uni300B" unicode="&#x300b;" horiz-adv-x="1036" vert-adv-y="2263" 
d="M434 1612l539 -930l-539 -926l-108 62l499 864l-499 864zM164 1612l534 -930l-534 -926l-113 62l502 864l-502 864z" />
    <glyph glyph-name="uni300C" unicode="&#x300c;" horiz-adv-x="718" vert-adv-y="2263" 
d="M47 1616h625v-154h-451v-743h-174v897z" />
    <glyph glyph-name="uni300D" unicode="&#x300d;" horiz-adv-x="718" vert-adv-y="2263" 
d="M498 596h174v-897h-625v154h451v743z" />
    <glyph glyph-name="uni300E" unicode="&#x300e;" horiz-adv-x="790" vert-adv-y="2263" 
d="M174 1497v-663h78v583h344v80h-422zM53 1616h664v-313h-340v-584h-324v897z" />
    <glyph glyph-name="uni300F" unicode="&#x300f;" horiz-adv-x="770" vert-adv-y="2263" 
d="M514 485v-583h-340v-84h422v667h-82zM393 600h324v-897h-664v313h340v584z" />
    <glyph glyph-name="uni3010" unicode="&#x3010;" horiz-adv-x="960" vert-adv-y="2263" 
d="M178 1561h729q-234 -153 -372 -387.5t-138 -493.5q0 -260 138.5 -492.5t373.5 -384.5h-731v1758z" />
    <glyph glyph-name="uni3011" unicode="&#x3011;" horiz-adv-x="962" vert-adv-y="2263" 
d="M53 1561h731v-1760h-733q236 151 375 384.5t139 492.5q0 260 -138.5 495t-373.5 388z" />
    <glyph glyph-name="plusminus" unicode="&#xb1;" horiz-adv-x="1331" vert-adv-y="2263" 
d="M666 1462q47 0 80.5 -25t33.5 -71v-299h334q42 0 65 -29.5t23 -74.5q0 -46 -23 -76.5t-65 -30.5h-334v-305q0 -47 -33.5 -71.5t-80.5 -24.5t-81 25t-34 71v305h-334q-42 0 -65 30.5t-23 76.5q0 45 23 74.5t65 29.5h334v299q0 46 34 71t81 25zM211 332h909q42 0 65 -31
t23 -78t-23 -77.5t-65 -30.5h-909q-42 0 -65 30.5t-23 77.5t23 78t65 31z" />
    <glyph glyph-name="multiply" unicode="&#xd7;" horiz-adv-x="1245" vert-adv-y="2263" 
d="M915 1198q31 31 68.5 27.5t69.5 -35.5q32 -31 38 -67t-22 -70l-303 -326l303 -324q28 -34 22 -70t-38 -67q-32 -32 -69 -35.5t-69 27.5l-292 313l-293 -313q-32 -31 -68.5 -27.5t-68.5 35.5q-32 31 -38.5 67t21.5 70l301 324l-301 326q-28 34 -21.5 70t38.5 67
q32 32 69 35.5t68 -27.5l293 -315z" />
    <glyph glyph-name="divide" unicode="&#xf7;" horiz-adv-x="1236" vert-adv-y="2263" 
d="M166 840h905q42 0 65 -31t23 -78t-23 -77.5t-65 -30.5h-905q-42 0 -65 30.5t-23 77.5t23 78t65 31zM616 473q63 0 106.5 -43t43.5 -106t-43.5 -106.5t-106.5 -43.5t-106 43.5t-43 106.5t43 106t106 43zM616 1288q63 0 106.5 -43t43.5 -106t-43.5 -106.5t-106.5 -43.5
t-106 43.5t-43 106.5t43 106t106 43z" />
    <glyph glyph-name="notequal" unicode="&#x2260;" horiz-adv-x="1269" vert-adv-y="2263" 
d="M987 1294q31 -20 42 -50t-7 -62l-82 -127h102q42 0 65 -30.5t23 -76.5q0 -45 -23 -75.5t-65 -30.5h-245l-142 -221h387q42 0 65 -30.5t23 -76.5q0 -45 -23 -75.5t-65 -30.5h-528l-131 -205q-24 -35 -61 -41t-68 14q-31 19 -40 51.5t11 63.5l76 117h-74q-42 0 -65 30.5
t-23 75.5q0 46 23 76.5t65 30.5h215l142 221h-357q-42 0 -65 30.5t-23 75.5q0 46 23 76.5t65 30.5h500l139 215q22 34 57.5 39t63.5 -15z" />
    <glyph glyph-name="lessequal" unicode="&#x2264;" horiz-adv-x="1265" vert-adv-y="2263" 
d="M975 1438q53 21 89.5 6t55.5 -60q19 -40 4.5 -87t-59.5 -66l-655 -270v-7l655 -270q45 -19 59.5 -66.5t-4.5 -87.5q-41 -96 -145 -53l-729 307q-123 53 -123 172q0 121 123 174zM223 332h821q42 0 65.5 -31t23.5 -78t-23.5 -77.5t-65.5 -30.5h-821q-42 0 -65 30.5
t-23 77.5t23 78t65 31z" />
    <glyph glyph-name="greaterequal" unicode="&#x2265;" horiz-adv-x="1265" vert-adv-y="2263" 
d="M291 1438l729 -308q123 -53 123 -174q0 -119 -123 -172l-729 -307q-53 -21 -90 -6.5t-56 59.5q-19 40 -4 87.5t60 66.5l655 270v7l-655 270q-45 19 -60 66t4 87q19 45 56 60t90 -6zM221 332h821q42 0 65 -31t23 -78t-23 -77.5t-65 -30.5h-821q-42 0 -65 30.5t-23 77.5
t23 78t65 31z" />
    <glyph glyph-name="infinity" unicode="&#x221e;" horiz-adv-x="1269" vert-adv-y="2263" 
d="M319 1032q48 0 90 -11.5t71 -26t60.5 -43t48.5 -48t46 -55.5q70 92 146.5 138t185.5 46q130 0 205 -82t75 -217t-77.5 -218t-219.5 -83q-59 0 -107 14t-87 44.5t-62 54.5t-59 69q-70 -91 -146.5 -136.5t-185.5 -45.5q-130 0 -205 82t-75 217t77 218t219 83zM954 872
q-62 0 -111.5 -37.5t-103.5 -103.5q48 -63 98.5 -102t114.5 -39q60 0 92.5 38.5t32.5 104.5q0 139 -123 139zM317 874q-60 0 -92 -38.5t-32 -104.5q0 -139 122 -139q63 0 113.5 36t101.5 99q-50 66 -100 106.5t-113 40.5z" />
    <glyph glyph-name="therefore" unicode="&#x2234;" horiz-adv-x="1269" vert-adv-y="2263" 
d="M270 530q65 0 111.5 -47t46.5 -108q0 -65 -46 -111.5t-112 -46.5q-62 0 -109.5 47t-47.5 111q0 60 48 107.5t109 47.5zM999 530q60 0 109 -47.5t49 -107.5q0 -63 -48.5 -110.5t-109.5 -47.5q-67 0 -112 46.5t-45 111.5q0 62 45.5 108.5t111.5 46.5zM614 1245
q62 0 109 -45.5t47 -109.5q0 -62 -47.5 -111t-108.5 -49t-110 49t-49 111q0 63 48 109t111 46z" />
    <glyph glyph-name="degree" unicode="&#xb0;" horiz-adv-x="659" vert-adv-y="2263" 
d="M330 1559q120 0 195 -79t75 -192t-75 -191.5t-195 -78.5t-195.5 78.5t-75.5 191.5t75.5 192t195.5 79zM330 1415q-56 0 -89.5 -36.5t-33.5 -90.5t33.5 -90.5t89.5 -36.5t89.5 36.5t33.5 90.5t-33.5 90.5t-89.5 36.5z" />
    <glyph glyph-name="minute" unicode="&#x2032;" horiz-adv-x="817" vert-adv-y="2263" 
d="M471 1567q50 -11 76.5 -53.5t1.5 -90.5l-203 -397q-24 -49 -84 -35q-26 6 -38 25.5t-5 46.5l111 432q25 99 141 72z" />
    <glyph glyph-name="second" unicode="&#x2033;" horiz-adv-x="1226" vert-adv-y="2263" 
d="M471 1567q50 -11 76.5 -53.5t1.5 -90.5l-203 -397q-24 -49 -84 -35q-26 6 -38 25.5t-5 46.5l111 432q25 99 141 72zM881 1567q49 -11 75.5 -53.5t1.5 -90.5l-202 -397q-24 -49 -84 -35q-26 6 -38 25.5t-5 46.5l110 432q26 100 142 72z" />
    <glyph glyph-name="uni2103" unicode="&#x2103;" horiz-adv-x="1732" vert-adv-y="2263" 
d="M1120 1487q264 0 422 -111q45 -31 51 -79.5t-24 -88.5q-27 -40 -69.5 -51t-86.5 14q-66 39 -135 56.5t-164 17.5q-175 0 -264.5 -115.5t-89.5 -371.5v-43q0 -254 87 -370t269 -116q186 0 328 95q41 28 86.5 20.5t75.5 -49.5q32 -42 24.5 -94t-55.5 -86
q-180 -129 -465 -129q-614 0 -614 708v84q0 709 624 709zM303 1524q89 0 148 -58t59 -139t-59 -139t-148 -58t-148 58t-59 139t59 139t148 58zM303 1405q-34 0 -57 -23t-23 -55t23 -55t57 -23t57 23t23 55t-23 55t-57 23z" />
    <glyph glyph-name="uni212B" unicode="&#x212b;" horiz-adv-x="1413" vert-adv-y="2263" 
d="M700 1657q94 0 156 -60.5t62 -146.5q0 -66 -41 -123l448 -1159q22 -59 0.5 -103t-74.5 -59q-134 -39 -174 74l-119 328h-516l-120 -336q-20 -56 -68 -71.5t-96 5.5q-52 18 -72.5 57.5t0.5 94.5l446 1159q-49 52 -49 133q0 86 61.5 146.5t155.5 60.5zM700 1149
q-35 -123 -71 -227l-109 -297h361l-107 297q-46 126 -74 227zM700 1534q-36 0 -61 -25.5t-25 -58.5t25 -58.5t61 -25.5t61 25.5t25 58.5t-25 58.5t-61 25.5z" />
    <glyph glyph-name="uniFFE0" unicode="&#xffe0;" horiz-adv-x="1079" vert-adv-y="2263" 
d="M629 1315q32 0 54 -17t22 -49v-135q140 -15 251 -86q39 -26 46 -72.5t-21 -85.5q-26 -37 -62.5 -47t-78.5 13q-62 36 -135 51v-660q83 12 153 52q41 24 83 14t65 -51q25 -40 17.5 -86.5t-48.5 -73.5q-112 -70 -270 -84v-135q0 -32 -22 -49t-54 -17t-54 17t-22 49v131
q-220 14 -339.5 149.5t-119.5 386.5v52q0 252 119 387t340 149v131q0 32 22 49t54 17zM553 891q-199 -30 -199 -309v-52q0 -133 51.5 -211.5t147.5 -95.5v668z" />
    <glyph glyph-name="uniFFE1" unicode="&#xffe1;" horiz-adv-x="1146" vert-adv-y="2263" 
d="M715 1487q158 0 258 -49q44 -23 55.5 -65t-10.5 -89q-39 -91 -139 -59q-71 22 -148 22q-124 0 -176.5 -51.5t-52.5 -167.5v-166h303q42 0 65 -30.5t23 -75.5q0 -46 -23 -76.5t-65 -30.5h-303v-157q0 -131 -12.5 -183.5t-45.5 -79.5v-2h570q45 0 68.5 -30.5t23.5 -77.5
t-23.5 -79t-68.5 -32h-813q-46 0 -69 31t-23 76q0 51 67 118q39 39 52.5 90t13.5 175v151h-80q-42 0 -65 30.5t-23 76.5q0 45 23 75.5t65 30.5h80v176q0 449 473 449z" />
    <glyph glyph-name="uniFFE5" unicode="&#xffe5;" horiz-adv-x="1142" vert-adv-y="2263" 
d="M1044 1462q51 -23 66.5 -63.5t-14.5 -100.5l-320 -571h187q29 0 44 -20.5t15 -53.5q0 -31 -15 -51t-44 -20h-267v-129h267q29 0 44 -20.5t15 -53.5q0 -31 -15 -51.5t-44 -20.5h-267v-201q0 -55 -36.5 -82.5t-92.5 -27.5t-92.5 27.5t-36.5 82.5v201h-258q-29 0 -44 20.5
t-15 51.5q0 33 15 53.5t44 20.5h258v129h-258q-29 0 -44 20t-15 51q0 33 15 53.5t44 20.5h176l-315 569q-27 51 -13 94t66 70q43 26 93.5 13.5t78.5 -64.5l307 -592l301 590q27 52 74.5 65.5t95.5 -10.5z" />
    <glyph glyph-name="male" unicode="&#x2642;" vert-adv-y="2263" 
d="M1196 1419h291q86 0 118.5 -33.5t32.5 -121.5v-279q0 -35 -26 -54.5t-64 -19.5q-36 0 -62 19.5t-26 54.5v135l-198 -207q102 -145 102 -340q0 -118 -40.5 -222.5t-113.5 -181t-180.5 -121t-234.5 -44.5q-169 0 -300 76t-200.5 205t-69.5 288t69.5 288t200.5 205.5
t300 76.5q187 0 333 -99l203 197h-135q-36 0 -56 26t-20 62q0 39 19.5 64.5t56.5 25.5zM795 924q-155 0 -247.5 -101.5t-92.5 -249.5t92.5 -249t247.5 -101t247.5 101t92.5 249t-92.5 249.5t-247.5 101.5z" />
    <glyph glyph-name="female" unicode="&#x2640;" vert-adv-y="2263" 
d="M932 1569q127 0 234.5 -44.5t180.5 -121.5t113.5 -181.5t40.5 -222.5q0 -216 -127 -372t-338 -189v-207h199q39 0 59.5 -28t20.5 -70q0 -41 -20.5 -68.5t-59.5 -27.5h-199v-187q0 -43 -29.5 -65.5t-74.5 -22.5t-75 22.5t-30 65.5v187h-200q-39 0 -59.5 27.5t-20.5 68.5
q0 42 20.5 70t59.5 28h200v207q-141 22 -247 101.5t-162 198.5t-56 261q0 159 69.5 288t200.5 205.5t300 76.5zM932 1350q-155 0 -247.5 -101.5t-92.5 -249.5t92.5 -249t247.5 -101t247.5 101t92.5 249t-92.5 249.5t-247.5 101.5z" />
    <glyph glyph-name="angle" unicode="&#x2220;" vert-adv-y="2263" 
d="M1266 1239l125 -106l-840 -967h1005v-158h-1253v109z" />
    <glyph glyph-name="perpendicular" unicode="&#x22a5;" vert-adv-y="2263" 
d="M848 1188h164v-1022h573v-158h-1306v158h569v1022z" />
    <glyph glyph-name="uni2312" unicode="&#x2312;" vert-adv-y="2263" 
d="M930 1548q367 0 547 -334h-160q-53 100 -150 160t-233 60q-138 0 -236.5 -60t-154.5 -160h-158q81 156 217 245t328 89z" />
    <glyph glyph-name="partialdiff" unicode="&#x2202;" horiz-adv-x="1122" vert-adv-y="2263" 
d="M545 745q-109 0 -184.5 -91.5t-75.5 -227.5q0 -116 60 -184t153 -68q116 0 198 115t103 278q-25 72 -94 125t-160 53zM481 1487q117 0 220 -48t181.5 -137t124.5 -227t46 -307q0 -188 -47 -339t-127.5 -246.5t-183.5 -146t-220 -50.5q-105 0 -189 38t-135 101.5
t-77.5 140t-26.5 158.5q0 139 57.5 255t162 183.5t233.5 67.5q113 0 193 -48.5t126 -121.5h2q2 23 2 74q-1 90 -24.5 171.5t-67 146t-113.5 102.5t-157 38q-137 0 -281 -80l-71 162q41 24 67 37t76.5 34t108 31.5t120.5 10.5z" />
    <glyph glyph-name="gradient" unicode="&#x2207;" vert-adv-y="2263" 
d="M117 1274h1630l-815 -1290zM369 1137l563 -899l559 899h-1122z" />
    <glyph glyph-name="equivalence" unicode="&#x2261;" horiz-adv-x="1269" vert-adv-y="2263" 
d="M121 483h1026q28 0 42.5 -20.5t14.5 -52.5q0 -30 -14.5 -51t-42.5 -21h-1026q-28 0 -43 21t-15 51q0 32 15 52.5t43 20.5zM121 805h1026q28 0 42.5 -20.5t14.5 -53.5q0 -30 -14.5 -51t-42.5 -21h-1026q-28 0 -43 21t-15 51q0 32 15 53t43 21zM121 1122h1026
q28 0 42.5 -20.5t14.5 -52.5q0 -30 -14.5 -51t-42.5 -21h-1026q-28 0 -43 21t-15 51q0 32 15 52.5t43 20.5z" />
    <glyph glyph-name="uni2252" unicode="&#x2252;" horiz-adv-x="1269" vert-adv-y="2263" 
d="M221 999h828q40 0 60.5 -27.5t20.5 -70.5t-21 -71.5t-60 -28.5h-828q-39 0 -60.5 29t-21.5 71q0 43 21 70.5t61 27.5zM391 1391q60 0 100.5 -41t40.5 -101t-40.5 -100.5t-100.5 -40.5t-100.5 40.5t-40.5 100.5t40.5 101t100.5 41zM221 662h828q39 0 60 -29t21 -72
t-20.5 -70.5t-60.5 -27.5h-828q-40 0 -61 27.5t-21 70.5t21.5 72t60.5 29zM879 354q60 0 100.5 -40.5t40.5 -100.5t-40.5 -100.5t-100.5 -40.5t-101 40.5t-41 100.5t41 100.5t101 40.5z" />
    <glyph glyph-name="section" unicode="&#xa7;" horiz-adv-x="1187" vert-adv-y="2263" 
d="M627 1487q184 0 303 -64q101 -56 55 -157q-21 -41 -56 -54t-81 7q-96 47 -211 47q-111 0 -169 -38.5t-58 -101.5v-6q0 -49 24 -81.5t95 -63t204 -60.5q198 -45 287.5 -132t89.5 -226v-18q0 -217 -205 -289q129 -89 129 -270v-21q0 -172 -120.5 -269.5t-352.5 -97.5
q-89 0 -178 20t-147 56q-99 63 -54 160q23 40 60 53t82 -8q111 -57 229 -57q109 0 167 37.5t58 99.5v6q0 49 -24 81.5t-95 63t-204 60.5q-198 45 -287.5 132t-89.5 226v19q0 216 205 288q-129 92 -129 271v20q0 172 120.5 269.5t352.5 97.5zM502 727q-166 -43 -166 -152v-8
q0 -69 43.5 -108.5t167.5 -69.5q74 -17 137 -37q168 43 168 152v8q0 69 -43.5 108.5t-167.5 69.5q-41 10 -139 37z" />
    <glyph glyph-name="uni203B" unicode="&#x203b;" vert-adv-y="2263" 
d="M938 852l508 516q27 27 61.5 24.5t61.5 -30.5q30 -30 33.5 -62t-23.5 -59l-516 -512l518 -508q27 -27 23.5 -60t-33.5 -63q-28 -28 -64 -29.5t-63 25.5l-502 514l-502 -514q-27 -27 -63 -25.5t-64 29.5q-29 30 -32 63t24 60l516 508l-516 512q-27 27 -24 59t32 62
q28 28 63 30.5t62 -24.5zM932 1511q69 0 115.5 -46t46.5 -115t-46.5 -115.5t-115.5 -46.5t-115.5 46.5t-46.5 115.5t46.5 115t115.5 46zM932 274q69 0 115.5 -46t46.5 -115t-46.5 -115.5t-115.5 -46.5t-115.5 46.5t-46.5 115.5t46.5 115t115.5 46zM1712 731
q0 -69 -46.5 -115.5t-115.5 -46.5t-115 46.5t-46 115.5t46 115.5t115 46.5t115.5 -46.5t46.5 -115.5zM475 731q0 -69 -46.5 -115.5t-115.5 -46.5t-115 46.5t-46 115.5t46 115.5t115 46.5t115.5 -46.5t46.5 -115.5z" />
    <glyph glyph-name="uni2606" unicode="&#x2606;" vert-adv-y="2263" 
d="M934 1264l-131 -396h-426l342 -254l-133 -395l348 242l338 -242l-123 395l336 254h-420zM936 1659l225 -666h703l-572 -424l217 -671l-573 403l-584 -403l219 671l-575 424h717z" />
    <glyph glyph-name="uni2605" unicode="&#x2605;" vert-adv-y="2263" 
d="M936 1659l225 -666h703l-572 -424l217 -671l-573 403l-584 -403l219 671l-575 424h717z" />
    <glyph glyph-name="circle" unicode="&#x25cb;" vert-adv-y="2263" 
d="M934 1323q-161 0 -298 -79t-216.5 -215.5t-79.5 -297.5t79.5 -298t216.5 -216.5t298 -79.5q122 0 232 47t189 126.5t125 189.5t46 231t-46 230.5t-125 189t-189 126t-232 46.5zM934 1479q153 0 291.5 -59.5t238.5 -159.5t158.5 -238.5t58.5 -290.5q0 -153 -58.5 -292
t-158.5 -239.5t-238.5 -160t-291.5 -59.5t-291.5 59.5t-239 159.5t-160 239.5t-59.5 292.5q0 203 100.5 375t273 272.5t376.5 100.5z" />
    <glyph glyph-name="H18533" unicode="&#x25cf;" vert-adv-y="2263" 
d="M934 1479q153 0 291.5 -59.5t238.5 -159.5t158.5 -238.5t58.5 -290.5q0 -153 -58.5 -292t-158.5 -239.5t-238.5 -160t-291.5 -59.5t-291.5 59.5t-239 159.5t-160 239.5t-59.5 292.5q0 203 100.5 375t273 272.5t376.5 100.5z" />
    <glyph glyph-name="uni25CE" unicode="&#x25ce;" vert-adv-y="2263" 
d="M934 1036q-127 0 -217 -90.5t-90 -214.5q0 -127 89.5 -217t217.5 -90q126 0 215.5 90t89.5 217q0 124 -90 214.5t-215 90.5zM934 1171q120 0 221.5 -59t160 -160.5t58.5 -220.5q0 -183 -128.5 -311.5t-311.5 -128.5t-311.5 128.5t-128.5 311.5q0 119 58.5 220.5
t160 160.5t221.5 59zM934 1323q-160 0 -296 -80t-215 -216t-79 -296t79 -296t215 -215t296 -79q162 0 298.5 79t215 214.5t78.5 296.5q0 160 -78.5 296t-215 216t-298.5 80zM934 1479q153 0 291.5 -59.5t238.5 -159.5t158.5 -238.5t58.5 -290.5q0 -153 -58.5 -292
t-158.5 -239.5t-238.5 -160t-291.5 -59.5t-291.5 59.5t-239 159.5t-160 239.5t-59.5 292.5q0 203 100.5 375t273 272.5t376.5 100.5z" />
    <glyph glyph-name="uni25C7" unicode="&#x25c7;" vert-adv-y="2263" 
d="M932 1329l-602 -596l602 -604l596 602zM932 1544l811 -813l-811 -813l-813 813z" />
    <glyph glyph-name="uni25C6" unicode="&#x25c6;" vert-adv-y="2263" 
d="M932 1544l813 -813l-811 -813l-815 815z" />
    <glyph glyph-name="H22073" unicode="&#x25a1;" vert-adv-y="2263" 
d="M373 1296v-1122h1122v1122h-1122zM215 1450h1434v-1436h-1434v1436z" />
    <glyph glyph-name="filledbox" unicode="&#x25a0;" vert-adv-y="2263" 
d="M215 1450h1434v-1436h-1434v1436z" />
    <glyph glyph-name="uni25B3" unicode="&#x25b3;" vert-adv-y="2263" 
d="M928 1233l-547 -1088h1089zM932 1540l766 -1526h-1536z" />
    <glyph glyph-name="triagup" unicode="&#x25b2;" vert-adv-y="2263" 
d="M932 1540l766 -1526h-1536z" />
    <glyph glyph-name="uni25BD" unicode="&#x25bd;" vert-adv-y="2263" 
d="M385 1317l547 -1088l543 1088h-1090zM162 1450h1536l-766 -1526z" />
    <glyph glyph-name="triagdn" unicode="&#x25bc;" vert-adv-y="2263" 
d="M162 1450h1536l-766 -1526z" />
    <glyph glyph-name="arrowright" unicode="&#x2192;" horiz-adv-x="1740" vert-adv-y="2263" 
d="M174 731q0 34 18 57t50 23h1085q-32 20 -74 57l-217 209q-21 23 -18 49t26 50q22 23 49 27.5t52 -17.5l385 -385q43 -43 43 -70q0 -26 -43 -69l-385 -386q-25 -22 -52 -17t-49 28q-23 24 -26 49.5t18 48.5l217 209q42 37 74 57h-1085q-32 0 -50 23t-18 57z" />
    <glyph glyph-name="arrowleft" unicode="&#x2190;" horiz-adv-x="1740" vert-adv-y="2263" 
d="M1567 731q0 -34 -18 -57t-50 -23h-1085q28 -18 73 -57l218 -209q21 -23 17.5 -48.5t-26.5 -49.5q-22 -24 -48.5 -28t-51.5 17l-385 386q-43 43 -43 69q0 27 43 70l385 385q25 22 51.5 17.5t48.5 -27.5q23 -24 26.5 -50t-17.5 -49l-218 -209q-45 -39 -73 -57h1085
q32 0 50 -23t18 -57z" />
    <glyph glyph-name="arrowup" unicode="&#x2191;" horiz-adv-x="1372" vert-adv-y="2263" 
d="M686 23q-34 0 -57 17.5t-23 49.5v1086q-20 -32 -57 -74l-209 -217q-23 -21 -48.5 -18t-49.5 26q-24 22 -28 48.5t17 51.5l385 385q43 43 70 43t70 -43l385 -385q21 -25 17 -51.5t-28 -48.5q-24 -23 -49.5 -26t-48.5 18l-209 217q-37 42 -57 74v-1086q0 -32 -23 -49.5
t-57 -17.5z" />
    <glyph glyph-name="arrowdown" unicode="&#x2193;" horiz-adv-x="1372" vert-adv-y="2263" 
d="M686 1460q34 0 57 -17.5t23 -49.5v-1086q20 32 57 74l209 217q23 21 48.5 18t49.5 -26q23 -22 28 -49t-17 -52l-385 -385q-43 -43 -70 -43t-70 43l-385 385q-22 25 -17 52t28 49q24 23 49.5 26t48.5 -18l209 -217q37 -42 57 -74v1086q0 32 23 49.5t57 17.5z" />
    <glyph glyph-name="arrowboth" unicode="&#x2194;" vert-adv-y="2263" 
d="M1438 811q-32 20 -74 57l-217 209q-21 23 -18 49t26 50q22 23 48.5 27.5t51.5 -17.5l385 -385q43 -43 43 -70q0 -26 -43 -69l-385 -386q-25 -21 -51.5 -17t-48.5 28q-23 24 -26 49.5t18 48.5l217 209q42 37 74 57h-1012q32 -20 74 -57l217 -209q21 -23 18 -48.5
t-26 -49.5q-22 -23 -49 -28t-52 17l-385 386q-43 43 -43 69q0 27 43 70l385 385q25 22 52 17.5t49 -27.5q23 -24 26 -50t-18 -49l-217 -209q-42 -37 -74 -57h1012z" />
    <glyph glyph-name="uni3013" unicode="&#x3013;" vert-adv-y="2263" 
d="M268 971h1327v-78h-1327v78zM268 569h1327v-77h-1327v77z" />
    <glyph glyph-name="guillemotleft" unicode="&#xab;" vert-adv-y="2263" 
d="M1589 1434l80 -105l-889 -606l891 -582l-65 -108l-988 643v92zM1161 1440l76 -109l-883 -610l895 -586l-73 -110l-983 651v92z" />
    <glyph glyph-name="guillemotright" unicode="&#xbb;" vert-adv-y="2263" 
d="M279 1434l970 -666v-92l-987 -643l-65 108l890 582l-888 606zM702 1440l969 -672v-92l-983 -651l-74 110l895 586l-882 610z" />
    <glyph glyph-name="radical" unicode="&#x221a;" horiz-adv-x="1175" vert-adv-y="2263" 
d="M1047 1679h165l-469 -1886h-165l-322 862l-154 -63l-47 115l316 131l278 -811h6z" />
    <glyph glyph-name="uni223D" unicode="&#x223d;" vert-adv-y="2263" 
d="M535 1118q123 0 256 -86l-68 -108q-96 59 -174 59q-109 0 -176.5 -69t-67.5 -179q0 -114 64 -182t178 -68q41 0 79.5 12.5t66.5 29t58.5 48.5t48 53.5t42 62.5t33 57.5t28.5 54.5q157 315 418 315q106 0 193.5 -54t135.5 -141.5t48 -187.5q0 -160 -107.5 -274.5
t-267.5 -114.5q-125 0 -250 92l66 107q89 -66 184 -66q104 0 171 73t67 183q0 99 -67 175.5t-169 76.5q-105 0 -179.5 -66.5t-148.5 -205.5q-68 -128 -114 -187q-141 -180 -346 -180q-70 0 -135.5 25t-118.5 72t-85 122t-32 168q0 118 53.5 207t136.5 132.5t179 43.5z" />
    <glyph glyph-name="proportional" unicode="&#x221d;" vert-adv-y="2263" 
d="M616 985q-111 0 -178 -71t-67 -181q0 -117 64 -185.5t181 -68.5q197 0 324 252q-133 254 -324 254zM612 1116q74 0 137 -22.5t110.5 -63.5t80 -81.5t64.5 -94.5q152 262 389 262q113 0 235 -88l-69 -104q-97 65 -166 65q-105 0 -178 -63t-144 -195q70 -133 143.5 -195.5
t178.5 -62.5q79 0 161 45l43 -115q-102 -57 -204 -57q-122 0 -220.5 73.5t-168.5 186.5q-25 -42 -48 -74t-59 -68.5t-74.5 -60t-93 -39.5t-115.5 -16q-71 0 -137.5 25t-121.5 71t-88.5 121.5t-33.5 167.5q0 89 32.5 163t86.5 121t121.5 73t138.5 26z" />
    <glyph glyph-name="uni2235" unicode="&#x2235;" horiz-adv-x="1200" vert-adv-y="2263" 
d="M946 1206q67 0 108.5 -44t41.5 -105q0 -64 -41.5 -108t-108.5 -44q-59 0 -106 45.5t-47 106.5q0 58 47 103.5t106 45.5zM229 1206q67 0 110.5 -44.5t43.5 -104.5q0 -63 -43.5 -107.5t-110.5 -44.5q-59 0 -104 45.5t-45 106.5q0 59 45 104t104 45zM590 461q67 0 110 -42
t43 -110q0 -59 -44.5 -105t-108.5 -46q-60 0 -105 46.5t-45 104.5q0 67 43.5 109.5t106.5 42.5z" />
    <glyph glyph-name="integral" unicode="&#x222b;" horiz-adv-x="714" vert-adv-y="2263" 
d="M580 1683q73 0 108 -14l-24 -158q-52 9 -72 9q-44 0 -73 -27t-44 -80.5t-20.5 -113.5t-5.5 -144q0 -149 14 -467t14 -487q0 -86 -7 -155.5t-28 -139.5t-55.5 -117t-92.5 -76.5t-136 -29.5q-96 0 -131 24l26 164q46 -12 78 -12q45 0 75 27t44.5 78t20 104.5t5.5 126.5
q0 170 -14 497t-14 484q0 82 7 148.5t28.5 135.5t57 116t96.5 77t143 30z" />
    <glyph glyph-name="uni222C" unicode="&#x222c;" horiz-adv-x="1218" vert-adv-y="2263" 
d="M580 1683q73 0 108 -14l-24 -158q-52 9 -72 9q-44 0 -73 -27t-44 -80.5t-20.5 -113.5t-5.5 -144q0 -149 14 -467t14 -487q0 -86 -7 -155.5t-28 -139.5t-55.5 -117t-92.5 -76.5t-136 -29.5q-96 0 -131 24l26 164q46 -12 78 -12q45 0 75 27t44.5 78t20 104.5t5.5 126.5
q0 170 -14 497t-14 484q0 82 7 148.5t28.5 135.5t57 116t96.5 77t143 30zM1083 1683q74 0 109 -14l-25 -158q-52 9 -71 9q-44 0 -73.5 -27.5t-44.5 -80.5t-20.5 -113.5t-5.5 -143.5q0 -149 14.5 -467t14.5 -487q0 -86 -7 -155.5t-28 -139.5t-55.5 -117t-92.5 -76.5
t-136 -29.5q-98 0 -132 24l27 164q46 -12 78 -12q45 0 75 27t44.5 78t20 104.5t5.5 126.5q0 170 -14 497t-14 484q0 82 7 148t28.5 135.5t56.5 116.5t96 77t143 30z" />
    <glyph glyph-name="element" unicode="&#x2208;" vert-adv-y="2263" 
d="M813 1245h819v-176h-819q-169 0 -262.5 -67.5t-114.5 -170.5h1192v-176h-1194q22 -119 114 -190.5t265 -71.5h819v-176h-813q-120 0 -218 27t-166.5 75t-115 114.5t-68.5 144t-22 165.5q0 105 34.5 194.5t103 159t183 109t263.5 39.5z" />
    <glyph glyph-name="suchthat" unicode="&#x220b;" vert-adv-y="2263" 
d="M229 1245h820q149 0 263 -39.5t183 -109.5t103 -159t34 -194q0 -88 -22 -165.5t-68.5 -144t-115 -114.5t-166.5 -75t-218 -27h-813v176h820q173 0 264.5 71t113.5 191h-1194v176h1192q-21 103 -114 170.5t-262 67.5h-820v176z" />
    <glyph glyph-name="reflexsubset" unicode="&#x2286;" vert-adv-y="2263" 
d="M301 213h1327v-180h-1327v180zM813 1311h819v-181h-819q-205 0 -299 -78t-94 -208q0 -140 94.5 -219.5t298.5 -79.5h819v-180h-813q-149 0 -263.5 37t-185 103t-106 153t-35.5 192q0 98 34.5 180t103 146t183 99.5t263.5 35.5z" />
    <glyph glyph-name="reflexsuperset" unicode="&#x2287;" vert-adv-y="2263" 
d="M229 1311h824q149 0 262.5 -35.5t181.5 -99.5t101.5 -145.5t33.5 -180.5q0 -105 -35.5 -192t-106 -153t-185 -103t-263.5 -37h-813v180h824q202 0 295.5 79.5t93.5 219.5q0 130 -92.5 208t-296.5 78h-824v181zM233 213h1328v-180h-1328v180z" />
    <glyph glyph-name="propersubset" unicode="&#x2282;" vert-adv-y="2263" 
d="M813 1233h819v-180h-819q-203 0 -298 -88t-95 -228q0 -150 95 -238.5t298 -88.5h819v-181h-813q-149 0 -263.5 40t-185 110.5t-106 162.5t-35.5 201q0 104 34.5 191t103 155t183 106t263.5 38z" />
    <glyph glyph-name="propersuperset" unicode="&#x2283;" vert-adv-y="2263" 
d="M229 1233h824q149 0 262.5 -38t181.5 -106t101.5 -155t33.5 -191q0 -109 -35.5 -201t-106 -162.5t-185 -110.5t-263.5 -40h-813v181h824q200 0 294.5 89t94.5 238q0 67 -20.5 122t-65 99.5t-121.5 69.5t-182 25h-824v180z" />
    <glyph glyph-name="union" unicode="&#x222a;" vert-adv-y="2263" 
d="M420 1386h188v-823q0 -103 25 -181.5t69.5 -124.5t100 -68.5t121.5 -22.5q148 0 237.5 98t89.5 299v823h189v-813q0 -149 -41 -263.5t-113.5 -184.5t-165.5 -105.5t-202 -35.5q-104 0 -192 33.5t-157.5 101.5t-109 181.5t-39.5 262.5v823z" />
    <glyph glyph-name="intersection" unicode="&#x2229;" vert-adv-y="2263" 
d="M932 1386q110 0 200.5 -35.5t159.5 -105.5t107.5 -184.5t38.5 -263.5v-813h-189v823q0 203 -85.5 303t-231.5 100q-149 0 -235.5 -100t-86.5 -303v-823h-188v813q0 149 38.5 263.5t108 184.5t161 105.5t202.5 35.5z" />
    <glyph glyph-name="logicaland" unicode="&#x2227;" vert-adv-y="2263" 
d="M872 1292h115l602 -1161l-123 -61l-534 1036l-539 -1036l-123 61z" />
    <glyph glyph-name="logicalor" unicode="&#x2228;" vert-adv-y="2263" 
d="M393 1311l539 -1039l534 1039l123 -60l-602 -1163h-115l-602 1163z" />
    <glyph glyph-name="uniFFE2" unicode="&#xffe2;" vert-adv-y="2263" 
d="M55 799h1749v-649h-133v516h-1616v133z" />
    <glyph glyph-name="arrowdblright" unicode="&#x21d2;" vert-adv-y="2263" 
d="M1266 1292l557 -559l-557 -561l-88 90l223 221h-1278v123h1399l129 127l-129 129h-1399v123h1276l-221 221z" />
    <glyph glyph-name="arrowdblboth" unicode="&#x21d4;" vert-adv-y="2263" 
d="M342 860l-129 -129l129 -127h1180l129 127l-129 129h-1180zM598 1290l88 -86l-221 -221h934l-221 221l88 86l557 -559l-557 -561l-88 90l223 221h-938l223 -221l-88 -90l-557 561z" />
    <glyph glyph-name="universal" unicode="&#x2200;" horiz-adv-x="1413" vert-adv-y="2263" 
d="M162 1466q134 40 174 -73l117 -328h518l121 336q20 56 67.5 71t95.5 -6q52 -18 72.5 -57t-0.5 -94l-461 -1198q-25 -67 -63.5 -94t-93.5 -27q-56 0 -95 27t-65 94l-461 1188q-22 59 -0.5 102.5t74.5 58.5zM532 848l107 -297q46 -126 74 -227q35 123 71 227l107 297h-359z
" />
    <glyph glyph-name="existential" unicode="&#x2203;" horiz-adv-x="1245" vert-adv-y="2263" 
d="M207 1464h698q98 0 136 -36.5t38 -133.5v-1116q0 -97 -38 -133.5t-136 -36.5h-712q-44 0 -67.5 31t-23.5 78q0 46 23.5 77t67.5 31h626v422h-571q-42 0 -65 30.5t-23 76.5q0 45 23 75.5t65 30.5h571v387h-612q-43 0 -66.5 31.5t-23.5 77.5q0 47 23 77.5t67 30.5z" />
    <glyph glyph-name="acute" unicode="&#xb4;" horiz-adv-x="675" vert-adv-y="2263" 
d="M459 1579q41 -31 49.5 -74.5t-25.5 -85.5l-157 -166q-32 -34 -69 -38t-69 22q-67 54 -22 127l125 192q31 47 81 51t87 -28z" />
    <glyph glyph-name="tilde" unicode="&#x2dc;" horiz-adv-x="1228" vert-adv-y="2263" 
d="M881 1548q75 -17 49 -102q-24 -74 -80 -120t-129 -46q-46 0 -119 34t-94 34q-43 0 -59 -37q-26 -61 -101 -43q-75 17 -49 102q24 74 80 120t129 46q46 0 119 -34t94 -34q43 0 59 37q26 61 101 43z" />
    <glyph glyph-name="caron" unicode="&#x2c7;" horiz-adv-x="1228" vert-adv-y="2263" 
d="M379 1563q29 19 56 15t50 -28l129 -133l129 133q23 24 50.5 28t56.5 -15q27 -20 32.5 -49t-10.5 -50l-118 -161q-54 -72 -140 -72q-85 0 -139 72l-119 161q-16 21 -10 50t33 49z" />
    <glyph glyph-name="breve" unicode="&#x2d8;" horiz-adv-x="1228" vert-adv-y="2263" 
d="M834 1548q74 -21 55 -94q-18 -70 -88.5 -127t-186.5 -57t-186 57t-88 127q-19 73 55 94q73 22 101 -41q39 -82 118 -82q80 0 119 82q28 63 101 41z" />
    <glyph glyph-name="hungarumlaut" unicode="&#x2dd;" horiz-adv-x="1228" vert-adv-y="2263" 
d="M485 1573q57 -8 81.5 -41.5t0.5 -85.5l-71 -152q-20 -40 -54.5 -55.5t-76.5 -7.5q-39 8 -57.5 35.5t-8.5 62.5l47 160q27 98 139 84zM840 1573q57 -8 81.5 -41.5t0.5 -85.5l-72 -152q-20 -40 -54.5 -55.5t-76.5 -7.5q-39 8 -57.5 35.5t-8.5 62.5l47 160q27 98 140 84z
" />
    <glyph glyph-name="ring" unicode="&#x2da;" horiz-adv-x="675" vert-adv-y="2263" 
d="M336 1499q-37 0 -63.5 -28t-26.5 -70q0 -41 26 -64.5t64 -23.5q43 0 69.5 23t26.5 65q0 43 -27.5 70.5t-68.5 27.5zM336 1608q92 0 153.5 -59.5t61.5 -147.5q0 -83 -62 -143t-153 -60q-87 0 -149 60.5t-62 142.5q0 87 61.5 147t149.5 60z" />
    <glyph glyph-name="dotaccent" unicode="&#x2d9;" horiz-adv-x="675" vert-adv-y="2263" 
d="M338 1563q69 0 115.5 -46.5t46.5 -115.5t-46.5 -115.5t-115.5 -46.5t-115.5 46.5t-46.5 115.5t46.5 115.5t115.5 46.5z" />
    <glyph glyph-name="cedilla" unicode="&#xb8;" horiz-adv-x="675" vert-adv-y="2263" 
d="M217 127h139v-113q205 -15 205 -159q0 -104 -91 -161t-251 -65q-32 -1 -49.5 16t-19.5 48q-3 60 53 65q174 16 174 84q0 62 -160 62v223z" />
    <glyph glyph-name="ogonek" unicode="&#x2db;" horiz-adv-x="675" vert-adv-y="2263" 
d="M322 90h172q-66 -54 -110 -115.5t-44 -109.5q0 -36 22 -56t56 -20q23 0 39 2q26 3 42 -13t21 -46q5 -31 -6 -56t-37 -34q-53 -16 -117 -13q-99 5 -163 63t-64 146q0 80 60 150.5t129 101.5z" />
    <glyph glyph-name="exclamdown" unicode="&#xa1;" horiz-adv-x="655" vert-adv-y="2263" 
d="M328 1239q66 0 110.5 -45t44.5 -111t-44.5 -110.5t-110.5 -44.5t-111 44.5t-45 110.5t45 111t111 45zM328 776q46 0 77.5 -26.5t32.5 -85.5l31 -881q1 -65 -36.5 -95t-104.5 -30t-105 30.5t-37 94.5l31 881q1 58 33 85t78 27z" />
    <glyph glyph-name="questiondown" unicode="&#xbf;" horiz-adv-x="1140" vert-adv-y="2263" 
d="M612 811q55 0 90 -26.5t35 -79.5q0 -119 -32.5 -199t-137.5 -170q-123 -105 -157.5 -150.5t-34.5 -105.5v-29q0 -71 53.5 -116.5t167.5 -45.5q132 0 260 88q40 27 80 19t70 -47q30 -36 27 -83t-42 -77q-168 -131 -403 -131q-220 0 -347.5 104.5t-127.5 274.5v41
q0 96 51.5 172.5t193.5 204.5q83 74 109.5 129t26.5 127q0 44 34.5 72t83.5 28zM614 1239q66 0 111 -45t45 -111t-45 -110.5t-111 -44.5t-110.5 44.5t-44.5 110.5t44.5 111t110.5 45z" />
    <glyph glyph-name="uni2236" unicode="&#x2236;" vert-adv-y="2263" 
d="M733 1225h397l-198 -195zM932 434l198 -194h-397z" />
    <glyph glyph-name="uni222E" unicode="&#x222e;" vert-adv-y="2263" 
d="M1167 1575q129 0 193 -129l-96 -43q-37 82 -103 82q-45 0 -86 -122t-65 -337q108 -13 179 -83t71 -185q0 -134 -84.5 -221t-204.5 -103q-14 -118 -37 -214t-56.5 -172.5t-81 -118.5t-104.5 -42q-125 0 -188 121l90 53q41 -84 104 -84q46 0 88.5 123t63.5 336
q-101 16 -166.5 84.5t-65.5 177.5q0 129 77.5 213t191.5 109q20 162 53.5 281.5t92 196.5t134.5 77zM1004 965q-5 -59 -11.5 -225.5t-15.5 -243.5q76 19 125.5 81t56.5 152v25q0 80 -41.5 138t-113.5 73zM881 956q-73 -27 -117.5 -95t-44.5 -161q0 -77 36.5 -130t100.5 -72
q6 68 12.5 227.5t12.5 230.5z" />
    <glyph glyph-name="summation" unicode="&#x2211;" horiz-adv-x="1146" vert-adv-y="2263" 
d="M256 1464h731q45 0 68.5 -31.5t23.5 -78.5q0 -48 -23.5 -78.5t-68.5 -30.5h-577l292 -325q62 -71 87.5 -109.5t25.5 -73.5t-25.5 -74.5t-87.5 -109.5l-292 -326h591q45 0 69 -31.5t24 -78.5q0 -48 -24 -78.5t-69 -30.5h-745q-93 0 -133.5 34t-40.5 108q0 38 18 73.5
t66 91.5l373 422l-373 420q-48 56 -66 92t-18 74q0 74 40.5 107.5t133.5 33.5z" />
    <glyph glyph-name="product" unicode="&#x220f;" horiz-adv-x="1370" vert-adv-y="2263" 
d="M117 1464h1136q45 0 69 -31.5t24 -78.5t-24 -79t-69 -32h-174v-1200q0 -55 -37.5 -84t-93.5 -29t-93.5 29t-37.5 84v1200h-264v-1200q0 -55 -37.5 -84t-93.5 -29t-93.5 29t-37.5 84v1200h-174q-45 0 -68.5 32t-23.5 79t23.5 78.5t68.5 31.5z" />
    <glyph glyph-name="currency" unicode="&#xa4;" horiz-adv-x="1228" vert-adv-y="2263" 
d="M948 1206q32 30 67.5 26t67.5 -36t36 -67.5t-25 -67.5l-127 -125q55 -93 55 -205t-55 -205l127 -125q29 -32 25 -67.5t-36 -67.5t-67.5 -36t-67.5 26l-125 127q-94 -57 -209 -57t-211 57l-122 -127q-32 -30 -68 -26t-68 36t-36 67.5t26 67.5l127 125q-55 93 -55 205
q0 109 55 205l-127 125q-29 32 -25 67.5t35 67.5q32 31 68 35t68 -25l122 -127q96 58 211 58q113 0 209 -58zM614 936q-85 0 -142.5 -59.5t-57.5 -145.5t57.5 -145.5t142.5 -59.5t143 59.5t58 145.5t-58 145.5t-143 59.5z" />
    <glyph glyph-name="uni2109" unicode="&#x2109;" horiz-adv-x="1632" vert-adv-y="2263" 
d="M782 1464h697q45 0 68.5 -31.5t23.5 -78.5t-23.5 -79t-68.5 -32h-609v-412h566q45 0 68.5 -31.5t23.5 -78.5t-23.5 -79t-68.5 -32h-566v-501q0 -55 -37.5 -84t-93.5 -29t-93.5 29t-37.5 84v1185q0 97 38 133.5t136 36.5zM303 1524q89 0 148 -58t59 -139t-59 -139
t-148 -58t-148 58t-59 139t59 139t148 58zM303 1405q-34 0 -57 -23t-23 -55t23 -55t57 -23t57 23t23 55t-23 55t-57 23z" />
    <glyph glyph-name="perthousand" unicode="&#x2030;" horiz-adv-x="2689" vert-adv-y="2263" 
d="M469 1487q167 0 258.5 -98t91.5 -265v-43q0 -167 -91 -264.5t-259 -97.5t-259 97.5t-91 264.5v43q0 167 91.5 265t258.5 98zM469 1307q-76 0 -110.5 -47t-34.5 -148v-20q0 -100 34.5 -146.5t110.5 -46.5t110.5 46.5t34.5 146.5v20q0 101 -34.5 148t-110.5 47zM1389 1462
q36 -20 48 -54.5t-12 -78.5l-780 -1288q-22 -35 -62.5 -43t-74.5 12q-37 20 -48.5 54.5t11.5 78.5l780 1289q22 35 63 42.5t75 -12.5zM1425 754q168 0 259.5 -98t91.5 -265v-43q0 -167 -91.5 -264.5t-259.5 -97.5t-259 97.5t-91 264.5v43q0 167 91.5 265t258.5 98zM1425 573
q-76 0 -110.5 -47t-34.5 -147v-21q0 -100 34.5 -146t110.5 -46t111 46t35 146v21q0 100 -35 147t-111 47zM2220 754q167 0 258.5 -98t91.5 -265v-43q0 -167 -91 -264.5t-259 -97.5t-259 97.5t-91 264.5v43q0 167 91.5 265t258.5 98zM2220 573q-76 0 -110.5 -47t-34.5 -147
v-21q0 -100 34.5 -146t110.5 -46t110.5 46t34.5 146v21q0 100 -34.5 147t-110.5 47z" />
    <glyph glyph-name="uni25C1" unicode="&#x25c1;" vert-adv-y="2263" 
d="M1577 1544v-1626l-1290 811zM1442 1305l-916 -576l916 -571v1147z" />
    <glyph glyph-name="uni25C0" unicode="&#x25c0;" vert-adv-y="2263" 
d="M1577 1544v-1626l-1290 811z" />
    <glyph glyph-name="uni25B7" unicode="&#x25b7;" vert-adv-y="2263" 
d="M287 1544l1290 -815l-1290 -811v1626zM418 1305v-1147l915 571z" />
    <glyph glyph-name="uni25B6" unicode="&#x25b6;" vert-adv-y="2263" 
d="M287 1544l1290 -815l-1290 -811v1626z" />
    <glyph glyph-name="uni2664" unicode="&#x2664;" vert-adv-y="2263" 
d="M934 1602q120 -148 197.5 -246.5t177.5 -236t158 -233.5t99.5 -194.5t41.5 -165.5q0 -141 -82.5 -232t-216.5 -91q-50 0 -100 18t-124 58q24 -176 99 -330q14 -29 3 -49.5t-46 -24.5q-92 -10 -209 -10q-114 0 -209 10q-35 4 -46 24.5t3 49.5q74 151 98 330
q-75 -40 -124 -58t-99 -18q-134 0 -216.5 91t-82.5 232q0 66 41 163.5t101.5 197.5t157 232t180.5 238t198 245zM932 1360q-518 -617 -518 -830q0 -44 13.5 -84.5t49 -72t86.5 -31.5q49 0 103.5 27t96.5 53.5t60 26.5q52 0 72 -29.5t16 -102.5q-9 -130 -59 -278
q-6 -17 8 -19q24 -4 72 -4t72 4q14 2 8 19q-5 16 -15.5 53.5t-14.5 52t-11 43t-10 45.5t-6 40t-3 44q-5 74 14.5 103t73.5 29q18 0 60 -26.5t96.5 -53.5t103.5 -27q39 0 69 18t47 46.5t25.5 60t8.5 63.5q0 213 -518 830z" />
    <glyph glyph-name="spade" unicode="&#x2660;" vert-adv-y="2263" 
d="M934 1602q120 -148 197.5 -246.5t177.5 -236t158 -233.5t99.5 -194.5t41.5 -165.5q0 -141 -82.5 -232t-216.5 -91q-50 0 -100 18t-124 58q24 -176 99 -330q14 -29 3 -49.5t-46 -24.5q-92 -10 -209 -10q-114 0 -209 10q-35 4 -46 24.5t3 49.5q74 151 98 330
q-75 -40 -124 -58t-99 -18q-134 0 -216.5 91t-82.5 232q0 66 41 163.5t101.5 197.5t157 232t180.5 238t198 245z" />
    <glyph glyph-name="uni2661" unicode="&#x2661;" vert-adv-y="2263" 
d="M561 1487q145 0 240 -75t129 -228h4q34 153 129 228t240 75q177 0 275.5 -122t98.5 -325q0 -100 -44 -217t-116.5 -228.5t-170.5 -227t-201 -214.5t-213 -190q-140 115 -266.5 243.5t-237 271.5t-176.5 290.5t-66 271.5q0 203 99 325t276 122zM578 1251q-65 0 -105.5 -52
t-40.5 -144q0 -120 76 -271.5t187 -285t237 -236.5q126 103 237 236.5t187 285t76 271.5q0 92 -40.5 144t-105.5 52q-137 0 -188 -223q-15 -66 -60 -101.5t-106 -35.5t-106 35.5t-60 101.5q-51 223 -188 223z" />
    <glyph glyph-name="heart" unicode="&#x2665;" vert-adv-y="2263" 
d="M561 1487q145 0 240 -75t129 -228h4q34 153 129 228t240 75q177 0 275.5 -122t98.5 -325q0 -100 -44 -217t-116.5 -228.5t-170.5 -227t-201 -214.5t-213 -190q-140 115 -266.5 243.5t-237 271.5t-176.5 290.5t-66 271.5q0 203 99 325t276 122z" />
    <glyph glyph-name="uni2667" unicode="&#x2667;" vert-adv-y="2263" 
d="M932 1419q-93 0 -163.5 -53t-70.5 -145q0 -58 15.5 -105.5t39 -77t51 -57.5t51 -47.5t39 -45.5t15.5 -54q0 -67 -36 -107.5t-101 -40.5q-30 0 -76.5 26t-105 52.5t-117.5 26.5q-88 0 -144.5 -76.5t-56.5 -163.5q0 -99 56 -171.5t153 -72.5q55 0 103.5 18t82 44t62 52
t54.5 44t48 18q79 0 64 -82q-18 -96 -47 -368q0 -14 16 -17q23 -6 68 -6q44 0 67 6q17 3 17 17q-29 272 -47 368q-15 82 63 82q22 0 48 -18t54.5 -44t62 -52t82 -44t103.5 -18q97 0 153 72.5t56 171.5q0 87 -56 163.5t-144 76.5q-61 0 -119 -26.5t-103.5 -52.5t-76.5 -26
q-65 0 -101.5 40.5t-36.5 107.5q0 28 15.5 54t39 45.5t51 47.5t51 57.5t39 77t15.5 105.5q0 93 -69.5 145.5t-163.5 52.5zM932 1579q157 0 270 -97t113 -249q0 -105 -43 -182t-144 -166q-1 -1 -6 -7t-6.5 -8.5t-4 -9.5t2.5 -10q7 -10 35 2q50 24 82 38t79.5 26t90.5 12
q150 0 251 -113.5t101 -265.5q0 -103 -44 -192.5t-128 -145t-190 -55.5q-134 0 -273 110q51 -158 51 -334q0 -20 -16 -34.5t-39 -16.5q-68 -6 -182 -6t-182 6q-23 2 -39.5 16.5t-16.5 34.5q0 176 51 334q-139 -110 -272 -110q-106 0 -190 55.5t-128 145t-44 192.5
q0 152 101 265.5t251 113.5q43 0 90.5 -12t79.5 -26t82 -38q26 -11 33 -2q5 2 2 10t-3.5 9.5t-6.5 8.5l-5 7q-101 89 -143.5 166t-42.5 182q0 152 113 249t270 97z" />
    <glyph glyph-name="club" unicode="&#x2663;" vert-adv-y="2263" 
d="M932 1579q157 0 270 -97t113 -249q0 -105 -43 -182t-144 -166q-1 -1 -6 -7t-6.5 -8.5t-4 -9.5t2.5 -10q7 -10 35 2q50 24 82 38t79.5 26t90.5 12q150 0 251 -113.5t101 -265.5q0 -103 -44 -192.5t-128 -145t-190 -55.5q-134 0 -273 110q51 -158 51 -334q0 -20 -16 -34.5
t-39 -16.5q-68 -6 -182 -6t-182 6q-23 2 -39.5 16.5t-16.5 34.5q0 176 51 334q-139 -110 -272 -110q-106 0 -190 55.5t-128 145t-44 192.5q0 152 101 265.5t251 113.5q43 0 90.5 -12t79.5 -26t82 -38q26 -11 33 -2q5 2 2 10t-3.5 9.5t-6.5 8.5l-5 7q-101 89 -143.5 166
t-42.5 182q0 152 113 249t270 97z" />
    <glyph glyph-name="uni25C9" unicode="&#x25c9;" vert-adv-y="2263" 
d="M932 1546q166 0 317 -64.5t260 -173.5t173.5 -260t64.5 -317t-64.5 -317t-173.5 -260t-260 -173.5t-317 -64.5q-164 0 -314.5 64.5t-260 173.5t-175 260t-65.5 317t65.5 317t175 260t260 173.5t314.5 64.5zM932 1397q-181 0 -335 -90t-243.5 -243t-89.5 -333
q0 -182 89.5 -335.5t243 -243t335.5 -89.5q180 0 333 89.5t242.5 243.5t89.5 335q0 134 -53 257.5t-142 213t-212.5 142.5t-257.5 53zM932 1049q132 0 224.5 -93t92.5 -225t-92.5 -224.5t-224.5 -92.5q-130 0 -224 93t-94 224t94 224.5t224 93.5z" />
    <glyph glyph-name="uni25C8" unicode="&#x25c8;" vert-adv-y="2263" 
d="M932 1638l905 -905l-907 -909l-907 907zM932 1501l-772 -770l770 -770l772 772zM932 1268l536 -537l-536 -541l-543 541z" />
    <glyph glyph-name="uni25A3" unicode="&#x25a3;" vert-adv-y="2263" 
d="M154 1507h1552v-1550h-1552v1550zM260 1401v-1338h1339v1338h-1339zM469 1192h922v-922h-922v922z" />
    <glyph glyph-name="uni25D0" unicode="&#x25d0;" vert-adv-y="2263" 
d="M932 1530q217 0 401 -107t291 -291t107 -401t-107 -401t-291 -291t-401 -107q-161 0 -308.5 63t-255 170t-171.5 255t-64 311t64 311t171.5 255t255 170t308.5 63zM932 1450v-1436q145 0 278 57t229.5 153.5t154 229t57.5 277.5t-57.5 278t-154 229.5t-229.5 154
t-278 57.5z" />
    <glyph glyph-name="uni25D1" unicode="&#x25d1;" vert-adv-y="2263" 
d="M932 1530q161 0 308.5 -63t255 -170t171.5 -255t64 -311t-64 -311t-171.5 -255t-255 -170t-308.5 -63q-217 0 -401 107t-291 291t-107 401t107 401t291 291t401 107zM932 1450q-145 0 -278 -57.5t-229.5 -154t-154 -229.5t-57.5 -278t57.5 -277.5t154 -229t229.5 -153.5
t278 -57v1436z" />
    <glyph glyph-name="shade" unicode="&#x2592;" vert-adv-y="2263" 
d="M170 1493h1524v-1522h-1524v1522zM238 1425v-1386h1388v1386h-1388zM1507 1366q23 0 38.5 -15t15.5 -38t-15 -37t-39 -14q-51 0 -51 51q0 23 14 38t37 15zM1317 1366q23 0 37 -15t14 -38q0 -51 -51 -51t-51 51q0 23 14 38t37 15zM1507 1174q23 0 38.5 -15.5t15.5 -38.5
q0 -20 -15.5 -34.5t-38.5 -14.5t-37 14t-14 35q0 24 14 39t37 15zM1317 1174q23 0 37 -15t14 -39q0 -21 -14 -35t-37 -14t-37 14t-14 35q0 24 14 39t37 15zM1124 1366q23 0 38.5 -15t15.5 -38t-15 -37t-39 -14q-23 0 -38 14t-15 37t15 38t38 15zM1507 983q23 0 38.5 -15
t15.5 -38t-15.5 -38t-38.5 -15t-37 15t-14 38t14 38t37 15zM1124 1174q23 0 38.5 -15.5t15.5 -38.5q0 -20 -15.5 -34.5t-38.5 -14.5t-38 14t-15 35q0 23 15 38.5t38 15.5zM1317 983q23 0 37 -15t14 -38t-14 -38t-37 -15t-37 15t-14 38t14 38t37 15zM932 1366q23 0 37 -15
t14 -38q0 -51 -51 -51q-21 0 -36 14t-15 37t15 38t36 15zM1507 788q24 0 39 -14t15 -37q0 -21 -15.5 -36t-38.5 -15t-37 15t-14 36q0 51 51 51zM932 1174q23 0 37 -15t14 -39q0 -21 -14 -35t-37 -14q-20 0 -35.5 14.5t-15.5 34.5q0 23 15 38.5t36 15.5zM1124 983
q23 0 38.5 -15t15.5 -38t-15.5 -38t-38.5 -15t-38 15t-15 38t15 38t38 15zM1317 788q51 0 51 -51q0 -21 -14 -36t-37 -15t-37 15t-14 36q0 51 51 51zM739 1366q23 0 38.5 -15t15.5 -38t-15 -37t-39 -14q-51 0 -51 51q0 23 14 38t37 15zM1507 598q23 0 38.5 -15t15.5 -38
t-15.5 -38t-38.5 -15t-37 15t-14 38t14 38t37 15zM739 1174q23 0 38.5 -15.5t15.5 -38.5q0 -20 -15.5 -34.5t-38.5 -14.5t-37 14t-14 35q0 24 14 39t37 15zM932 983q23 0 37 -15t14 -38t-14 -38t-37 -15q-21 0 -36 15t-15 38t15 38t36 15zM1124 788q24 0 39 -14t15 -37
q0 -21 -15.5 -36t-38.5 -15t-38 15t-15 36q0 23 15 37t38 14zM1317 598q23 0 37 -15t14 -38t-14 -38t-37 -15t-37 15t-14 38t14 38t37 15zM549 1366q21 0 36 -15t15 -38t-15 -37t-36 -14q-23 0 -38 14t-15 37t15 38t38 15zM1507 403q23 0 38.5 -14.5t15.5 -34.5
q0 -23 -15.5 -38t-38.5 -15t-37 15t-14 38q0 21 14 35t37 14zM358 1366q23 0 36.5 -14.5t13.5 -38.5q0 -51 -50 -51q-23 0 -38 14t-15 37t15 38t38 15zM549 1174q21 0 36 -15.5t15 -38.5q0 -20 -15.5 -34.5t-35.5 -14.5q-23 0 -38 14t-15 35q0 23 15 38.5t38 15.5zM739 983
q23 0 38.5 -15t15.5 -38t-15.5 -38t-38.5 -15t-37 15t-14 38t14 38t37 15zM932 788q51 0 51 -51q0 -21 -14 -36t-37 -15q-20 0 -35.5 15.5t-15.5 35.5q0 23 15 37t36 14zM1124 598q23 0 38.5 -15t15.5 -38t-15.5 -38t-38.5 -15t-38 15t-15 38t15 38t38 15zM1317 403
q23 0 37 -14t14 -35q0 -23 -14 -38t-37 -15t-37 15t-14 38q0 21 14 35t37 14zM1507 213q24 0 39 -14t15 -37t-15.5 -38t-38.5 -15t-37 15t-14 38q0 51 51 51zM358 1174q23 0 36.5 -15t13.5 -39q0 -21 -13.5 -35t-36.5 -14t-38 14t-15 35q0 23 15 38.5t38 15.5zM1317 213
q51 0 51 -51q0 -23 -14 -38t-37 -15t-37 15t-14 38q0 51 51 51zM549 983q21 0 36 -15t15 -38t-15 -38t-36 -15q-23 0 -38 15t-15 38t15 38t38 15zM739 788q24 0 39 -14t15 -37q0 -21 -15.5 -36t-38.5 -15t-37 15t-14 36q0 51 51 51zM932 598q23 0 37 -15t14 -38t-14 -38
t-37 -15q-21 0 -36 15t-15 38t15 38t36 15zM1124 403q23 0 38.5 -14.5t15.5 -34.5q0 -23 -15.5 -38t-38.5 -15t-38 15t-15 38q0 21 15 35t38 14zM358 983q23 0 36.5 -14.5t13.5 -38.5t-13.5 -38.5t-36.5 -14.5t-38 15t-15 38t15 38t38 15zM1124 213q24 0 39 -14t15 -37
t-15.5 -38t-38.5 -15t-38 15t-15 38t15 37t38 14zM549 788q21 0 36 -14t15 -37q0 -20 -15.5 -35.5t-35.5 -15.5q-23 0 -38 15t-15 36q0 23 15 37t38 14zM739 598q23 0 38.5 -15t15.5 -38t-15.5 -38t-38.5 -15t-37 15t-14 38t14 38t37 15zM932 403q23 0 37 -14t14 -35
q0 -23 -14 -38t-37 -15q-21 0 -36 15t-15 38q0 20 15.5 34.5t35.5 14.5zM358 788q50 0 50 -51q0 -21 -14 -36t-36 -15q-23 0 -38 15t-15 36q0 23 15 37t38 14zM932 213q51 0 51 -51q0 -23 -14 -38t-37 -15q-21 0 -36 15t-15 38t15 37t36 14zM549 598q21 0 36 -15t15 -38
t-15 -38t-36 -15q-23 0 -38 15t-15 38t15 38t38 15zM739 403q23 0 38.5 -14.5t15.5 -34.5q0 -23 -15.5 -38t-38.5 -15t-37 15t-14 38q0 21 14 35t37 14zM358 598q23 0 36.5 -14.5t13.5 -38.5t-13.5 -38.5t-36.5 -14.5t-38 15t-15 38t15 38t38 15zM739 213q24 0 39 -14
t15 -37t-15.5 -38t-38.5 -15t-37 15t-14 38q0 51 51 51zM549 403q20 0 35.5 -14.5t15.5 -34.5q0 -23 -15 -38t-36 -15q-23 0 -38 15t-15 38q0 21 15 35t38 14zM358 403q23 0 36.5 -14t13.5 -35q0 -24 -13.5 -38.5t-36.5 -14.5t-38 15t-15 38q0 21 15 35t38 14zM549 213
q21 0 36 -14t15 -37t-15 -38t-36 -15q-23 0 -38 15t-15 38t15 37t38 14zM358 213q50 0 50 -51q0 -24 -13.5 -38.5t-36.5 -14.5t-38 15t-15 38t15 37t38 14z" />
    <glyph glyph-name="uni25A4" unicode="&#x25a4;" vert-adv-y="2263" 
d="M170 1493h1524v-1522h-1524v1522zM238 1425v-139h1388v139h-1388zM238 1221v-150h1388v150h-1388zM238 1006v-136h1388v136h-1388zM238 805v-146h1388v146h-1388zM238 594v-148h1388v148h-1388zM238 381v-139h1388v139h-1388zM238 176v-137h1388v137h-1388z" />
    <glyph glyph-name="uni25A5" unicode="&#x25a5;" vert-adv-y="2263" 
d="M170 1493h1524v-1522h-1524v1522zM1487 1425v-1386h139v1386h-139zM1282 1425v-1386h139v1386h-139zM1069 1425v-1386h148v1386h-148zM858 1425v-1386h146v1386h-146zM657 1425v-1386h136v1386h-136zM442 1425v-1386h150v1386h-150zM238 1425v-1386h139v1386h-139z" />
    <glyph glyph-name="uni25A8" unicode="&#x25a8;" vert-adv-y="2263" 
d="M170 1493h1524v-1522h-1524v1522zM1626 1378l-1339 -1339h241l1098 1098v241zM1626 1038l-999 -999h241l758 758v241zM1626 698l-659 -659h241l418 418v241zM1626 358l-319 -319h319v319zM238 1425v-315l317 315h-317zM653 1425l-415 -413v-244l659 657h-244zM995 1425
l-757 -755v-242l999 997h-242zM1335 1425l-1097 -1095v-242l1337 1337h-240z" />
    <glyph glyph-name="uni25A7" unicode="&#x25a7;" vert-adv-y="2263" 
d="M170 1493h1524v-1522h-1524v1522zM1309 1425l317 -315v315h-317zM967 1425l659 -657v244l-416 413h-243zM627 1425l999 -997v242l-758 755h-241zM289 1425l1337 -1337v242l-1098 1095h-239zM238 1378v-241l1097 -1098h242zM238 1038v-241l757 -758h242zM238 698v-241
l417 -418h242zM238 358v-319h319z" />
    <glyph glyph-name="uni25A6" unicode="&#x25a6;" vert-adv-y="2263" 
d="M170 1493h1524v-1522h-1524v1522zM1481 1425v-145h145v145h-145zM1481 1219v-146h145v146h-145zM1272 1425v-145h145v145h-145zM1481 1012v-146h145v146h-145zM1065 1425v-145h145v145h-145zM1272 1219v-146h145v146h-145zM1481 805v-146h145v146h-145zM858 1425v-145
h146v145h-146zM1065 1219v-146h145v146h-145zM1272 1012v-146h145v146h-145zM1481 598v-145h145v145h-145zM651 1425v-145h146v145h-146zM858 1219v-146h146v146h-146zM1065 1012v-146h145v146h-145zM1272 805v-146h145v146h-145zM1481 391v-145h145v145h-145zM444 1425
v-145h146v145h-146zM651 1219v-146h146v146h-146zM858 1012v-146h146v146h-146zM1065 805v-146h145v146h-145zM1272 598v-145h145v145h-145zM1481 184v-145h145v145h-145zM238 1425v-145h145v145h-145zM444 1219v-146h146v146h-146zM651 1012v-146h146v146h-146zM858 805
v-146h146v146h-146zM1065 598v-145h145v145h-145zM1272 391v-145h145v145h-145zM1272 184v-145h145v145h-145zM238 1219v-146h145v146h-145zM444 1012v-146h146v146h-146zM651 805v-146h146v146h-146zM858 598v-145h146v145h-146zM1065 391v-145h145v145h-145zM1065 184
v-145h145v145h-145zM238 1012v-146h145v146h-145zM444 805v-146h146v146h-146zM651 598v-145h146v145h-146zM858 391v-145h146v145h-146zM858 184v-145h146v145h-146zM238 805v-146h145v146h-145zM444 598v-145h146v145h-146zM651 391v-145h146v145h-146zM651 184v-145h146
v145h-146zM238 598v-145h145v145h-145zM444 391v-145h146v145h-146zM444 184v-145h146v145h-146zM238 391v-145h145v145h-145zM238 184v-145h145v145h-145z" />
    <glyph glyph-name="uni25A9" unicode="&#x25a9;" vert-adv-y="2263" 
d="M170 1493h1524v-1522h-1524v1522zM1626 1382l-137 -137l137 -135v272zM1309 1425l131 -131l133 131h-264zM1442 1198l-125 -123l137 -137l123 123zM1260 1376l-123 -121l133 -133l121 123zM967 1425l123 -122l122 122h-245zM1626 1012l-123 -123l123 -123v246zM918 1376
l-121 -121l121 -120l122 120zM1087 1204l-120 -119l133 -131l121 121zM1270 1026l-121 -121l135 -137l121 123zM1454 840l-121 -121l123 -121l121 121zM627 1425l121 -120l120 120h-241zM1626 670l-121 -121l121 -121v242zM1098 856l-119 -121l135 -135l123 119zM575 1378
l-118 -121l121 -120l120 118zM918 1036l-119 -121l131 -131l119 121zM1284 670l-119 -119l121 -123l121 121zM1456 500l-121 -121l121 -121l121 121zM745 1206l-118 -119l123 -122l118 120zM289 1425l119 -118l120 118h-239zM1626 330l-121 -121l121 -121v242zM1456 160
l-121 -121h242zM238 1378v-241l120 120zM930 688l-121 -123l135 -135l123 119zM408 1208l-121 -121l121 -120l120 120zM578 1038l-121 -120l121 -121l120 121zM748 868l-121 -120l133 -132l119 119zM1116 500l-121 -121l121 -121l121 121zM1286 330l-121 -121l121 -121
l121 121zM1116 160l-121 -121h242zM238 1038v-241l120 121zM408 868l-121 -120l121 -121l120 121zM578 698l-121 -120l131 -132l121 121zM760 518l-123 -121l137 -139l123 121zM946 330l-121 -121l121 -121l121 121zM238 698v-239l120 119zM776 160l-123 -121h244zM408 528
l-121 -120l131 -132l121 121zM588 348l-121 -121l139 -139l119 123zM238 358v-262l131 131zM418 178l-137 -139h276z" />
    <glyph glyph-name="uni2668" unicode="&#x2668;" vert-adv-y="2263" 
d="M541 676q21 7 26 -8q6 -16 -17 -27q-2 -1 -5 -2q-21 -9 -39.5 -18t-67.5 -38.5t-83 -59t-62.5 -75.5t-28.5 -92q0 -50 59.5 -91t158 -66t217.5 -38.5t245 -13.5q167 0 320 29.5t255.5 88.5t102.5 134q0 40 -26 79.5t-65 68t-76.5 48.5t-68.5 30q-24 7 -18 22t27 10
q27 -3 67.5 -15.5t91 -37.5t93 -56.5t71.5 -78t29 -98.5q0 -123 -111.5 -222t-295 -152.5t-398.5 -53.5q-216 0 -404.5 46.5t-305.5 133t-117 192.5q0 52 23 100t63 84t83.5 65.5t96.5 52.5t88.5 36t71.5 23zM721 1507q36 -107 -21 -307q-14 -52 1 -129.5t44.5 -185.5
t38.5 -187q10 -103 -112 -338q-46 -86 -49 -127q-2 -18 -13 -18t-22 18q-9 21 -14.5 47.5t-3.5 68.5t16 83q18 48 31 115t12 160.5t-29 162.5q-101 241 45 512q33 57 47 123q3 11 9 14.5t11.5 -0.5t8.5 -12zM987 1602q15 -34 25 -83t7 -119.5t-26 -133.5
q-20 -57 -22.5 -108.5t9 -99.5t27.5 -90.5t36.5 -102.5t31.5 -115q2 -24 3 -42.5t-5.5 -46t-12 -48.5t-16.5 -49t-19.5 -48t-21 -45.5t-21 -42t-19 -36.5t-15.5 -30q-58 -107 -61 -149q-1 -12 -8 -15.5t-15 0.5t-12 13q-10 25 -14.5 58.5t2 86.5t28.5 107q29 66 37.5 141.5
t0 137t-19 102t-20.5 63.5q-20 46 -31.5 90t-16 78t-1 71.5t8 61.5t17 57.5t20.5 50t24 48t22 43.5q47 96 47 190q0 15 5.5 20t13 0.5t12.5 -15.5zM1229 1499q53 -98 24 -293q-11 -60 0 -118t27.5 -91.5t37.5 -95t28 -127.5q6 -71 -11 -138t-39 -106t-55 -89t-43 -70
q-39 -76 -57 -150q-5 -13 -13.5 -15t-15.5 15q-13 26 -12 92.5t20 110.5q119 298 54 453q-44 98 -53 186t5 149t48 142q26 68 26 141q0 20 9 23t20 -19z" />
    <glyph glyph-name="uni260F" unicode="&#x260f;" vert-adv-y="2263" 
d="M805 1149v-109h254v109q-65 -21 -127 -21t-127 21zM932 1325q-210 0 -399.5 -42t-276.5 -109q-43 -33 -73.5 -75t-42 -79t-15 -69.5t2 -51.5t15.5 -20q77 -7 156 15.5t119 59.5q13 11 6 45.5t-15.5 71t9.5 78.5q18 39 92.5 61.5t202.5 22.5q12 0 94 -14q73 -17 125 -17
q45 0 125 17q11 2 30.5 6t33 6t26.5 2q253 0 299 -84q16 -32 9 -78t-16.5 -71t3.5 -46q38 -35 119 -58.5t155 -16.5q11 1 16.5 20t2 51t-16 69t-42.5 79t-72 76q-83 64 -292 107.5t-380 43.5zM932 887q127 0 221 -94t94 -222q0 -130 -93.5 -222.5t-221.5 -92.5
q-131 0 -223.5 92.5t-92.5 222.5q0 128 93 222t223 94zM932 803q-97 0 -164.5 -67.5t-67.5 -164.5q0 -96 67.5 -162.5t164.5 -66.5t164 66t67 163t-67 164.5t-164 67.5zM932 1393q263 0 488.5 -64.5t320.5 -187.5q36 -45 55.5 -111t19 -121.5t-17.5 -83.5q-8 -13 -23 -20.5
t-39 -8t-44.5 0.5t-54 8.5t-53 12t-54.5 13.5q-161 48 -174 111q-6 22 10.5 83t13.5 79q-2 12 -5.5 20.5t-11 14t-12 9t-17 5.5t-17 3t-21 2t-20.5 1q-9 -36 -6.5 -94.5t28.5 -144.5q18 -67 49 -118t59 -78.5t81 -70.5q48 -40 79.5 -89t44 -99.5t16 -83.5t3.5 -74
q29 -11 39 -62t4 -102q-3 -32 -69 -32h-1344q-67 0 -70 32q-6 51 4 102t39 62q0 225 144 346q78 63 119.5 117t68.5 150q24 88 27.5 144t-4.5 95q-5 0 -18.5 -1t-18.5 -1.5t-15.5 -2t-15.5 -4t-12.5 -6t-11.5 -9t-7.5 -13.5t-5.5 -18q-5 -19 13 -80t12 -82
q-13 -63 -174 -111q-35 -9 -54.5 -13.5t-53 -12t-54 -8.5t-44.5 -0.5t-39 8t-23 20.5q-17 28 -17.5 83.5t19 121.5t55.5 111q95 123 320.5 187.5t488.5 64.5zM655 1153q16 -165 -45 -334q-5 -13 -11.5 -25.5t-11.5 -22.5t-14.5 -22.5t-14.5 -20t-18.5 -21.5t-19 -20.5
t-23.5 -24t-25 -24t-30 -28t-32 -30.5q-47 -44 -70 -124t-23 -139q-20 -12 -27 -44t-3 -58.5t12 -26.5h1266q7 0 9.5 26.5t-5 58.5t-27.5 44q0 59 -22.5 139t-69.5 124q-73 70 -98.5 95t-53.5 63t-45 81q-64 178 -49 334h-71v-180h-402v180h-76z" />
    <glyph glyph-name="uni260E" unicode="&#x260e;" vert-adv-y="2263" 
d="M932 881q-124 0 -212.5 -88.5t-88.5 -212.5t88 -211.5t213 -87.5t213 87.5t88 211.5t-88.5 212.5t-212.5 88.5zM772 1186v-133h320v133q-82 -21 -160 -21t-160 21zM932 1393q265 0 490 -63t319 -185q36 -45 55.5 -112t19 -123.5t-17.5 -84.5q-8 -13 -23 -20.5t-39 -8
t-44.5 0.5t-54 8.5t-53 12t-54.5 13.5q-161 48 -174 111q-6 22 15 83t18 79q-7 37 -36 52.5t-77 23.5q-9 -36 -6.5 -105t28.5 -155q18 -67 49 -118t59 -78.5t81 -70.5q48 -40 79.5 -89t44 -99.5t16 -83.5t3.5 -74q29 -11 39 -62t4 -102q-3 -32 -69 -32h-1344q-67 0 -70 32
q-6 51 4 102t39 62q0 225 144 346q78 63 119.5 117t68.5 150q38 141 23 260q-31 -5 -51 -11t-38.5 -22.5t-23.5 -42.5q-5 -19 17 -80t16 -82q-13 -63 -174 -111q-35 -9 -54.5 -13.5t-53 -12t-54 -8.5t-44.5 -0.5t-39 8t-23 20.5q-17 28 -17.5 84.5t19 123.5t55.5 112
q94 122 319 185t490 63z" />
    <glyph glyph-name="uni261C" unicode="&#x261c;" vert-adv-y="2263" 
d="M956 985q178 0 247 -10q157 -22 255 -111q66 -15 123 -12v66h154v-484h-156v43h-59q-128 -76 -344 -112q-77 -10 -202.5 -9.5t-193.5 9.5q-101 16 -112 67q-8 43 30 66q-29 0 -52.5 18.5t-24.5 48.5q-2 38 22 62q-74 8 -74 67q0 44 39 63t129 19l-6 17q-204 6 -350 14
q-133 7 -167 14q-86 19 -87 74q0 24 15.5 39t48.5 22.5t67.5 11t88.5 6.5q14 1 22 1q127 10 587 10zM983 952q-70 -7 -135 -49q-24 -14 -45 -55q-15 -34 -39 -49q-10 -13 7 -20q18 -6 56 9q23 8 46 28.5t35.5 32t17.5 5.5q12 -12 -8 -31q15 -6 41.5 -8.5t41.5 0.5
q23 6 44.5 17t30.5 15.5t11 0.5q3 -9 -5 -23t-23 -24q15 -23 59.5 -55t102.5 -52q45 -15 94.5 -21.5t71.5 -9.5t22 -14q-3 -13 -64.5 -8.5t-113.5 18.5q-75 24 -127.5 64.5t-77.5 73.5q-14 -9 -47 -9q-41 2 -86 15l-31 -27q55 0 91 -13.5t42 -37.5q15 -55 -22 -84
q57 -15 63 -57q5 -42 -30 -66q59 -13 65 -57q4 -37 -27 -68q29 -6 72 0q248 21 414 127q11 11 14 3q1 -2 0 -5l-4 -16h41v315q-46 -5 -90 6l4 -16q3 -20 0 -21.5t-14 11.5q-38 45 -119 100q-57 37 -183 50.5t-196 4.5zM879 952q-140 0 -508 -8q-115 -4 -162 -12.5t-47 -36.5
q0 -30 39 -38t170 -17q348 -16 383 -17l43 66q32 47 82 63zM1612 883v-416h90v416h-90zM702 621q-20 -1 -33.5 -16.5t-13.5 -35.5q0 -33 52 -41q20 -4 124.5 -6t108.5 0q23 0 43 10.5t21 30.5q1 29 -12 41t-46 17q-67 7 -244 0zM975 492q-134 4 -232 -3q-21 -1 -30 -15.5
t-6 -33.5q4 -31 36 -37q101 -20 234 -8q33 1 48.5 16.5t12.5 43.5q-3 37 -63 37zM641 739q-19 -3 -30 -16t-9 -29q0 -15 11 -27t30 -12q158 -8 275 4q38 7 38 46q0 31 -41 34q-181 11 -274 0z" />
    <glyph glyph-name="uni261E" unicode="&#x261e;" vert-adv-y="2263" 
d="M905 985q461 0 588 -10q145 -9 183 -20q59 -17 59 -60q0 -27 -19 -45t-52.5 -25.5t-70 -11t-81.5 -5.5q-21 0 -31 -1q-144 -8 -351 -14l-6 -17q90 0 129 -19t39 -63q0 -59 -73 -67q24 -24 22 -62q-1 -29 -25 -48t-53 -19q39 -24 31 -66q-11 -50 -113 -67
q-68 -9 -193 -9.5t-202 9.5q-216 36 -344 112h-59v-43h-156v484h154v-66q56 -3 122 12q32 30 68 51.5t79 34.5t76 20.5t85.5 10.5t79.5 3.5t85 0.5h29zM879 952q-70 9 -196 -4.5t-183 -50.5q-81 -55 -119 -100q-11 -13 -14 -11.5t0 21.5l4 16q-44 -11 -90 -6v-315h41l-5 16
q-3 9 2 9q5 -1 13 -7q77 -49 172.5 -82t240.5 -45q37 -6 64 0q-4 1 -9 9.5t-9 23.5t0 35q6 44 65 57q-18 12 -26 26.5t-5 39.5q9 43 64 57q-38 30 -23 84q15 51 133 51l-30 27q-45 -13 -86 -15q-34 0 -47 9q-25 -33 -77.5 -73.5t-127.5 -64.5q-52 -14 -113.5 -18.5
t-64.5 8.5q0 11 22 14t71.5 9.5t94.5 21.5q58 20 102.5 52t59.5 55q-15 11 -23.5 24.5t-5.5 22.5q2 4 11 -0.5t30.5 -15.5t44.5 -17q15 -3 42 -0.5t42 8.5q-20 19 -8 31q5 6 17 -5.5t35 -32t46 -28.5q53 -21 65 -2q4 6 -1 13q-24 15 -39 49q-21 41 -45 55q-65 42 -135 49z
M983 952q50 -16 82 -63l43 -66q35 1 383 17q150 10 179 20q29 11 30 35q0 28 -47 36.5t-162 12.5q-368 8 -508 8zM160 883v-416h90v416h-90zM915 621q-32 -5 -45 -17t-12 -41q1 -20 21 -30.5t43 -10.5q4 -2 108.5 0t124.5 6q51 8 51 41q0 20 -13.5 35.5t-33.5 16.5
q-177 7 -244 0zM887 492q-61 0 -64 -37q-6 -57 62 -60q132 -12 233 8q33 6 37 37q3 18 -6.5 33t-30.5 16q-97 7 -231 3zM946 739q-41 -3 -41 -34q0 -39 39 -46q117 -12 275 -4q19 0 30 12t11 27q2 16 -9 29t-30 16q-94 11 -275 0z" />
    <glyph glyph-name="paragraph" unicode="&#xb6;" horiz-adv-x="1294" vert-adv-y="2263" 
d="M573 1464h381q98 0 136 -36.5t38 -133.5v-1509q0 -41 -28.5 -62.5t-71.5 -21.5q-40 0 -68 22t-28 62v1462h-129v-1462q0 -41 -29 -62.5t-72 -21.5q-40 0 -68 22t-28 62v897h-80q-192 0 -315 103.5t-123 283.5q0 85 27.5 155t84 125t151.5 85t222 30z" />
    <glyph glyph-name="dagger" unicode="&#x2020;" horiz-adv-x="1003" vert-adv-y="2263" 
d="M502 1468q55 0 92 -28t37 -82v-303h241q44 0 67.5 -30.5t23.5 -76.5q0 -45 -23.5 -75.5t-67.5 -30.5h-241v-873q0 -54 -37 -82t-92 -28t-92 28t-37 82v873h-242q-44 0 -67 30t-23 76t23 76.5t67 30.5h242v303q0 54 37 82t92 28z" />
    <glyph glyph-name="daggerdbl" unicode="&#x2021;" horiz-adv-x="1003" vert-adv-y="2263" 
d="M502 1468q55 0 92 -28t37 -82v-303h241q44 0 67.5 -30.5t23.5 -76.5q0 -45 -23.5 -75.5t-67.5 -30.5h-241v-375h241q44 0 67.5 -30.5t23.5 -76.5q0 -45 -23.5 -75.5t-67.5 -30.5h-241v-285q0 -54 -37 -82t-92 -28t-92 28t-37 82v285h-242q-44 0 -67 30t-23 76t23 76.5
t67 30.5h242v375h-242q-44 0 -67 30t-23 76t23 76.5t67 30.5h242v303q0 54 37 82t92 28z" />
    <glyph glyph-name="arrowupdn" unicode="&#x2195;" horiz-adv-x="1372" vert-adv-y="2263" 
d="M606 1176q-20 -32 -57 -74l-209 -217q-23 -21 -48.5 -18t-49.5 26q-24 22 -28 48.5t17 51.5l385 385q43 43 70 43t70 -43l385 -385q21 -25 17 -51.5t-28 -48.5q-24 -23 -49.5 -26t-48.5 18l-209 217q-37 42 -57 74v-869q20 32 57 74l209 217q23 21 48.5 18t49.5 -26
q23 -22 28 -49t-17 -52l-385 -385q-43 -43 -70 -43t-70 43l-385 385q-22 25 -17 52t28 49q24 23 49.5 26t48.5 -18l209 -217q37 -42 57 -74v869z" />
    <glyph glyph-name="uni2197" unicode="&#x2197;" horiz-adv-x="1415" vert-adv-y="2263" 
d="M1059 588v239q0 99 14 154l-766 -766q-26 -23 -52.5 -20t-51.5 28t-28 52t20 53l766 766q-59 -15 -154 -15h-240q-31 0 -47 21.5t-16 54.5t16 54.5t47 21.5h545q58 0 80 -19q18 -21 18 -79v-545q0 -31 -21 -47.5t-54 -16.5t-54.5 16.5t-21.5 47.5z" />
    <glyph glyph-name="uni2199" unicode="&#x2199;" horiz-adv-x="1415" vert-adv-y="2263" 
d="M356 874v-239q0 -99 -14 -154l766 766q26 23 52.5 20t51.5 -28q56 -57 9 -104l-766 -766q55 14 153 14h240q31 0 47 -21.5t16 -54.5t-16 -54.5t-47 -21.5h-545q-58 0 -80 19q-18 21 -18 80v544q0 31 21.5 47.5t54.5 16.5t54 -16.5t21 -47.5z" />
    <glyph glyph-name="uni2196" unicode="&#x2196;" horiz-adv-x="1415" vert-adv-y="2263" 
d="M356 827v-239q0 -31 -21 -47.5t-54 -16.5t-54.5 16.5t-21.5 47.5v545q0 58 18 79q22 19 80 19h545q31 0 47 -21.5t16 -54.5t-16 -54.5t-47 -21.5h-240q-94 0 -153 15l766 -766q23 -26 19.5 -53t-28.5 -52t-51.5 -28t-52.5 20l-766 766q14 -55 14 -154z" />
    <glyph glyph-name="uni2198" unicode="&#x2198;" horiz-adv-x="1415" vert-adv-y="2263" 
d="M1059 635v239q0 31 21.5 47.5t54.5 16.5t54 -16.5t21 -47.5v-544q0 -59 -18 -80q-22 -19 -80 -19h-545q-31 0 -47 21.5t-16 54.5t16 54.5t47 21.5h240q99 0 154 -14l-766 766q-23 26 -20 52.5t28 51.5t51.5 28t52.5 -20l766 -766q-14 55 -14 154z" />
    <glyph glyph-name="uni266D" unicode="&#x266d;" horiz-adv-x="960" vert-adv-y="2263" 
d="M702 551q0 112 -39.5 186t-105.5 74q-72 0 -125 -41.5t-75.5 -95t-22.5 -105.5v-438q51 4 100 19.5t98.5 48t86.5 78.5t60 117t23 157zM858 627q0 -133 -42.5 -238t-108 -168.5t-155.5 -106.5t-173.5 -60.5t-173.5 -22.5v1362h129v-672q70 194 287 194q101 0 169 -79.5
t68 -208.5z" />
    <glyph glyph-name="uni2669" unicode="&#x2669;" horiz-adv-x="694" vert-adv-y="2263" 
d="M489 1438v-1121q0 -93 -14.5 -149.5t-56.5 -106.5q-39 -46 -90.5 -77t-104.5 -35.5t-90 37.5q-36 44 -28 96t45 101t88 79q78 45 174 60v1116h77z" />
    <glyph glyph-name="musicalnote" unicode="&#x266a;" horiz-adv-x="1064" vert-adv-y="2263" 
d="M963 776q0 -132 -80 -256q-39 -60 -100.5 -119t-118.5 -92q-22 -13 -29.5 -2t8.5 27q203 197 203 395q0 37 -14.5 70t-34 57.5t-55 48t-61.5 37.5t-69.5 30.5t-63.5 23t-59 18.5v-697q0 -93 -14.5 -149.5t-56.5 -106.5q-39 -46 -90.5 -77t-104.5 -35.5t-90 37.5
q-36 44 -28 96t45 101t88 79q78 45 174 60v1024q0 81 18 81q13 0 25.5 -10t38.5 -39q73 -85 143 -145q176 -151 251 -257t75 -200z" />
    <glyph glyph-name="uni266C" unicode="&#x266c;" horiz-adv-x="1501" vert-adv-y="2263" 
d="M504 926l710 151v119l-710 -152v-118zM1296 1403v-930q0 -128 -137 -244q-39 -32 -82.5 -51.5t-90 -16t-75.5 41.5q-31 49 -0.5 118.5t88.5 112.5q53 39 100 54t115 24v373l-710 -154v-457q0 -127 -137 -243q-40 -32 -83 -51.5t-89.5 -16.5t-75.5 41q-31 49 -0.5 119
t88.5 113q37 27 76 43.5t66 22t73 11.5v914z" />
    <glyph glyph-name="uni327F" unicode="&#x327f;" vert-adv-y="2263" 
d="M1802 739q0 -177 -63.5 -336t-176 -277t-277 -187.5t-355.5 -69.5q-162 0 -305 51t-251 141.5t-183 214.5t-109 271l160 2q64 -243 242.5 -389t445.5 -146q155 0 287.5 53t225 145t148 217t62.5 267h-359v148h502q6 -52 6 -105zM1747 1028h-162q-87 203 -252.5 319.5
t-402.5 116.5q-145 0 -270 -47t-215 -130.5t-149.5 -196.5t-80.5 -246h250v-148h-404v43q0 176 64 335t176.5 277t276 187.5t352.5 69.5q297 0 507 -155.5t310 -424.5zM1372 1212l-364 -372l381 -547h-205l-289 430l-131 -133v-297h-164v919h164v-424l397 424h211z" />
    <glyph glyph-name="uni321C" unicode="&#x321c;" vert-adv-y="2263" 
d="M532 1307h799q31 0 47.5 -22.5t16.5 -55.5t-16.5 -55.5t-47.5 -22.5h-307v-10q0 -51 26.5 -85t94.5 -69q119 -59 248 -115q28 -13 35.5 -44t-7.5 -60q-14 -30 -43 -43.5t-59 -1.5q-164 72 -256 119q-114 58 -129 106h-2q-8 -27 -37 -52t-94 -58q-92 -47 -256 -119
q-30 -13 -59.5 1t-43.5 44q-15 32 -7.5 63.5t36.5 44.5q129 56 248 115q67 35 93 69t26 85v10h-306q-31 0 -47 22.5t-16 55.5t16 55.5t47 22.5zM389 621h1086q31 0 47 -22t16 -56q0 -33 -16 -54.5t-47 -21.5h-451v-375q0 -38 -27 -58t-65 -20t-65 20t-27 58v375h-451
q-31 0 -47 21.5t-16 54.5q0 34 16 56t47 22zM440 1647q28 -10 42.5 -37.5t0.5 -53.5q-60 -107 -97 -186.5t-73.5 -187.5t-53.5 -232t-17 -272t17 -272t53.5 -232t73.5 -188t97 -187q14 -26 -0.5 -53t-42.5 -37q-29 -11 -60.5 -2.5t-51.5 35.5q-137 180 -212 406.5t-75 529.5
t75 529.5t212 406.5q20 27 51.5 35.5t60.5 -2.5zM1423 1647q29 11 61 2.5t52 -35.5q137 -180 212 -406.5t75 -529.5t-75 -529.5t-212 -406.5q-20 -27 -52 -35.5t-61 2.5q-28 10 -42.5 37t-0.5 53q60 108 97 187t74 187.5t54 232.5t17 272t-17 272t-54 232t-74 187t-97 187
q-14 26 0.5 53.5t42.5 37.5z" />
    <glyph glyph-name="afii61352" unicode="&#x2116;" horiz-adv-x="2301" vert-adv-y="2263" 
d="M1829 1487q167 0 258.5 -98t91.5 -265v-43q0 -167 -91 -264.5t-259 -97.5t-259 97.5t-91 264.5v43q0 167 91.5 265t258.5 98zM1829 1307q-76 0 -111 -47.5t-35 -147.5v-20q0 -100 35 -146.5t111 -46.5t110.5 46.5t34.5 146.5v20q0 101 -34.5 148t-110.5 47zM1190 1477
q50 0 85.5 -27.5t35.5 -79.5v-1196q0 -97 -38 -133.5t-136 -36.5q-41 0 -66 6t-54 28t-56.5 62t-67.5 111l-387 692q-66 120 -98 236v-1037q0 -52 -35.5 -79t-85.5 -27t-85.5 27t-35.5 79v1196q0 97 38 133.5t136 36.5q54 0 86.5 -13.5t69 -56.5t88.5 -136l387 -693
q67 -121 98 -235v1036q0 52 35.5 79.5t85.5 27.5zM1554 586h549q35 0 55.5 -26.5t20.5 -65.5q0 -40 -20.5 -67.5t-55.5 -27.5h-549q-36 0 -55.5 27t-19.5 68q0 39 19.5 65.5t55.5 26.5z" />
    <glyph glyph-name="uni33C7" unicode="&#x33c7;" horiz-adv-x="2179" vert-adv-y="2263" 
d="M735 1487q264 0 422 -111q45 -31 51 -79.5t-24 -88.5q-27 -40 -69.5 -51t-86.5 14q-66 39 -135 56.5t-164 17.5q-175 0 -264.5 -115.5t-89.5 -371.5v-43q0 -254 87 -370t269 -116q186 0 328 95q41 28 86.5 20.5t75.5 -49.5q32 -42 24.5 -94t-55.5 -86
q-180 -129 -465 -129q-614 0 -614 708v84q0 709 624 709zM1706 1487q167 0 258.5 -98t91.5 -265v-43q0 -167 -91 -264.5t-259 -97.5t-259 97.5t-91 264.5v43q0 167 91.5 265t258.5 98zM1706 1307q-76 0 -110.5 -47t-34.5 -148v-20q0 -100 34.5 -146.5t110.5 -46.5
t110.5 46.5t34.5 146.5v20q0 101 -34.5 148t-110.5 47zM1432 586h548q35 0 55.5 -26.5t20.5 -65.5q0 -40 -20.5 -67.5t-55.5 -27.5h-548q-37 0 -56.5 27t-19.5 68q0 39 20 65.5t56 26.5z" />
    <glyph glyph-name="trademark" unicode="&#x2122;" horiz-adv-x="1452" vert-adv-y="2263" 
d="M86 1464h438q32 0 48 -21t16 -52q0 -32 -16 -54t-48 -22h-131v-459q0 -36 -26 -55t-64 -19q-41 0 -66.5 18.5t-25.5 55.5v459h-125q-32 0 -47.5 22t-15.5 54q0 31 15.5 52t47.5 21zM741 1464h17q56 0 82 -21t61 -95l115 -246l114 246q34 72 60.5 94t81.5 22h14
q67 0 92 -21.5t25 -78.5v-518q0 -31 -25 -48.5t-61 -17.5q-33 0 -57.5 17.5t-24.5 48.5v397q-8 -24 -43 -100l-88 -176q-19 -37 -39 -53.5t-49 -16.5q-54 0 -90 70l-86 176q-30 61 -43 100v-397q0 -31 -25 -48.5t-61 -17.5q-33 0 -57.5 17.5t-24.5 48.5v518q0 57 24.5 78.5
t87.5 21.5z" />
    <glyph glyph-name="uni33C2" unicode="&#x33c2;" vert-adv-y="2263" 
d="M305 461q-78 0 -78 -135v-9q0 -120 49 -120q38 0 53 35t15 137v92h-39zM1094 1096q54 0 90 -26.5t65 -82.5q35 56 78.5 82.5t108.5 26.5q103 0 165 -103t62 -303v-608q0 -42 -30 -65t-74 -23q-43 0 -74 23t-31 65v557q0 97 -6.5 147.5t-19 67t-35.5 16.5q-78 0 -78 -223
v-565q0 -42 -30.5 -65t-74.5 -23q-43 0 -73.5 23t-30.5 65v561q0 134 -15 180.5t-51 46.5q-37 0 -54 -50.5t-17 -164.5v-573q0 -42 -30.5 -65t-74.5 -23q-43 0 -73.5 23t-30.5 65v919q0 39 28 60.5t68 21.5q41 0 68.5 -20t27.5 -59v-9q15 44 55 72.5t87 28.5zM295 1096
q126 0 191 -92.5t65 -262.5v-671q0 -36 -26 -56t-64 -20q-36 0 -63 20t-27 54v6q-6 -39 -36 -61.5t-73 -22.5q-118 0 -178.5 82t-60.5 233v33q0 317 280 317h41v29q0 117 -8 155t-43 38q-12 0 -22 -3t-21 -10.5t-16.5 -12t-18 -17t-16.5 -15.5q-26 -25 -60 -21t-59 33
q-25 28 -25.5 64.5t27.5 79.5q86 121 213 121zM653 156q35 0 59.5 -24.5t24.5 -59.5q0 -34 -24.5 -58t-59.5 -24q-34 0 -58 24t-24 58q0 35 24 59.5t58 24.5zM1765 156q35 0 59.5 -24.5t24.5 -59.5q0 -34 -24.5 -58t-59.5 -24q-34 0 -58 24t-24 58q0 35 24 59.5t58 24.5z
" />
    <glyph glyph-name="uni33D8" unicode="&#x33d8;" vert-adv-y="2263" 
d="M326 899q-49 0 -68.5 -69.5t-19.5 -196.5v-191q0 -62 7.5 -111t29 -84.5t55.5 -35.5q53 0 76.5 80.5t23.5 245.5v41q0 163 -24 242t-80 79zM666 156q35 0 59.5 -24.5t24.5 -59.5q0 -34 -24.5 -58t-59.5 -24q-34 0 -58 24t-24 58q0 35 24 59.5t58 24.5zM1769 156
q35 0 59.5 -24.5t24.5 -59.5q0 -34 -24.5 -58t-59.5 -24q-34 0 -57.5 24t-23.5 58q0 35 23.5 59.5t57.5 24.5zM1100 1096q108 0 164 -109q36 57 76.5 83t105.5 26q102 0 162.5 -103t60.5 -303v-608q0 -42 -30 -65t-74 -23q-43 0 -74 23t-31 65v557q0 99 -5.5 148t-17 66
t-34.5 17q-74 0 -74 -223v-565q0 -42 -30 -65t-74 -23q-43 0 -74 23t-31 65v561q0 131 -18 179t-55 48q-36 0 -50 -48.5t-14 -166.5v-573q0 -42 -30 -65t-74 -23q-43 0 -74 23t-31 65v919q0 39 28 60.5t68 21.5q41 0 69 -20t28 -59v-9q15 45 51 73t82 28zM358 1120
q123 0 193 -138.5t70 -397.5v-54q0 -261 -73.5 -399.5t-199.5 -138.5q-72 0 -108 55v-360q0 -42 -30.5 -65t-74.5 -23q-42 0 -72 23t-30 65v1339q0 39 28 60.5t68 21.5q41 0 68.5 -20.5t27.5 -59.5v-8q14 42 51 71t82 29z" />
    <glyph glyph-name="uni2121" unicode="&#x2121;" horiz-adv-x="2183" vert-adv-y="2263" 
d="M938 1081h440q44 0 67 -29.5t23 -74.5t-23 -75t-67 -30h-315v-206h276q43 0 65.5 -29.5t22.5 -73.5t-22.5 -73t-65.5 -29h-276v-244h332q44 0 67 -29.5t23 -74.5t-23 -75t-67 -30h-457q-72 0 -100.5 27.5t-28.5 99.5v819q0 72 28.5 99.5t100.5 27.5zM102 1464h805
q47 0 70.5 -29.5t23.5 -78.5t-23.5 -79t-70.5 -30h-272v-1138q0 -55 -37.5 -84t-93.5 -29q-55 0 -92 29t-37 84v1138h-273q-47 0 -70.5 30t-23.5 79t23.5 78.5t70.5 29.5zM1673 1090q55 0 91 -27.5t36 -81.5v-762h305q32 0 51 -33.5t19 -70.5q0 -38 -19 -72.5t-51 -34.5
h-428q-74 0 -102.5 27.5t-28.5 99.5v846q0 54 36.5 81.5t90.5 27.5z" />
    <glyph glyph-name="uniFF01" unicode="&#xff01;" vert-adv-y="2263" 
d="M932 217q66 0 110.5 -45t44.5 -111t-44.5 -110.5t-110.5 -44.5t-111 44.5t-45 110.5t45 111t111 45zM932 1528q68 0 106 -30t37 -95l-33 -936q-1 -59 -32.5 -86t-77.5 -27t-78 27t-33 86l-33 936q-1 65 37.5 95t106.5 30z" />
    <glyph glyph-name="uniFF02" unicode="&#xff02;" vert-adv-y="2263" 
d="M743 1528q56 0 94 -28.5t35 -82.5l-16 -291q-6 -110 -113 -110q-106 0 -112 110l-17 291q-3 54 35 82.5t94 28.5zM1118 1528q56 0 94 -28.5t35 -82.5l-16 -291q-6 -110 -113 -110q-106 0 -112 110l-17 291q-3 54 35 82.5t94 28.5z" />
    <glyph glyph-name="uniFF03" unicode="&#xff03;" vert-adv-y="2263" 
d="M807 1477q44 -3 69 -30.5t19 -72.5l-37 -274h244l41 291q5 40 37.5 64.5t81.5 21.5q44 -3 69 -30.5t19 -72.5l-37 -274h100q47 0 70.5 -31t23.5 -78q0 -46 -23.5 -77t-70.5 -31h-131l-37 -281h105q47 0 70.5 -31t23.5 -77q0 -47 -23.5 -78t-70.5 -31h-133l-41 -303
q-5 -40 -38 -64.5t-83 -21.5q-44 3 -69 30t-19 72l39 287h-244l-41 -303q-5 -40 -38 -64.5t-83 -21.5q-44 3 -69 30t-19 72l39 287h-102q-47 0 -71 31.5t-24 77.5t24 77t71 31h131l38 281h-106q-47 0 -70.5 31t-23.5 77q0 47 23.5 78t70.5 31h135l41 291q5 40 37.5 64.5
t81.5 21.5zM825 883l-37 -281h248l39 281h-250z" />
    <glyph glyph-name="uniFF04" unicode="&#xff04;" vert-adv-y="2263" 
d="M1008 610v-385q101 11 146.5 58.5t45.5 113.5v11q0 40 -6 65t-24.5 52t-58 47t-103.5 38zM856 1247q-178 -19 -178 -147v-25q0 -85 38.5 -123t139.5 -69v364zM932 1591q32 0 54 -16.5t22 -48.5v-62q185 -12 317 -84q42 -23 53 -66.5t-12 -82.5q-22 -41 -56.5 -53.5
t-76.5 8.5q-112 57 -225 65v-405q135 -36 222 -76t137 -92t69.5 -111t19.5 -141v-6q0 -109 -34 -187t-97.5 -123.5t-140 -68.5t-176.5 -29v-88q0 -32 -22 -48.5t-54 -16.5t-54 16.5t-22 48.5v88q-105 8 -210.5 38t-182.5 75q-43 26 -51.5 73.5t18.5 86.5q28 42 67.5 51.5
t82.5 -14.5q128 -74 276 -95v420q-49 12 -85.5 22.5t-84 29t-82 39.5t-70 53.5t-58 70t-36.5 90t-14 113.5v27q0 50 13 97t44.5 93.5t79 83t123 62.5t170.5 34v64q0 32 22 48.5t54 16.5z" />
    <glyph glyph-name="uniFF05" unicode="&#xff05;" vert-adv-y="2263" 
d="M461 1487q167 0 258.5 -98t91.5 -265v-43q0 -167 -91 -264.5t-259 -97.5t-259 97.5t-91 264.5v43q0 167 91.5 265t258.5 98zM461 1307q-76 0 -111 -47.5t-35 -147.5v-20q0 -100 35 -146.5t111 -46.5t110.5 46.5t34.5 146.5v20q0 101 -34.5 148t-110.5 47zM1372 1462
q37 -20 48.5 -54.5t-11.5 -78.5l-780 -1288q-22 -35 -62.5 -43t-74.5 12q-37 20 -48.5 54.5t11.5 78.5l780 1289q22 35 62.5 42.5t74.5 -12.5zM1401 754q167 0 258.5 -98t91.5 -265v-43q0 -167 -91 -264.5t-259 -97.5t-259 97.5t-91 264.5v43q0 167 91.5 265t258.5 98z
M1401 573q-76 0 -111 -47t-35 -147v-21q0 -100 35 -146t111 -46t110.5 46t34.5 146v21q0 100 -34.5 147t-110.5 47z" />
    <glyph glyph-name="uniFF06" unicode="&#xff06;" vert-adv-y="2263" 
d="M864 1487q182 0 284.5 -95t102.5 -235v-16q0 -221 -260 -365l248 -270q35 96 35 207q0 51 35 78.5t86 25.5q52 -2 84 -29t32 -79q0 -202 -108 -383l123 -136q37 -46 31.5 -89t-44.5 -76q-36 -32 -83.5 -31t-83.5 39l-99 108q-179 -155 -424 -155q-149 0 -264.5 43.5
t-185.5 135t-70 220.5v29q0 138 84 237.5t246 177.5l-47 56q-113 126 -113 258v24q0 141 104.5 230.5t286.5 89.5zM825 213q160 0 275 94l-322 361q-119 -65 -169 -125.5t-50 -132.5v-19q0 -80 75.5 -129t190.5 -49zM719 1147q0 -71 112 -195l19 -20q160 82 160 209v8
q0 52 -40 88.5t-106 36.5q-74 0 -109.5 -34t-35.5 -83v-10z" />
    <glyph glyph-name="uniFF07" unicode="&#xff07;" vert-adv-y="2263" 
d="M932 1528q56 0 94 -28.5t35 -82.5l-17 -291q-6 -110 -112 -110q-107 0 -113 110l-16 291q-3 54 35 82.5t94 28.5z" />
    <glyph glyph-name="uniFF08" unicode="&#xff08;" vert-adv-y="2263" 
d="M1673 1628q39 -20 49.5 -57.5t-12.5 -77.5q-190 -331 -190 -772v-78q0 -441 190 -772q23 -40 12.5 -77.5t-49.5 -57.5q-38 -21 -78.5 -11t-72.5 50q-267 351 -267 878v58q0 527 267 878q32 40 72.5 50t78.5 -11z" />
    <glyph glyph-name="uniFF09" unicode="&#xff09;" vert-adv-y="2263" 
d="M190 1628q38 21 79 11t73 -50q266 -350 266 -878v-58q0 -528 -266 -878q-32 -40 -73 -50t-79 11q-39 20 -49 57.5t13 77.5q190 331 190 772v78q0 441 -190 772q-23 40 -13 77.5t49 57.5z" />
    <glyph glyph-name="uniFF0A" unicode="&#xff0a;" vert-adv-y="2263" 
d="M930 1536q47 0 76.5 -24t23.5 -66l-29 -201l173 129q34 24 72 10t59 -55q22 -39 11 -80t-52 -55l-207 -74l207 -71q41 -14 52 -55.5t-11 -80.5q-21 -41 -59 -55t-72 10l-173 129l29 -198q6 -42 -23.5 -66t-76.5 -24q-46 0 -75.5 24t-23.5 66l29 198l-172 -129
q-34 -24 -72 -10t-59 55q-22 39 -11 80.5t52 55.5l207 71l-207 74q-41 14 -52 55t11 80q21 41 59 55t72 -10l172 -129l-29 201q-6 42 23.5 66t75.5 24z" />
    <glyph glyph-name="uniFF0B" unicode="&#xff0b;" vert-adv-y="2263" 
d="M932 1266q47 0 81 -25t34 -72v-331h333q42 0 65 -30t23 -75t-23 -75.5t-65 -30.5h-333v-363q0 -46 -34 -71t-81 -25t-81 25t-34 71v363h-334q-42 0 -65 30.5t-23 75.5t23 75t65 30h334v331q0 47 34 72t81 25z" />
    <glyph glyph-name="uniFF0C" unicode="&#xff0c;" vert-adv-y="2263" 
d="M989 225q59 -11 88 -53.5t8 -99.5l-104 -283q-35 -92 -131 -74q-43 8 -65 35.5t-15 69.5l51 311q10 58 59 81.5t109 12.5z" />
    <glyph glyph-name="uniFF0D" unicode="&#xff0d;" vert-adv-y="2263" 
d="M659 840h545q42 0 65 -31t23 -78t-23 -77.5t-65 -30.5h-545q-42 0 -65 30.5t-23 77.5t23 78t65 31z" />
    <glyph glyph-name="uniFF0E" unicode="&#xff0e;" vert-adv-y="2263" 
d="M932 229q69 0 115.5 -46t46.5 -115t-46.5 -115.5t-115.5 -46.5t-115.5 46.5t-46.5 115.5t46.5 115t115.5 46z" />
    <glyph glyph-name="uniFF0F" unicode="&#xff0f;" vert-adv-y="2263" 
d="M1260 1634q46 -12 69 -49.5t8 -83.5l-581 -1706q-18 -51 -63 -66.5t-91 1.5q-47 13 -70 49.5t-6 83.5l580 1706q18 51 63 66.5t91 -1.5z" />
    <glyph glyph-name="uniFF10" unicode="&#xff10;" vert-adv-y="2263" 
d="M932 1487q545 0 545 -707v-88q0 -706 -545 -706t-545 706v88q0 707 545 707zM932 1239q-157 0 -219 -109.5t-62 -367.5v-51q0 -258 62 -368t219 -110t218.5 109.5t61.5 368.5v51q0 259 -61.5 368t-218.5 109z" />
    <glyph glyph-name="uniFF11" unicode="&#xff11;" vert-adv-y="2263" 
d="M1149 1477q62 0 99.5 -28.5t37.5 -84.5v-1255q0 -55 -37.5 -84t-93.5 -29t-93.5 29t-37.5 84v1060l-264 -151q-52 -27 -96 -11.5t-70 62.5q-25 40 -14.5 88.5t55.5 73.5l346 192q100 54 168 54z" />
    <glyph glyph-name="uniFF12" unicode="&#xff12;" vert-adv-y="2263" 
d="M913 1487q121 0 215 -30.5t151 -83t85.5 -118.5t28.5 -143v-22q0 -224 -213 -437l-432 -428h620q45 0 68.5 -30.5t23.5 -77.5t-23.5 -78t-68.5 -31h-780q-96 0 -140.5 34.5t-44.5 107.5q0 53 68 124l475 480q109 109 145.5 179.5t36.5 153.5v11q0 70 -54 112.5t-156 42.5
q-88 0 -150.5 -33.5t-118.5 -105.5q-29 -38 -72 -44.5t-83 22.5q-42 31 -53 72.5t18 88.5q72 107 186.5 170.5t267.5 63.5z" />
    <glyph glyph-name="uniFF13" unicode="&#xff13;" vert-adv-y="2263" 
d="M885 1487q122 0 217 -30.5t153 -82.5t87.5 -118t29.5 -142v-10q0 -116 -65.5 -212t-178.5 -130q61 -8 114 -31t97 -62t69.5 -100t25.5 -137v-20q0 -86 -35 -162.5t-101 -135.5t-169.5 -93.5t-231.5 -34.5q-243 0 -412 108q-46 30 -54 79t20 91q28 46 69.5 56.5
t87.5 -17.5q72 -46 134 -65t137 -19q153 0 221.5 55.5t68.5 149.5v16q0 105 -71 155t-226 50h-108q-47 0 -70.5 32t-23.5 81t23.5 80.5t70.5 31.5h86q136 0 201 52.5t65 158.5v6q0 81 -57.5 125.5t-175.5 44.5q-71 0 -124 -23t-108 -73q-39 -33 -83 -28.5t-74 41.5
q-30 38 -28 80t32 77q140 156 387 156z" />
    <glyph glyph-name="uniFF14" unicode="&#xff14;" vert-adv-y="2263" 
d="M1141 1456q44 -28 54.5 -69.5t-21.5 -94.5l-535 -772h424v336q0 54 37 82.5t92 28.5t92 -28.5t37 -82.5v-336h125q45 0 66.5 -30t21.5 -76q0 -45 -22 -75t-66 -30h-125v-203q0 -54 -37 -82t-92 -28t-92 28t-37 82v203h-574q-84 0 -122.5 31t-38.5 96q0 25 11 52.5
t52 86.5l588 850q30 43 76.5 50t85.5 -19z" />
    <glyph glyph-name="uniFF15" unicode="&#xff15;" vert-adv-y="2263" 
d="M676 1464h592q45 0 68.5 -31.5t23.5 -78.5q0 -49 -23.5 -80t-68.5 -31h-520l-17 -371q126 76 275 76q137 0 239 -63.5t151.5 -164t49.5 -222.5v-21q0 -73 -18.5 -142t-60 -133t-101.5 -111.5t-149.5 -76t-198.5 -28.5q-276 0 -443 108q-46 30 -54.5 79t19.5 91
q28 46 70 56.5t88 -17.5q135 -80 317 -80q131 0 199 69t68 187v13q0 118 -68 181.5t-192 63.5q-142 0 -242 -84q-32 -26 -54 -35.5t-55 -9.5q-48 0 -75.5 23.5t-26.5 64.5l33 590q6 108 40.5 143t133.5 35z" />
    <glyph glyph-name="uniFF16" unicode="&#xff16;" vert-adv-y="2263" 
d="M938 745q-134 0 -201 -69t-67 -178v-21q0 -121 66.5 -187.5t191.5 -66.5q134 0 203 66t69 190v13q0 129 -63.5 191t-198.5 62zM991 1487q201 0 320 -68q90 -53 49 -153q-19 -47 -59 -64t-93 4q-107 43 -233 43q-127 0 -210 -95t-99 -308q53 61 143 95t188 34
q214 0 337.5 -129t123.5 -346v-31q0 -103 -36 -191t-102.5 -153t-166 -102t-219.5 -37q-139 0 -241 43.5t-164.5 126.5t-92.5 196t-30 258v74q0 190 30.5 333t82 231.5t128 143t159 75t185.5 20.5z" />
    <glyph glyph-name="uniFF17" unicode="&#xff17;" vert-adv-y="2263" 
d="M489 1464h801q93 0 133.5 -33.5t40.5 -107.5q0 -38 -10 -70.5t-51 -126.5l-479 -1063q-16 -35 -44.5 -52t-59.5 -16t-62 15q-48 22 -66 61.5t6 102.5l492 1069h-701q-45 0 -68.5 32t-23.5 79t23.5 78.5t68.5 31.5z" />
    <glyph glyph-name="uniFF18" unicode="&#xff18;" vert-adv-y="2263" 
d="M932 1260q-90 0 -147.5 -50.5t-57.5 -142.5v-10q0 -92 62.5 -141.5t144.5 -49.5q84 0 143.5 49.5t59.5 141.5v10q0 93 -56 143t-149 50zM936 637q-106 0 -176 -52.5t-70 -158.5v-10q0 -94 67 -147.5t179 -53.5q110 0 174 53.5t64 147.5v10q0 103 -67.5 157t-170.5 54z
M930 1487q114 0 206.5 -33.5t150 -90.5t88 -129.5t30.5 -152.5v-14q0 -80 -50.5 -166t-150.5 -143q99 -30 169.5 -123.5t70.5 -210.5v-25q0 -183 -133.5 -298t-372.5 -115q-247 0 -382.5 114.5t-135.5 298.5v25q0 117 72.5 211t169.5 123q-98 49 -150.5 138.5t-52.5 170.5
v14q0 81 28.5 152.5t84.5 129t148.5 91t209.5 33.5z" />
    <glyph glyph-name="uniFF19" unicode="&#xff19;" vert-adv-y="2263" 
d="M930 1487q139 0 241 -44t164.5 -127t92.5 -196t30 -258v-74q0 -191 -28 -333t-76.5 -231t-124.5 -143t-161 -74.5t-196 -20.5q-201 0 -319 67q-90 53 -49 154q19 47 58.5 63.5t92.5 -4.5q107 -43 234 -43q149 0 223 91.5t86 312.5q-52 -61 -143 -95t-189 -34
q-214 0 -337 128t-123 345v30q0 211 142 348.5t382 137.5zM936 1249q-134 0 -203 -66t-69 -190v-12q0 -129 63.5 -191.5t198.5 -62.5q134 0 201 69.5t67 178.5v20q0 121 -66.5 187.5t-191.5 66.5z" />
    <glyph glyph-name="uniFF1A" unicode="&#xff1a;" vert-adv-y="2263" 
d="M932 440q69 0 115.5 -46t46.5 -115t-46.5 -115.5t-115.5 -46.5t-115.5 46.5t-46.5 115.5t46.5 115t115.5 46zM932 1239q69 0 115.5 -46.5t46.5 -115.5t-46.5 -115.5t-115.5 -46.5t-115.5 46.5t-46.5 115.5t46.5 115.5t115.5 46.5z" />
    <glyph glyph-name="uniFF1B" unicode="&#xff1b;" vert-adv-y="2263" 
d="M981 436q59 -11 88 -53.5t8 -99.5l-104 -283q-35 -92 -131 -74q-43 8 -65 35.5t-15 69.5l51 311q10 58 59 81.5t109 12.5zM940 1239q69 0 115.5 -46.5t46.5 -115.5t-46.5 -115.5t-115.5 -46.5t-115.5 46.5t-46.5 115.5t46.5 115.5t115.5 46.5z" />
    <glyph glyph-name="uniFF1C" unicode="&#xff1c;" vert-adv-y="2263" 
d="M1274 1274q52 25 90 12t59 -59q22 -40 12.5 -85.5t-55.5 -68.5l-659 -332v-12l659 -336q46 -23 55.5 -68.5t-12.5 -86.5q-21 -46 -60 -59.5t-91 11.5l-729 383q-72 38 -96.5 72t-24.5 86q0 53 24.5 87.5t96.5 72.5z" />
    <glyph glyph-name="uniFF1D" unicode="&#xff1d;" vert-adv-y="2263" 
d="M524 1055h815q42 0 65 -30.5t23 -76.5q0 -45 -23 -75.5t-65 -30.5h-815q-42 0 -65 30.5t-23 75.5q0 46 23 76.5t65 30.5zM524 621h815q42 0 65 -30.5t23 -76.5q0 -45 -23 -75.5t-65 -30.5h-815q-42 0 -65 30.5t-23 75.5q0 46 23 76.5t65 30.5z" />
    <glyph glyph-name="uniFF1E" unicode="&#xff1e;" vert-adv-y="2263" 
d="M588 1274l731 -383q72 -38 96.5 -72.5t24.5 -87.5q0 -52 -24.5 -86t-96.5 -72l-729 -383q-52 -25 -91.5 -11.5t-60.5 59.5q-22 41 -12.5 86.5t55.5 68.5l660 336v12l-660 332q-46 23 -55.5 68.5t12.5 85.5q21 46 59.5 59t90.5 -12z" />
    <glyph glyph-name="uniFF1F" unicode="&#xff1f;" vert-adv-y="2263" 
d="M918 1487q220 0 347.5 -104.5t127.5 -274.5v-23q0 -100 -51 -182.5t-195 -212.5q-86 -76 -110.5 -121.5t-24.5 -113.5q0 -44 -35 -72.5t-84 -28.5q-55 0 -90 27t-35 80q0 114 32.5 184.5t137.5 163.5q123 106 157.5 157.5t34.5 116.5v11q0 71 -53.5 116t-167.5 45
q-132 0 -260 -88q-40 -27 -79.5 -18.5t-69.5 47.5q-30 36 -27.5 83t41.5 77q168 131 404 131zM891 217q66 0 111 -45t45 -111t-45 -110.5t-111 -44.5t-111 44.5t-45 110.5t45 111t111 45z" />
    <glyph glyph-name="uniFF20" unicode="&#xff20;" vert-adv-y="2263" 
d="M913 893q-97 0 -143.5 -59.5t-46.5 -190.5v-41q0 -118 45 -179t145 -61q88 0 143.5 52t55.5 145v125q0 100 -49.5 154.5t-149.5 54.5zM913 1561q224 0 403 -63.5t296.5 -180t180 -279t62.5 -360.5v-6q0 -78 -10.5 -150t-38.5 -144.5t-70.5 -125.5t-111.5 -86t-158 -33
q-90 0 -156.5 42t-92.5 134h-3q-18 -46 -56.5 -81.5t-85 -54t-90.5 -27.5t-83 -9q-211 0 -319.5 122.5t-108.5 334.5v61q0 211 102.5 334t294.5 123t260 -129v25q0 49 34 74.5t83 25.5q50 0 84.5 -25.5t34.5 -74.5v-521q0 -88 28 -129t91 -41q87 0 130.5 80t43.5 271v4
q0 339 -195.5 523.5t-548.5 184.5q-151 0 -280.5 -50t-224.5 -142t-149 -232.5t-54 -312.5v-8q0 -187 53 -332.5t150.5 -240t234.5 -143t307 -48.5q278 0 504 98q37 18 70.5 7t48.5 -46q18 -36 7 -71.5t-50 -55.5q-106 -49 -254.5 -81.5t-319.5 -32.5q-447 0 -698.5 254.5
t-251.5 689.5v12q0 263 110 470.5t317.5 326.5t479.5 119z" />
    <glyph glyph-name="uniFF21" unicode="&#xff21;" vert-adv-y="2263" 
d="M930 1477q56 0 95 -27t65 -94l460 -1188q22 -59 0.5 -103t-73.5 -59q-134 -39 -174 74l-119 328h-516l-121 -336q-20 -56 -68 -71.5t-96 5.5q-52 18 -72.5 57.5t0.5 94.5l461 1198q25 67 64 94t94 27zM926 1149q-31 -109 -72 -227l-109 -297h361l-107 297
q-42 115 -73 227z" />
    <glyph glyph-name="uniFF22" unicode="&#xff22;" vert-adv-y="2263" 
d="M553 1464h399q234 0 349.5 -89.5t115.5 -274.5v-25q0 -53 -12.5 -98.5t-38.5 -86t-72.5 -70.5t-109.5 -46q141 -21 221 -104.5t80 -235.5v-33q0 -189 -117.5 -291t-351.5 -102h-463q-98 0 -136 36.5t-38 133.5v1116q0 97 38 133.5t136 36.5zM639 659v-434h238
q75 0 124.5 4t94 16t69 35t38.5 59.5t14 90.5v27q0 72 -31 114.5t-110 65t-218 22.5h-219zM639 1247v-375h213q123 0 186 18t88 58t25 119v18q0 95 -69.5 128.5t-241.5 33.5h-201z" />
    <glyph glyph-name="uniFF23" unicode="&#xff23;" vert-adv-y="2263" 
d="M987 1487q264 0 422 -111q45 -31 51 -79.5t-24 -88.5q-27 -40 -69.5 -51t-86.5 14q-66 39 -135 56.5t-164 17.5q-175 0 -264.5 -115.5t-89.5 -371.5v-43q0 -254 87 -370t269 -116q186 0 328 95q41 28 86.5 20.5t75.5 -49.5q32 -42 24.5 -94t-55.5 -86
q-180 -129 -465 -129q-615 0 -615 708v84q0 709 625 709z" />
    <glyph glyph-name="uniFF24" unicode="&#xff24;" vert-adv-y="2263" 
d="M526 1464h338q326 0 485.5 -163t159.5 -527v-76q0 -364 -159.5 -527t-485.5 -163h-338q-98 0 -136 36.5t-38 133.5v1116q0 97 38 133.5t136 36.5zM612 1243v-1014h217q153 0 242 46t131.5 152.5t42.5 291.5v35q0 185 -42.5 291.5t-131.5 152t-242 45.5h-217z" />
    <glyph glyph-name="uniFF25" unicode="&#xff25;" vert-adv-y="2263" 
d="M616 1464h699q44 0 67 -30.5t23 -77.5q0 -46 -23.5 -77.5t-66.5 -31.5h-613v-387h572q42 0 65 -30.5t23 -75.5q0 -46 -23 -76.5t-65 -30.5h-572v-422h627q43 0 66.5 -31t23.5 -77q0 -47 -23 -78t-67 -31h-713q-98 0 -136 36.5t-38 133.5v1116q0 97 38 133.5t136 36.5z
" />
    <glyph glyph-name="uniFF26" unicode="&#xff26;" vert-adv-y="2263" 
d="M625 1464h696q45 0 68.5 -31.5t23.5 -78.5t-23.5 -79t-68.5 -32h-608v-412h565q45 0 68.5 -31.5t23.5 -78.5t-23.5 -79t-68.5 -32h-565v-501q0 -55 -37.5 -84t-93.5 -29t-93.5 29t-37.5 84v1185q0 97 38 133.5t136 36.5z" />
    <glyph glyph-name="uniFF27" unicode="&#xff27;" vert-adv-y="2263" 
d="M1001 1487q263 0 424 -111q45 -31 51 -79.5t-24 -88.5q-29 -41 -71.5 -51.5t-80.5 14.5q-124 78 -299 78q-106 0 -177.5 -23.5t-121 -80.5t-72 -151.5t-22.5 -235.5v-43q0 -189 41.5 -296t127.5 -151.5t237 -44.5q141 0 246 43v342h-230q-45 0 -68.5 32t-23.5 79
q0 46 23.5 77t68.5 31h316q98 0 136 -36.5t38 -133.5v-405q0 -78 -26.5 -121.5t-92.5 -71.5q-177 -73 -395 -73q-164 0 -284.5 38t-206.5 121.5t-128.5 220t-42.5 328.5v84q0 192 42.5 329t127.5 220t204.5 121.5t282.5 38.5z" />
    <glyph glyph-name="uniFF28" unicode="&#xff28;" vert-adv-y="2263" 
d="M494 1477q56 0 93.5 -29t37.5 -84v-487h612v487q0 55 37.5 84t93.5 29t93.5 -29t37.5 -84v-1255q0 -55 -37.5 -84t-93.5 -29t-93.5 29t-37.5 84v550h-612v-550q0 -55 -37.5 -84t-93.5 -29q-57 0 -94.5 29t-37.5 84v1255q0 55 37.5 84t94.5 29z" />
    <glyph glyph-name="uniFF29" unicode="&#xff29;" vert-adv-y="2263" 
d="M932 1477q56 0 93.5 -29t37.5 -84v-1255q0 -55 -37.5 -84t-93.5 -29t-93.5 29t-37.5 84v1255q0 55 37.5 84t93.5 29z" />
    <glyph glyph-name="uniFF2A" unicode="&#xff2a;" vert-adv-y="2263" 
d="M1198 1477q56 0 93.5 -29t37.5 -84v-936q0 -229 -116.5 -335.5t-342.5 -106.5q-79 0 -158 22.5t-132 57.5q-39 26 -45 70.5t20 86.5q25 42 64.5 54t85.5 -11q80 -41 165 -41q104 0 150.5 60.5t46.5 206.5v872q0 55 37.5 84t93.5 29z" />
    <glyph glyph-name="uniFF2B" unicode="&#xff2b;" vert-adv-y="2263" 
d="M504 1477q56 0 93.5 -29t37.5 -84v-565l600 645q35 35 82.5 32t81.5 -38q35 -36 39 -81t-29 -81l-455 -473l502 -598q38 -47 32 -94t-50 -82q-38 -34 -89.5 -33t-86.5 45l-478 596l-149 -154v-374q0 -55 -37.5 -84t-93.5 -29t-93.5 29t-37.5 84v1255q0 55 37.5 84
t93.5 29z" />
    <glyph glyph-name="uniFF2C" unicode="&#xff2c;" vert-adv-y="2263" 
d="M588 1477q56 0 93.5 -29t37.5 -84v-1135h594q45 0 68.5 -31.5t23.5 -78.5t-23.5 -79t-68.5 -32h-682q-98 0 -136 36.5t-38 133.5v1186q0 55 37.5 84t93.5 29z" />
    <glyph glyph-name="uniFF2D" unicode="&#xff2d;" vert-adv-y="2263" 
d="M375 1468h43q49 0 78 -6.5t57.5 -29t51 -62.5t50.5 -110l281 -701l268 698q50 130 98 170.5t142 40.5h43q98 0 136 -36.5t38 -133.5v-1196q0 -53 -35 -79.5t-90 -26.5q-52 0 -87.5 27t-35.5 79v1137q-33 -136 -67 -221l-271 -666q-26 -63 -55.5 -85.5t-83.5 -22.5
q-64 0 -96 23.5t-58 90.5l-264 660q-31 74 -72 221v-1137q0 -53 -35.5 -79.5t-88.5 -26.5q-50 0 -85.5 27t-35.5 79v1196q0 97 38 133.5t136 36.5z" />
    <glyph glyph-name="uniFF2E" unicode="&#xff2e;" vert-adv-y="2263" 
d="M1382 1477q50 0 85.5 -27.5t35.5 -79.5v-1196q0 -97 -38 -133.5t-136 -36.5q-41 0 -66 6t-54 28t-56.5 62t-67.5 111l-387 692q-66 120 -98 236v-1037q0 -52 -35.5 -79t-85.5 -27t-85.5 27t-35.5 79v1196q0 97 38 133.5t136 36.5q54 0 86.5 -13.5t69 -56.5t88.5 -136
l387 -693q69 -124 99 -235v1036q0 52 35 79.5t85 27.5z" />
    <glyph glyph-name="uniFF2F" unicode="&#xff2f;" vert-adv-y="2263" 
d="M932 1487q627 0 627 -709v-84q0 -708 -627 -708t-627 708v84q0 709 627 709zM932 1247q-93 0 -158.5 -24.5t-112.5 -80.5t-69.5 -151t-22.5 -233v-43q0 -183 42 -292t119.5 -153.5t201.5 -44.5t201.5 44.5t119 153.5t41.5 292v43q0 183 -41.5 291.5t-119 153t-201.5 44.5
z" />
    <glyph glyph-name="uniFF30" unicode="&#xff30;" vert-adv-y="2263" 
d="M573 1464h383q254 0 380 -115t126 -307v-28q0 -92 -31.5 -171t-92.5 -141t-159.5 -97.5t-222.5 -35.5h-294v-460q0 -55 -37.5 -84t-94.5 -29q-56 0 -93.5 29t-37.5 84v1185q0 97 38 133.5t136 36.5zM662 1245v-454h260q136 0 206 52t70 175v22q0 114 -65.5 159.5
t-188.5 45.5h-282z" />
    <glyph glyph-name="uniFF31" unicode="&#xff31;" vert-adv-y="2263" 
d="M926 1487q626 0 626 -709v-84q0 -330 -135 -506l119 -116q31 -34 26.5 -71t-38.5 -71q-32 -32 -69 -36.5t-71 26.5l-133 131q-133 -65 -325 -65q-627 0 -627 708v84q0 709 627 709zM926 1247q-93 0 -158.5 -24.5t-112.5 -80.5t-69.5 -151t-22.5 -233v-43q0 -183 42 -292
t119.5 -153.5t201.5 -44.5q74 0 133 17l-121 120q-31 34 -26.5 71t36.5 69q34 34 71 38.5t71 -26.5l137 -137q61 116 61 338v43q0 183 -41.5 291.5t-119 153t-201.5 44.5z" />
    <glyph glyph-name="uniFF32" unicode="&#xff32;" vert-adv-y="2263" 
d="M571 1464h385q225 0 352.5 -113t127.5 -307v-36q0 -138 -65.5 -233t-182.5 -142l258 -457q26 -52 11 -96t-64 -68q-46 -25 -96.5 -15.5t-75.5 58.5l-281 537q-14 -2 -45 -2h-236v-481q0 -55 -37.5 -84t-93.5 -29t-93.5 29t-37.5 84v1185q0 97 38 133.5t136 36.5z
M659 1245v-436h240q146 0 211.5 50.5t65.5 152.5v26q0 207 -254 207h-263z" />
    <glyph glyph-name="uniFF33" unicode="&#xff33;" vert-adv-y="2263" 
d="M940 1487q222 0 371 -76q44 -23 57 -68.5t-12 -89.5q-24 -45 -64 -58t-82 7q-119 51 -266 51q-126 0 -199 -54t-73 -124v-12q0 -79 62 -121.5t245 -79.5q252 -52 364.5 -155.5t112.5 -270.5v-18q0 -210 -138.5 -321t-404.5 -111q-124 0 -244.5 31t-203.5 83
q-48 30 -55.5 79t22.5 91q29 44 70.5 54.5t87.5 -15.5q154 -88 336 -88q135 0 201.5 48t66.5 128v15q0 85 -65.5 133t-215.5 78q-136 27 -224.5 58.5t-153.5 81.5t-94 121.5t-29 172.5v14q0 87 34.5 162t100 132t166.5 89.5t227 32.5z" />
    <glyph glyph-name="uniFF34" unicode="&#xff34;" vert-adv-y="2263" 
d="M446 1464h969q45 0 68.5 -31.5t23.5 -78.5t-23.5 -79t-68.5 -32h-352v-1134q0 -55 -37.5 -84t-93.5 -29t-93.5 29t-37.5 84v1134h-355q-45 0 -68.5 32t-23.5 79t23.5 78.5t68.5 31.5z" />
    <glyph glyph-name="uniFF35" unicode="&#xff35;" vert-adv-y="2263" 
d="M489 1477q57 0 94.5 -29t37.5 -84v-752q0 -214 73 -301.5t238 -87.5t238 87.5t73 301.5v752q0 55 37.5 84t93.5 29t93.5 -29t37.5 -84v-748q0 -179 -36.5 -302t-111.5 -194.5t-178 -102.5t-247 -31t-246.5 31t-178 102.5t-112.5 194.5t-37 302v748q0 55 37.5 84t93.5 29z
" />
    <glyph glyph-name="uniFF36" unicode="&#xff36;" vert-adv-y="2263" 
d="M1475 1466q52 -18 73.5 -58.5t-0.5 -96.5l-463 -1194q-26 -67 -65.5 -94t-95.5 -27q-55 0 -94.5 27t-65.5 94l-451 1192q-22 57 0 97t76 60q50 22 102.5 4.5t71.5 -71.5l367 -1067l375 1063q21 57 70 75t100 -4z" />
    <glyph glyph-name="uniFF37" unicode="&#xff37;" vert-adv-y="2263" 
d="M938 1477q52 0 95 -30t61 -93l266 -963l260 995q13 54 54.5 76t94.5 11q54 -10 76.5 -50t7.5 -96l-337 -1208q-18 -63 -61 -93t-95 -30q-53 0 -96 30.5t-60 96.5l-268 1001l-281 -1005q-17 -63 -60.5 -93t-96.5 -30q-55 0 -97.5 30t-60.5 95l-330 1194q-17 59 8 100
t82 55q131 31 160 -79l252 -1002l268 965q18 63 61 93t97 30z" />
    <glyph glyph-name="uniFF38" unicode="&#xff38;" vert-adv-y="2263" 
d="M1430 1458q51 -28 63.5 -73t-20.5 -97l-371 -538l381 -557q34 -49 24 -97.5t-61 -79.5q-43 -28 -95.5 -19.5t-82.5 54.5l-338 520l-340 -516q-29 -44 -79.5 -55.5t-94.5 14.5q-47 29 -59.5 75t18.5 93l399 572l-362 526q-33 50 -17 100t70 78q49 27 100.5 15.5
t81.5 -60.5l303 -483l310 485q30 47 77.5 58.5t92.5 -15.5z" />
    <glyph glyph-name="uniFF39" unicode="&#xff39;" vert-adv-y="2263" 
d="M1427 1462q51 -23 66.5 -63.5t-14.5 -100.5l-418 -716v-473q0 -55 -37.5 -84t-93.5 -29t-93.5 29t-37.5 84v473l-416 714q-28 50 -13.5 93.5t66.5 70.5q43 26 93.5 13.5t78.5 -64.5l328 -586l321 584q28 52 75 65.5t95 -10.5z" />
    <glyph glyph-name="uniFF3A" unicode="&#xff3a;" vert-adv-y="2263" 
d="M473 1464h832q93 0 133.5 -33.5t40.5 -107.5q0 -36 -14.5 -66t-69.5 -100l-731 -924h768q47 0 70.5 -31.5t23.5 -80.5t-23.5 -81t-70.5 -32h-908q-101 0 -143.5 35t-42.5 115q0 37 20.5 77.5t92.5 131.5l688 872h-666q-47 0 -70.5 32t-23.5 81t23.5 80.5t70.5 31.5z" />
    <glyph glyph-name="uniFF3B" unicode="&#xff3b;" vert-adv-y="2263" 
d="M1352 1630h346q45 0 68.5 -31.5t23.5 -78.5t-23.5 -79t-68.5 -32h-260v-1454h260q45 0 68.5 -32t23.5 -79t-23.5 -78.5t-68.5 -31.5h-346q-98 0 -136 36.5t-38 133.5v1556q0 97 38 133.5t136 36.5z" />
    <glyph glyph-name="uniFFE6" unicode="&#xffe6;" vert-adv-y="2263" 
d="M944 1477q108 0 139 -123l115 -488h215l117 523q11 52 52 73t89 11q51 -11 75 -48.5t11 -93.5l-117 -465h164q29 0 44.5 -20.5t15.5 -52.5q0 -31 -15.5 -51.5t-44.5 -20.5h-198l-150 -602q-16 -63 -54 -93t-85 -30t-85 30.5t-54 96.5l-140 598h-196l-152 -602
q-16 -63 -55 -93t-86 -30q-48 0 -86.5 30.5t-52.5 94.5l-150 600h-201q-29 0 -44 20.5t-15 51.5q0 33 15 53t44 20h166l-114 465q-13 56 11.5 93.5t76.5 48.5q50 12 90 -8t53 -76l117 -523h223l123 488q31 123 139 123zM492 721l71 -324l82 324h-153zM1233 721l76 -322
l71 322h-147zM944 1124l-65 -258h125z" />
    <glyph glyph-name="uniFF3D" unicode="&#xff3d;" vert-adv-y="2263" 
d="M166 1630h346q98 0 136 -36.5t38 -133.5v-1556q0 -97 -38 -133.5t-136 -36.5h-346q-45 0 -68.5 31.5t-23.5 78.5t23.5 79t68.5 32h260v1454h-260q-45 0 -68.5 32t-23.5 79t23.5 78.5t68.5 31.5z" />
    <glyph glyph-name="uniFF3E" unicode="&#xff3e;" vert-adv-y="2263" 
d="M932 1516q60 0 102.5 -31.5t79.5 -104.5l207 -403q23 -48 9.5 -83.5t-56.5 -53.5q-40 -20 -82.5 -9t-63.5 54l-196 415l-197 -415q-21 -43 -63 -54t-82 9q-43 18 -56.5 53.5t9.5 83.5l209 403q38 73 79.5 104.5t100.5 31.5z" />
    <glyph glyph-name="uniFF3F" unicode="&#xff3f;" vert-adv-y="2263" 
d="M473 -66h918q35 0 54 -26t19 -66q0 -38 -19 -63t-54 -25h-918q-35 0 -54.5 25.5t-19.5 62.5q0 40 19.5 66t54.5 26z" />
    <glyph glyph-name="uniFF40" unicode="&#xff40;" vert-adv-y="2263" 
d="M803 1579q37 32 87 28t81 -51l125 -192q44 -72 -23 -127q-32 -26 -68.5 -22t-68.5 38l-158 166q-34 42 -25 85.5t50 74.5z" />
    <glyph glyph-name="uniFF41" unicode="&#xff41;" vert-adv-y="2263" 
d="M893 473q-97 0 -139.5 -36.5t-42.5 -106.5v-4q0 -119 153 -119q122 0 191 41q50 29 71 68.5t21 103.5v53h-254zM946 1120q202 0 328.5 -96.5t126.5 -263.5v-666q0 -48 -34.5 -73t-82.5 -25t-82.5 25t-34.5 73v53h-2q-26 -62 -121 -110q-88 -45 -200 -45q-183 0 -283 84
t-100 237v33q0 326 426 326h258v28q0 104 -48 150.5t-153 46.5q-138 0 -262 -74q-42 -24 -81 -13t-64 52q-24 37 -17.5 81t45.5 69q75 50 175 79t206 29z" />
    <glyph glyph-name="uniFF42" unicode="&#xff42;" vert-adv-y="2263" 
d="M557 1528q55 0 92 -28t37 -81v-434q34 49 93 81t112 43t104 11q220 0 330.5 -136t110.5 -400v-54q0 -261 -122 -399.5t-331 -138.5q-108 0 -185.5 39.5t-117.5 107.5h-6v-39q0 -51 -36 -77.5t-87 -26.5t-87 26.5t-36 77.5v1319q0 52 37.5 80.5t91.5 28.5zM944 899
q-125 0 -193.5 -73.5t-68.5 -192.5v-191q0 -89 77.5 -160t190.5 -71t171.5 82.5t58.5 243.5v41q0 162 -55.5 241.5t-180.5 79.5z" />
    <glyph glyph-name="uniFF43" unicode="&#xff43;" vert-adv-y="2263" 
d="M977 1120q209 0 350 -92q39 -26 46 -72.5t-21 -85.5q-26 -37 -63 -47t-79 13q-101 59 -233 59q-127 0 -189.5 -77t-62.5 -236v-52q0 -151 66 -231t188 -80q142 0 250 60q41 24 82.5 14t64.5 -51q25 -40 18 -86.5t-48 -73.5q-143 -90 -369 -90q-245 0 -378.5 136
t-133.5 402v52q0 266 133 402t379 136z" />
    <glyph glyph-name="uniFF44" unicode="&#xff44;" vert-adv-y="2263" 
d="M924 899q-240 0 -240 -324v-40q0 -166 55 -245t174 -79q124 0 196.5 78.5t72.5 197.5v189q0 88 -67 155.5t-191 67.5zM1307 1528q55 0 92 -28t37 -81v-1319q0 -51 -36 -77.5t-87 -26.5q-50 0 -85.5 26.5t-35.5 77.5v41h-6q-42 -77 -128 -113t-196 -36
q-213 0 -323.5 136.5t-110.5 399.5v54q0 261 122 399.5t331 138.5q119 0 192 -36.5t105 -84.5v420q0 52 37.5 80.5t91.5 28.5z" />
    <glyph glyph-name="uniFF45" unicode="&#xff45;" vert-adv-y="2263" 
d="M938 907q-125 0 -191.5 -65.5t-66.5 -173.5v-15h508v21q0 107 -61 170t-189 63zM942 1120q224 0 359 -128.5t135 -356.5v-4q0 -97 -38 -133.5t-136 -36.5h-582v-4q0 -113 71 -181.5t203 -68.5q158 0 283 57q41 19 79.5 5t57.5 -56t7.5 -82.5t-50.5 -60.5
q-156 -78 -387 -78q-248 0 -382 136t-134 400v54q0 262 135.5 400t378.5 138z" />
    <glyph glyph-name="uniFF46" unicode="&#xff46;" vert-adv-y="2263" 
d="M1106 1528q72 0 139 -21q87 -28 70 -121q-20 -100 -105 -86q-50 9 -80 9q-135 0 -135 -142v-71h209q44 0 67 -30.5t23 -76.5t-23 -76t-67 -30h-209v-779q0 -53 -37 -80.5t-92 -27.5q-54 0 -91.5 28t-37.5 80v779h-104q-44 0 -67 30t-23 76t23 76.5t67 30.5h104v78
q0 171 92.5 262.5t276.5 91.5z" />
    <glyph glyph-name="uniFF47" unicode="&#xff47;" vert-adv-y="2263" 
d="M881 1120q118 0 194.5 -38t110.5 -85h2v7q0 51 36 77.5t89 26.5q51 0 87 -26.5t36 -77.5v-965q0 -236 -131 -351.5t-406 -115.5q-85 0 -171.5 23t-147.5 57q-39 22 -47 69t16 84q54 94 141 50q114 -60 213 -60q139 0 209 59t70 187v127h-4q-80 -148 -316 -148
q-213 0 -323.5 135.5t-110.5 393.5v41q0 256 122 393t331 137zM924 899q-240 0 -240 -315v-29q0 -160 55 -237.5t174 -77.5q124 0 196.5 78.5t72.5 197.5v160q0 88 -67 155.5t-191 67.5z" />
    <glyph glyph-name="uniFF48" unicode="&#xff48;" vert-adv-y="2263" 
d="M567 1528q51 0 87 -27t36 -78v-456h4q45 75 137.5 114t194.5 39q182 0 287.5 -108t105.5 -310v-598q0 -53 -37 -80.5t-92 -27.5q-54 0 -91.5 28t-37.5 80v543q0 138 -56.5 193t-158.5 55q-42 0 -82.5 -13.5t-78 -42t-60.5 -82.5t-23 -126v-527q0 -53 -37 -80.5t-92 -27.5
q-54 0 -91.5 28t-37.5 80v1319q0 51 36 78t87 27z" />
    <glyph glyph-name="uniFF49" unicode="&#xff49;" vert-adv-y="2263" 
d="M932 1108q55 0 92 -28t37 -81v-895q0 -53 -37 -80.5t-92 -27.5q-54 0 -91.5 28t-37.5 80v895q0 52 37.5 80.5t91.5 28.5zM932 1532q67 0 114.5 -45.5t47.5 -110.5t-47.5 -110t-114.5 -45t-114.5 45t-47.5 110t47.5 110.5t114.5 45.5z" />
    <glyph glyph-name="uniFF4A" unicode="&#xff4a;" vert-adv-y="2263" 
d="M1087 1532q67 0 114.5 -45.5t47.5 -110.5t-47.5 -110t-114.5 -45t-114 45t-47 110t47 110.5t114 45.5zM1087 1108q55 0 92.5 -28t37.5 -81v-1032q0 -375 -365 -375q-105 0 -180 35q-38 17 -51.5 53.5t0.5 79.5q14 47 46.5 63t67.5 5q47 -16 94 -16q69 0 99 35t30 118
v1034q0 52 37.5 80.5t91.5 28.5z" />
    <glyph glyph-name="uniFF4B" unicode="&#xff4b;" vert-adv-y="2263" 
d="M582 1528q55 0 92 -28t37 -81v-782l440 434q39 38 91.5 35.5t86.5 -39.5q36 -39 35.5 -87t-39.5 -83l-303 -274l356 -420q35 -44 28.5 -91t-46.5 -81q-40 -36 -93.5 -35t-86.5 43l-342 424l-127 -115v-244q0 -53 -37 -80.5t-92 -27.5q-54 0 -91.5 28t-37.5 80v1315
q0 52 37.5 80.5t91.5 28.5z" />
    <glyph glyph-name="uniFF4C" unicode="&#xff4c;" vert-adv-y="2263" 
d="M932 1528q55 0 92 -28.5t37 -82.5v-1311q0 -54 -37 -82t-92 -28t-92 28t-37 82v1311q0 54 37 82.5t92 28.5z" />
    <glyph glyph-name="uniFF4D" unicode="&#xff4d;" vert-adv-y="2263" 
d="M690 1120q104 0 187 -47.5t114 -124.5q62 88 144 130t206 42q80 0 149.5 -27.5t123.5 -79t85.5 -134t31.5 -185.5v-590q0 -53 -37 -80.5t-92 -27.5q-54 0 -91.5 28t-37.5 80v537q0 140 -55.5 195t-149.5 55q-87 0 -147 -56.5t-60 -185.5v-545q0 -53 -37 -80.5t-92 -27.5
q-54 0 -91.5 28t-37.5 80v541q0 246 -205 246q-94 0 -150.5 -59.5t-56.5 -172.5v-555q0 -53 -37 -80.5t-92 -27.5q-54 0 -91.5 28t-37.5 80v900q0 51 35.5 77.5t85.5 26.5q51 0 87 -26.5t36 -77.5v-58q44 84 125 129t188 45z" />
    <glyph glyph-name="uniFF4E" unicode="&#xff4e;" vert-adv-y="2263" 
d="M1026 1120q182 0 287.5 -108t105.5 -310v-598q0 -53 -37 -80.5t-92 -27.5q-54 0 -91.5 28t-37.5 80v543q0 138 -56.5 193t-158.5 55q-42 0 -82.5 -13.5t-78 -42t-60.5 -82.5t-23 -126v-527q0 -53 -37 -80.5t-92 -27.5q-54 0 -91.5 28t-37.5 80v900q0 51 36 77.5t87 26.5
t87 -26.5t36 -77.5v-37h4q45 75 137.5 114t194.5 39z" />
    <glyph glyph-name="uniFF4F" unicode="&#xff4f;" vert-adv-y="2263" 
d="M932 1120q252 0 390 -138t138 -400v-52q0 -262 -138 -400t-390 -138t-390.5 138.5t-138.5 399.5v52q0 261 138.5 399.5t390.5 138.5zM932 895q-139 0 -203.5 -76t-64.5 -241v-43q0 -165 65 -241.5t203 -76.5t203 76.5t65 241.5v43q0 165 -64.5 241t-203.5 76z" />
    <glyph glyph-name="uniFF50" unicode="&#xff50;" vert-adv-y="2263" 
d="M995 1120q220 0 330.5 -136t110.5 -400v-54q0 -261 -122 -399.5t-331 -138.5q-200 0 -297 131v-416q0 -53 -37 -80.5t-92 -27.5q-54 0 -91.5 28t-37.5 80v1297q0 51 36 77.5t87 26.5q53 0 89 -26.5t36 -77.5v-31q54 79 140 113t179 34zM944 899q-125 0 -193.5 -73.5
t-68.5 -192.5v-191q0 -89 77.5 -160t190.5 -71t171.5 82.5t58.5 243.5v41q0 162 -55.5 241.5t-180.5 79.5z" />
    <glyph glyph-name="uniFF51" unicode="&#xff51;" vert-adv-y="2263" 
d="M881 1120q115 0 190 -37t111 -84h4v5q0 51 36 77.5t91 26.5q51 0 87 -26.5t36 -77.5v-1299q0 -51 -37.5 -78.5t-89.5 -27.5q-53 0 -90 27.5t-37 78.5v434h-6q-80 -147 -314 -147q-213 0 -323.5 136.5t-110.5 399.5v54q0 261 122 399.5t331 138.5zM924 899
q-240 0 -240 -324v-40q0 -166 55 -245t174 -79q124 0 196.5 78.5t72.5 197.5v189q0 88 -67 155.5t-191 67.5z" />
    <glyph glyph-name="uniFF52" unicode="&#xff52;" vert-adv-y="2263" 
d="M1120 1120q72 0 111 -22q69 -38 53 -129q-11 -57 -47 -88.5t-82 -22.5q-10 2 -32 6.5t-38 7t-32 2.5q-94 0 -158 -68.5t-64 -170.5v-531q0 -53 -37 -80.5t-92 -27.5q-54 0 -91.5 28t-37.5 80v900q0 51 36 77.5t87 26.5q53 0 89 -26.5t36 -77.5v-72h4q43 86 122 137
t173 51z" />
    <glyph glyph-name="uniFF53" unicode="&#xff53;" vert-adv-y="2263" 
d="M940 1120q203 0 320 -63q100 -55 53 -154q-19 -39 -53.5 -51.5t-79.5 6.5q-99 47 -211 47q-109 0 -158 -26.5t-49 -69.5v-4q0 -36 13.5 -54t57 -34t138.5 -35q165 -32 253.5 -76t124 -108.5t35.5 -171.5v-9q0 -141 -123 -233t-325 -92q-236 0 -404 92q-41 22 -50.5 67
t12.5 85q22 44 61 57.5t84 -8.5q145 -76 295 -76q188 0 188 108v5q0 37 -14 56t-63.5 36.5t-157.5 38.5q-213 41 -298 119t-85 229v8q0 132 113 221.5t323 89.5z" />
    <glyph glyph-name="uniFF54" unicode="&#xff54;" vert-adv-y="2263" 
d="M868 1397q55 0 92 -28.5t37 -82.5v-190h215q44 0 67.5 -30.5t23.5 -76.5q0 -45 -23.5 -75.5t-67.5 -30.5h-215v-541q0 -68 24.5 -99.5t76.5 -31.5q47 0 94 16q35 12 68 -4.5t47 -62.5q14 -43 0 -79.5t-52 -53.5q-75 -35 -180 -35q-179 0 -257.5 89t-78.5 273v529h-102
q-44 0 -67 30t-23 76t23 76.5t67 30.5h102v190q0 54 37 82.5t92 28.5z" />
    <glyph glyph-name="uniFF55" unicode="&#xff55;" vert-adv-y="2263" 
d="M575 1108q54 0 92 -28.5t38 -80.5v-536q0 -138 56 -193t157 -55q42 0 81 13.5t76 42t59.5 82.5t22.5 126v520q0 53 37 81t92 28q54 0 91.5 -28.5t37.5 -80.5v-899q0 -51 -36 -77.5t-87 -26.5t-87 26.5t-36 77.5v43h-4q-45 -75 -136 -114t-191 -39q-181 0 -286.5 108
t-105.5 310v591q0 53 37 81t92 28z" />
    <glyph glyph-name="uniFF56" unicode="&#xff56;" vert-adv-y="2263" 
d="M510 1096q33 10 65.5 11.5t61 -18t41.5 -57.5l258 -760h2l258 760q19 56 68.5 70.5t95.5 -6.5q49 -18 71 -58.5t1 -93.5l-310 -811q-53 -137 -190 -137q-138 0 -191 137l-309 811q-20 52 4 92.5t74 59.5z" />
    <glyph glyph-name="uniFF57" unicode="&#xff57;" vert-adv-y="2263" 
d="M938 1108q49 0 90 -30.5t57 -94.5l168 -721h9l161 750q13 62 55 83t97 9t79 -52t9 -100l-209 -817q-20 -74 -64 -106.5t-118 -32.5q-146 0 -182 137l-154 629h-8l-156 -629q-36 -137 -182 -137t-182 137l-209 813q-15 61 11 103.5t83 54.5q59 12 104 -10.5t58 -87.5
l147 -744h8l176 717q16 67 58 98t94 31z" />
    <glyph glyph-name="uniFF58" unicode="&#xff58;" vert-adv-y="2263" 
d="M1339 1081q43 -32 51 -76.5t-24 -89.5l-276 -352l294 -364q34 -42 28.5 -89t-50.5 -85q-37 -33 -91 -28t-87 50l-254 338l-254 -336q-35 -47 -85 -52.5t-87 26.5q-43 34 -51.5 76.5t24.5 88.5l301 375l-270 342q-34 42 -28.5 89t50.5 85q37 33 91.5 28t87.5 -50l229 -316
l229 314q34 47 84.5 52.5t87.5 -26.5z" />
    <glyph glyph-name="uniFF59" unicode="&#xff59;" vert-adv-y="2263" 
d="M1354 1100q49 -14 73.5 -56.5t4.5 -93.5l-512 -1300q-19 -49 -65 -62t-95 9q-50 20 -68 57.5t0 83.5l111 266l-373 938q-21 52 4 93.5t76 60.5q33 10 65 11.5t60.5 -18t42.5 -59.5l256 -733h2l254 733q13 38 41.5 58t59.5 20t63 -8z" />
    <glyph glyph-name="uniFF5A" unicode="&#xff5a;" vert-adv-y="2263" 
d="M586 1096h602q93 0 133.5 -34t40.5 -108q0 -40 -16 -72.5t-68 -93.5l-483 -557h516q45 0 68.5 -31.5t23.5 -80.5t-23.5 -80t-68.5 -31h-682q-168 0 -168 113q0 40 16.5 72.5t77.5 103.5l489 575h-458q-45 0 -68.5 31t-23.5 80t23.5 81t68.5 32z" />
    <glyph glyph-name="uniFF5B" unicode="&#xff5b;" vert-adv-y="2263" 
d="M1532 1630h166q45 0 68.5 -31.5t23.5 -78.5t-23.5 -79t-68.5 -32h-123q-35 0 -58 -7t-37 -18.5t-21 -37t-9 -52t-2 -73.5v-269q0 -54 -14 -101.5t-56.5 -91.5t-109.5 -59q67 -15 109.5 -59t56.5 -91t14 -101v-322q0 -107 22 -139.5t105 -32.5h123q45 0 68.5 -32t23.5 -79
t-23.5 -78.5t-68.5 -31.5h-166q-161 0 -252.5 74t-91.5 219v411q0 130 -137 148q-51 7 -72 36t-21 78q0 102 93 115q137 18 137 148v358q0 148 92.5 228.5t251.5 80.5z" />
    <glyph glyph-name="uniFF5C" unicode="&#xff5c;" vert-adv-y="2263" 
d="M930 1642q56 0 92.5 -28t36.5 -82v-1700q0 -54 -36.5 -82.5t-92.5 -28.5q-55 0 -91 28.5t-36 82.5v1700q0 54 36 82t91 28z" />
    <glyph glyph-name="uniFF5D" unicode="&#xff5d;" vert-adv-y="2263" 
d="M166 1630h166q159 0 251.5 -80.5t92.5 -228.5v-358q0 -130 137 -148q51 -7 71.5 -36t20.5 -79q0 -49 -20.5 -78t-71.5 -36q-137 -18 -137 -148v-411q0 -145 -91.5 -219t-252.5 -74h-166q-45 0 -68.5 31.5t-23.5 78.5t23.5 79t68.5 32h123q83 0 105 32.5t22 139.5v322
q0 54 14 101t56.5 91t109.5 59q-67 15 -109.5 59t-56.5 91.5t-14 101.5v269q0 47 -2 73.5t-9 52t-21 37t-37 18.5t-58 7h-123q-45 0 -68.5 32t-23.5 79t23.5 78.5t68.5 31.5z" />
    <glyph glyph-name="uniFFE3" unicode="&#xffe3;" vert-adv-y="2263" 
d="M33 1602h1798q16 0 24.5 -11.5t8.5 -27.5q0 -41 -33 -41h-1798q-33 0 -33 41q0 16 8.5 27.5t24.5 11.5z" />
    <glyph glyph-name="uni3131" unicode="&#x3131;" vert-adv-y="2263" 
d="M354 1169h996q98 0 136 -36.5t38 -133.5v-766q0 -54 -38.5 -82t-92.5 -28t-92.5 28t-38.5 82v664q0 26 -11 36.5t-37 10.5h-860q-45 0 -68.5 32t-23.5 81t23.5 80.5t68.5 31.5z" />
    <glyph glyph-name="uni3132" unicode="&#x3132;" vert-adv-y="2263" 
d="M264 1169h432q98 0 136 -36.5t38 -133.5v-766q0 -54 -38.5 -82t-92.5 -28t-91.5 28t-37.5 82v664q0 26 -10.5 36.5t-36.5 10.5h-299q-45 0 -68.5 32t-23.5 81t23.5 80.5t68.5 31.5zM1042 1169h402q98 0 136 -36.5t38 -133.5v-766q0 -54 -38.5 -82t-92.5 -28t-91.5 28
t-37.5 82v664q0 26 -10.5 36.5t-36.5 10.5h-269q-45 0 -68.5 32t-23.5 81t23.5 80.5t68.5 31.5z" />
    <glyph glyph-name="uni3133" unicode="&#x3133;" vert-adv-y="2263" 
d="M264 1169h432q98 0 136 -36.5t38 -133.5v-766q0 -54 -38.5 -82t-92.5 -28t-91.5 28t-37.5 82v664q0 26 -10.5 36.5t-36.5 10.5h-299q-45 0 -68.5 32t-23.5 81t23.5 80.5t68.5 31.5zM1343 1188q54 0 92 -28.5t38 -82.5v-229q0 -118 21.5 -186t76.5 -138q84 -105 168 -196
q33 -40 30 -80t-36 -74t-76 -38t-80 32q-79 84 -139 158q-80 101 -92 153h-3q-11 -49 -94 -153q-60 -74 -139 -158q-37 -36 -80 -32t-76 38t-36 74t30 80q84 91 168 196q55 70 76.5 138t21.5 186v229q0 54 37.5 82.5t91.5 28.5z" />
    <glyph glyph-name="uni3134" unicode="&#x3134;" vert-adv-y="2263" 
d="M477 1192q57 0 95 -28.5t38 -82.5v-655q0 -26 10.5 -36.5t36.5 -10.5h826q45 0 68.5 -32t23.5 -81q0 -47 -23.5 -78.5t-68.5 -31.5h-965q-98 0 -136 36.5t-38 133.5v755q0 54 38 82.5t95 28.5z" />
    <glyph glyph-name="uni3135" unicode="&#x3135;" vert-adv-y="2263" 
d="M952 1176h611q44 0 67 -31t23 -78t-23 -78t-67 -31h-181v-172q0 -149 86 -264q47 -63 166 -205q64 -76 4 -151q-31 -39 -77.5 -45.5t-85.5 31.5q-58 61 -121 147q-77 104 -94 176h-3q-16 -68 -96 -176q-35 -48 -121 -147q-37 -39 -84.5 -32t-78.5 46q-11 11 -23 35
q-20 -45 -72 -51q-109 -13 -333 -13q-99 0 -137 37t-38 133v756q0 54 37.5 82.5t91.5 28.5t91.5 -28.5t37.5 -82.5v-657q0 -26 11 -37t37 -11q98 0 180 7q39 3 65.5 -18t34.5 -58l21 28q76 85 166 205q86 115 86 264v172h-181q-44 0 -67 31t-23 78t23 78t67 31z" />
    <glyph glyph-name="uni3136" unicode="&#x3136;" vert-adv-y="2263" 
d="M403 1174q54 0 91.5 -28.5t37.5 -82.5v-657q0 -26 11 -37t37 -11q100 0 182 7q45 3 72 -23t32 -72q5 -47 -16 -80.5t-66 -39.5q-109 -13 -335 -13q-99 0 -137 37t-38 133v756q0 54 37.5 82.5t91.5 28.5zM1249 756q162 0 251 -87.5t89 -240.5t-89 -240.5t-251 -87.5
t-251 87.5t-89 240.5t89 240.5t251 87.5zM1249 1237q54 0 91.5 -28.5t37.5 -80.5v-81h205q45 0 68.5 -32t23.5 -79q0 -46 -23.5 -77.5t-68.5 -31.5h-668q-45 0 -68.5 31.5t-23.5 77.5q0 47 23.5 79t68.5 32h205v81q0 52 37.5 80.5t91.5 28.5zM1249 559q-56 0 -86 -34.5
t-30 -96.5t30 -96.5t86 -34.5t86.5 34.5t30.5 96.5t-30.5 96.5t-86.5 34.5z" />
    <glyph glyph-name="uni3137" unicode="&#x3137;" vert-adv-y="2263" 
d="M494 1174h979q45 0 68.5 -32t23.5 -79t-23.5 -79t-68.5 -32h-842q-26 0 -36.5 -10.5t-10.5 -36.5v-487q0 -26 10.5 -36.5t36.5 -10.5h862q45 0 68.5 -32t23.5 -79t-23.5 -78.5t-68.5 -31.5h-999q-99 0 -137 36.5t-38 132.5v685q0 96 38 133t137 37z" />
    <glyph glyph-name="uni3138" unicode="&#x3138;" vert-adv-y="2263" 
d="M1171 1171h365q45 0 68.5 -31.5t23.5 -78.5t-23.5 -79t-68.5 -32h-231q-26 0 -37 -10.5t-11 -36.5v-483q0 -26 11 -36.5t37 -10.5h251q45 0 69 -32t24 -79t-24 -78.5t-69 -31.5h-385q-98 0 -136 36.5t-38 133.5v679q0 97 38 133.5t136 36.5zM467 1171h346
q45 0 68.5 -31.5t23.5 -78.5t-23.5 -79t-68.5 -32h-213q-26 0 -36.5 -10.5t-10.5 -36.5v-483q0 -26 10.5 -36.5t36.5 -10.5h236q45 0 68.5 -32t23.5 -79t-23.5 -78.5t-68.5 -31.5h-369q-98 0 -136 36.5t-38 133.5v679q0 97 38 133.5t136 36.5z" />
    <glyph glyph-name="uni3139" unicode="&#x3139;" vert-adv-y="2263" 
d="M381 1194h1012q98 0 136 -36.5t38 -133.5v-295q0 -97 -38 -133.5t-136 -36.5h-795q-26 0 -36.5 -10.5t-10.5 -36.5v-109q0 -26 10.5 -36.5t36.5 -10.5h918q45 0 68.5 -31.5t23.5 -78.5t-23.5 -79t-68.5 -32h-1049q-98 0 -136 36.5t-38 133.5v297q0 97 38 133.5t136 36.5
h795q26 0 36.5 10.5t10.5 36.5v107q0 26 -10.5 36.5t-36.5 10.5h-881q-45 0 -68.5 31.5t-23.5 78.5t23.5 79t68.5 32z" />
    <glyph glyph-name="uni313A" unicode="&#x313a;" vert-adv-y="2263" 
d="M1083 1176h379q98 0 136 -36.5t38 -133.5v-754q0 -54 -37.5 -82.5t-91.5 -28.5t-91.5 28.5t-37.5 82.5v653q0 26 -10.5 36.5t-36.5 10.5h-248q-45 0 -68.5 32t-23.5 79q0 49 23.5 81t68.5 32zM340 1176h403q105 0 140 -34t35 -136v-269q0 -102 -35 -136t-140 -34h-200
q-26 0 -36.5 -10.5t-10.5 -36.5v-119q0 -26 10.5 -36.5t36.5 -10.5h340q42 0 64 -29.5t22 -72.5q0 -44 -22 -73t-64 -29h-451q-100 0 -137 35.5t-37 133.5v269q0 103 34.5 136.5t139.5 33.5h201q26 0 36.5 11t10.5 38v117q0 26 -10.5 36.5t-36.5 10.5h-293q-42 0 -64 29
t-22 73q0 43 22 73t64 30z" />
    <glyph glyph-name="uni313B" unicode="&#x313b;" vert-adv-y="2263" 
d="M319 1176h381q105 0 139.5 -33.5t34.5 -136.5v-269q0 -103 -34.5 -136.5t-139.5 -33.5h-178q-26 0 -36.5 -10.5t-10.5 -36.5v-119q0 -26 10.5 -36.5t36.5 -10.5h307q42 0 64 -29.5t22 -72.5q0 -44 -22 -73t-64 -29h-417q-100 0 -137 35.5t-37 133.5v269q0 103 34.5 136.5
t139.5 33.5h178q26 0 36.5 11t10.5 38v117q0 26 -10.5 36.5t-36.5 10.5h-271q-42 0 -64 29t-22 73q0 43 22 73t64 30zM1145 1176h325q105 0 140 -34t35 -136v-687q0 -102 -35 -135.5t-140 -33.5h-325q-105 0 -139.5 33.5t-34.5 135.5v687q0 103 34.5 136.5t139.5 33.5z
M1249 973q-26 0 -36.5 -10.5t-10.5 -36.5v-527q0 -26 10.5 -36.5t36.5 -10.5h117q26 0 36.5 10.5t10.5 36.5v527q0 26 -10.5 36.5t-36.5 10.5h-117z" />
    <glyph glyph-name="uni313C" unicode="&#x313c;" vert-adv-y="2263" 
d="M319 1176h381q105 0 139.5 -33.5t34.5 -136.5v-269q0 -103 -34.5 -136.5t-139.5 -33.5h-178q-26 0 -36.5 -10.5t-10.5 -36.5v-119q0 -26 10.5 -36.5t36.5 -10.5h307q42 0 64 -29.5t22 -72.5q0 -44 -22 -73t-64 -29h-417q-100 0 -137 35.5t-37 133.5v269q0 103 34.5 136.5
t139.5 33.5h178q26 0 36.5 11t10.5 38v117q0 26 -10.5 36.5t-36.5 10.5h-271q-42 0 -64 29t-22 73q0 43 22 73t64 30zM1085 1186q47 0 81 -25t34 -71v-265h215v265q0 46 34 71t81 25t81 -25t34 -71v-771q0 -102 -35 -135.5t-140 -33.5h-325q-105 0 -139.5 33.5t-34.5 135.5
v771q0 46 33.5 71t80.5 25zM1200 633v-242q0 -26 9.5 -35.5t35.5 -9.5h125q26 0 35.5 9.5t9.5 35.5v242h-215z" />
    <glyph glyph-name="uni313D" unicode="&#x313d;" vert-adv-y="2263" 
d="M1321 1188q54 0 91.5 -28.5t37.5 -82.5v-229q0 -118 21.5 -186t76.5 -138q84 -105 168 -196q33 -40 30 -80t-36 -74t-76 -38t-80 32q-79 84 -139 158q-80 101 -92 153h-2q-11 -49 -94 -153q-54 -67 -140 -158q-37 -36 -79.5 -32t-75.5 38q-17 17 -25 33q-16 -57 -78 -57
h-417q-100 0 -137 35.5t-37 133.5v269q0 103 34.5 136.5t139.5 33.5h178q26 0 36.5 11t10.5 38v117q0 26 -10.5 36.5t-36.5 10.5h-271q-42 0 -64 29t-22 73q0 43 22 73t64 30h381q105 0 139.5 -33.5t34.5 -136.5v-269q0 -103 -34.5 -136.5t-139.5 -33.5h-178
q-26 0 -36.5 -10.5t-10.5 -36.5v-119q0 -26 10.5 -36.5t36.5 -10.5h307q57 0 78 -53q8 16 19 27q84 91 168 196q55 70 76.5 138t21.5 186v229q0 54 37.5 82.5t91.5 28.5z" />
    <glyph glyph-name="uni313E" unicode="&#x313e;" vert-adv-y="2263" 
d="M1147 1176h383q40 0 62 -29t22 -70t-21.5 -69.5t-62.5 -28.5h-299q-31 0 -31 -31v-190h313q39 0 59.5 -28t20.5 -68t-20.5 -67.5t-59.5 -27.5h-313v-190q0 -31 31 -31h319q41 0 62.5 -28.5t21.5 -69.5t-21.5 -69.5t-62.5 -28.5h-403q-105 0 -139.5 33.5t-34.5 135.5v687
q0 103 34.5 136.5t139.5 33.5zM319 1176h381q105 0 139.5 -33.5t34.5 -136.5v-269q0 -103 -34.5 -136.5t-139.5 -33.5h-184q-26 0 -36.5 -10.5t-10.5 -36.5v-119q0 -26 10.5 -36.5t36.5 -10.5h313q42 0 64 -29.5t22 -72.5q0 -44 -22 -73t-64 -29h-417q-100 0 -137 35.5
t-37 133.5v269q0 103 34.5 136.5t139.5 33.5h184q26 0 36.5 11t10.5 38v117q0 26 -10.5 36.5t-36.5 10.5h-277q-42 0 -64 29t-22 73q0 43 22 73t64 30z" />
    <glyph glyph-name="uni313F" unicode="&#x313f;" vert-adv-y="2263" 
d="M311 1176h373q105 0 139.5 -33.5t34.5 -136.5v-269q0 -103 -34.5 -136.5t-139.5 -33.5h-170q-26 0 -36.5 -10.5t-10.5 -36.5v-119q0 -26 10.5 -36.5t36.5 -10.5h299q42 0 64 -29.5t22 -72.5q0 -44 -22 -73t-64 -29h-410q-100 0 -137 35.5t-37 133.5v269q0 103 34.5 136.5
t139.5 33.5h170q26 0 37 11.5t11 37.5v117q0 26 -11 36.5t-37 10.5h-262q-42 0 -64 29t-22 73q0 43 22 73t64 30zM1004 1176h573q40 0 62 -30.5t22 -72.5t-22 -72t-62 -30h-31v-617h31q40 0 62 -30t22 -72t-22 -72t-62 -30h-573q-40 0 -62 30t-22 72t22 72t62 30h30v617h-30
q-40 0 -62 30t-22 72t22 72.5t62 30.5zM1239 971v-617h102v617h-102z" />
    <glyph glyph-name="uni3140" unicode="&#x3140;" vert-adv-y="2263" 
d="M301 1176h361q105 0 139.5 -33.5t34.5 -136.5v-269q0 -103 -34.5 -136.5t-139.5 -33.5h-164q-26 0 -36.5 -10.5t-10.5 -36.5v-119q0 -26 10.5 -36.5t36.5 -10.5h293q42 0 64 -29.5t22 -72.5q0 -44 -22 -73t-64 -29h-398q-100 0 -137 35.5t-37 133.5v269q0 103 34.5 136.5
t139.5 33.5h164q26 0 36.5 11t10.5 38v117q0 26 -10.5 36.5t-36.5 10.5h-256q-42 0 -64 29t-22 73q0 43 22 73t64 30zM1294 756q170 0 265.5 -88t95.5 -240t-95.5 -240t-265.5 -88t-265 88t-95 240t95 240t265 88zM1294 1237q54 0 91.5 -28.5t37.5 -80.5v-81h199
q45 0 68.5 -32t23.5 -79q0 -46 -23.5 -77.5t-68.5 -31.5h-647q-45 0 -68.5 31.5t-23.5 77.5q0 47 23.5 79t68.5 32h190v81q0 52 37.5 80.5t91.5 28.5zM1294 559q-64 0 -100.5 -34.5t-36.5 -96.5t36.5 -96.5t100.5 -34.5q65 0 101.5 35t36.5 96t-36.5 96t-101.5 35z" />
    <glyph glyph-name="uni3141" unicode="&#x3141;" vert-adv-y="2263" 
d="M481 1176h901q98 0 136 -36.5t38 -133.5v-687q0 -96 -37.5 -132.5t-136.5 -36.5h-901q-99 0 -136.5 36.5t-37.5 132.5v687q0 97 38 133.5t136 36.5zM621 954q-26 0 -37 -10.5t-11 -36.5v-489q0 -26 11 -36.5t37 -10.5h622q26 0 36.5 10.5t10.5 36.5v489q0 26 -10.5 36.5
t-36.5 10.5h-622z" />
    <glyph glyph-name="uni3142" unicode="&#x3142;" vert-adv-y="2263" 
d="M438 1198q54 0 92.5 -29.5t38.5 -81.5v-227h725v227q0 52 39 81.5t92 29.5q54 0 92.5 -29.5t38.5 -81.5v-768q0 -96 -37.5 -132.5t-136.5 -36.5h-901q-99 0 -136.5 36.5t-37.5 132.5v768q0 52 38.5 81.5t92.5 29.5zM569 641v-225q0 -26 10.5 -36.5t36.5 -10.5h631
q26 0 36.5 10.5t10.5 36.5v225h-725z" />
    <glyph glyph-name="uni3143" unicode="&#x3143;" vert-adv-y="2263" 
d="M348 1198q48 0 82.5 -25t34.5 -73v-238h188v238q0 48 34 73t81 25q48 0 82.5 -25t34.5 -73v-781q0 -102 -34.5 -135.5t-139.5 -33.5h-303q-105 0 -140 33.5t-35 135.5v781q0 48 34 73t81 25zM465 647v-237q0 -26 9.5 -35.5t35.5 -9.5h98q26 0 35.5 9.5t9.5 35.5v237h-188
zM1094 1198q48 0 82 -25t34 -73v-238h189v238q0 48 33.5 73t80.5 25q48 0 82.5 -25t34.5 -73v-781q0 -102 -34.5 -135.5t-139.5 -33.5h-303q-105 0 -139.5 33.5t-34.5 135.5v781q0 48 34 73t81 25zM1210 647v-237q0 -26 9.5 -35.5t35.5 -9.5h99q26 0 35.5 9.5t9.5 35.5v237
h-189z" />
    <glyph glyph-name="uni3144" unicode="&#x3144;" vert-adv-y="2263" 
d="M338 1198q47 0 81 -25t34 -71v-275h202v275q0 46 34 71t81 25t81 -25t34 -71v-783q0 -102 -34.5 -135.5t-139.5 -33.5h-314q-105 0 -139.5 33.5t-34.5 135.5v783q0 46 34 71t81 25zM453 635v-244q0 -26 9.5 -35.5t35.5 -9.5h112q26 0 35.5 9.5t9.5 35.5v244h-202z
M1321 1198q54 0 91.5 -28.5t37.5 -82.5v-239q0 -118 21.5 -186t76.5 -138q84 -105 168 -196q33 -40 30 -80t-36 -74t-76 -38t-80 32q-79 84 -139 158q-48 60 -66.5 91.5t-25.5 71.5h-2q-7 -39 -25.5 -69.5t-68.5 -93.5q-54 -67 -140 -158q-37 -36 -79.5 -32t-75.5 38t-36 74
t30 80q84 91 168 196q55 70 76.5 138t21.5 186v239q0 54 37.5 82.5t91.5 28.5z" />
    <glyph glyph-name="uni3145" unicode="&#x3145;" vert-adv-y="2263" 
d="M932 1214q57 0 95 -28.5t38 -83.5v-182q0 -115 46.5 -197.5t150.5 -149.5q146 -93 358 -213q39 -22 42.5 -71t-20.5 -84q-24 -40 -66.5 -55t-86.5 6q-222 123 -363 215q-88 57 -136 108.5t-56 89.5h-2q-20 -90 -195 -204q-147 -96 -362 -215q-44 -21 -86 -6t-68 57
q-25 37 -20.5 87t43.5 72q212 120 358 213q104 67 150.5 149.5t46.5 197.5v182q0 55 38 83.5t95 28.5z" />
    <glyph glyph-name="uni3146" unicode="&#x3146;" vert-adv-y="2263" 
d="M588 1223q55 0 92 -28t37 -81v-223q0 -120 17 -189.5t65 -136.5q23 -32 96 -112q23 -25 37 -25t37 25q73 80 96 112q48 67 65 136.5t17 189.5v223q0 53 37 81t92 28q54 0 91.5 -28.5t37.5 -80.5v-223q0 -128 22.5 -198t92.5 -148q75 -86 186 -185q34 -32 31 -78t-37 -83
t-76.5 -40.5t-85.5 31.5q-102 92 -145 138q-63 66 -87 104.5t-30 77.5h-2q-5 -37 -24 -73.5t-66 -94.5q-14 -17 -33.5 -37t-32 -32.5t-37 -35t-32.5 -30.5q-55 -51 -117 -51t-117 51q-8 8 -32.5 30.5t-37 35t-32 32.5t-33.5 37q-47 58 -66 94.5t-24 73.5h-2
q-6 -39 -30 -77.5t-87 -104.5q-43 -46 -145 -138q-43 -35 -85.5 -31.5t-76.5 40.5t-37 83t31 78q111 99 186 185q70 78 92.5 148t22.5 198v223q0 52 37.5 80.5t91.5 28.5z" />
    <glyph glyph-name="uni3147" unicode="&#x3147;" vert-adv-y="2263" 
d="M932 1208q294 0 460.5 -141.5t166.5 -394.5t-166.5 -395t-460.5 -142t-460.5 142t-166.5 395t166.5 394.5t460.5 141.5zM932 987q-186 0 -275.5 -86.5t-89.5 -228.5t89.5 -229t275.5 -87t275 87t89 229t-89 228.5t-275 86.5z" />
    <glyph glyph-name="uni3148" unicode="&#x3148;" vert-adv-y="2263" 
d="M379 1190h1106q45 0 68.5 -32.5t23.5 -80.5t-23.5 -80t-68.5 -32h-420v-93q0 -116 42.5 -184.5t149.5 -134.5q165 -104 324 -191q29 -17 40.5 -45t7 -55.5t-18.5 -52.5q-25 -42 -66.5 -59t-85.5 4q-185 102 -332 194q-176 109 -192 182h-2q-9 -39 -56 -83.5t-139 -104.5
q-63 -40 -331 -195q-44 -22 -85.5 -4t-66.5 62q-24 37 -19 85t44 70q228 130 327 193q107 69 150 136.5t43 182.5v93h-420q-45 0 -68.5 32t-23.5 80t23.5 80.5t68.5 32.5z" />
    <glyph glyph-name="uni3149" unicode="&#x3149;" vert-adv-y="2263" 
d="M324 1190h1216q45 0 68.5 -32.5t23.5 -80.5t-23.5 -80t-68.5 -32h-156v-99q0 -118 22.5 -181t88.5 -138q69 -79 168 -168q33 -32 31 -79.5t-35 -82.5q-32 -34 -75.5 -37.5t-84.5 31.5q-54 49 -117 115q-64 67 -90 106.5t-32 75.5h-3q-13 -73 -79 -150q-79 -90 -140 -143
q-46 -41 -106.5 -41t-106.5 41q-56 49 -139 143q-68 78 -80 150h-2q-6 -35 -31.5 -72.5t-91.5 -109.5q-61 -68 -116 -115q-43 -34 -85.5 -31t-74.5 37q-33 35 -35 82.5t31 79.5q88 78 168 168q66 72 88 135.5t22 183.5v99h-155q-45 0 -69 32.5t-24 79.5q0 48 24 80.5
t69 32.5zM733 965v-99q0 -112 15 -172t61 -123q48 -63 82 -100q41 -44 82 0q34 37 82 100q46 63 60.5 123t14.5 172v99h-397z" />
    <glyph glyph-name="uni314A" unicode="&#x314a;" vert-adv-y="2263" 
d="M932 1356q56 0 94.5 -29.5t38.5 -83.5v-121h444q45 0 69 -31.5t24 -78.5t-24 -79t-69 -32h-446v-70q0 -96 38.5 -151.5t143.5 -118.5q119 -71 346 -199q37 -21 44 -66.5t-15 -82.5q-23 -44 -64 -60.5t-86 5.5q-263 148 -344 196q-93 55 -137 97t-55 84h-2
q-9 -45 -55 -89.5t-140 -97.5q-277 -158 -344 -196q-45 -23 -85.5 -5.5t-63.5 62.5q-22 39 -16 85.5t44 67.5q179 101 346 199q105 61 144 117.5t39 152.5v70h-447q-45 0 -68.5 32t-23.5 79t23.5 78.5t68.5 31.5h445v121q0 54 38.5 83.5t94.5 29.5z" />
    <glyph glyph-name="uni314B" unicode="&#x314b;" vert-adv-y="2263" 
d="M379 1190h999q98 0 136 -36.5t38 -133.5v-803q0 -54 -37.5 -82.5t-91.5 -28.5t-91.5 28.5t-37.5 82.5v277l-948 -21q-50 -1 -74 29t-26 80q-2 51 21.5 84.5t70.5 33.5l956 11v207q0 26 -10.5 36.5t-36.5 10.5h-868q-45 0 -68.5 31.5t-23.5 80.5t23.5 81t68.5 32z" />
    <glyph glyph-name="uni314C" unicode="&#x314c;" vert-adv-y="2263" 
d="M502 1178h987q45 0 68.5 -32t23.5 -79t-23.5 -79t-68.5 -32h-858q-26 0 -36.5 -10.5t-10.5 -36.5v-139h884q45 0 69 -31t24 -75q0 -45 -24 -76t-69 -31h-884v-141q0 -26 10.5 -36.5t36.5 -10.5h889q45 0 68.5 -32t23.5 -79t-23.5 -79t-68.5 -32h-1018q-98 0 -136 36.5
t-38 133.5v691q0 97 38 133.5t136 36.5z" />
    <glyph glyph-name="uni314D" unicode="&#x314d;" vert-adv-y="2263" 
d="M342 1171h1182q44 0 67 -30.5t23 -77.5t-23 -78t-67 -31h-162v-587h170q44 0 67 -31t23 -78t-23 -77.5t-67 -30.5h-1198q-44 0 -67 30.5t-23 77.5t23 78t67 31h168v587h-160q-44 0 -67 31t-23 78t23 77.5t67 30.5zM756 954v-587h352v587h-352z" />
    <glyph glyph-name="uni314E" unicode="&#x314e;" vert-adv-y="2263" 
d="M932 788q265 0 416 -94.5t151 -271.5q0 -178 -150.5 -272.5t-416.5 -94.5q-265 0 -416 95t-151 272t151 271.5t416 94.5zM932 586q-164 0 -240 -44t-76 -120t76 -120t240 -44q315 0 315 164t-315 164zM932 1358q56 0 94.5 -29.5t38.5 -83.5v-117h453q45 0 68.5 -31.5
t23.5 -78.5t-23.5 -79t-68.5 -32h-1172q-45 0 -68.5 32t-23.5 79t23.5 78.5t68.5 31.5h453v117q0 54 38.5 83.5t94.5 29.5z" />
    <glyph glyph-name="uni314F" unicode="&#x314f;" vert-adv-y="2263" 
d="M893 1604q55 0 93 -28.5t38 -82.5v-494h254q47 0 70.5 -31.5t23.5 -80.5q0 -51 -23.5 -83t-70.5 -32h-254v-848q0 -54 -38 -82t-93 -28t-93 28t-38 82v1569q0 54 38 82.5t93 28.5z" />
    <glyph glyph-name="uni3150" unicode="&#x3150;" vert-adv-y="2263" 
d="M1161 1604q50 0 85.5 -27t35.5 -76v-1585q0 -49 -35.5 -75.5t-85.5 -26.5t-85.5 26.5t-35.5 75.5v850h-225v-764q0 -49 -35.5 -75.5t-85.5 -26.5q-49 0 -84 26.5t-35 75.5v1479q0 49 35 75.5t84 26.5q50 0 85.5 -26.5t35.5 -75.5v-494h225v514q0 49 35.5 76t85.5 27z" />
    <glyph glyph-name="uni3151" unicode="&#x3151;" vert-adv-y="2263" 
d="M893 1604q55 0 93 -28.5t38 -82.5v-262h236q47 0 70.5 -32t23.5 -81t-23.5 -80.5t-70.5 -31.5h-236v-238h236q47 0 70.5 -32t23.5 -81t-23.5 -80.5t-70.5 -31.5h-236v-619q0 -54 -38 -82t-93 -28t-93 28t-38 82v1569q0 54 38 82.5t93 28.5z" />
    <glyph glyph-name="uni3152" unicode="&#x3152;" vert-adv-y="2263" 
d="M1159 1604q50 0 85.5 -27t35.5 -76v-1585q0 -49 -35.5 -75.5t-85.5 -26.5q-49 0 -84 26.5t-35 75.5v625h-227v-541q0 -48 -35.5 -74t-83.5 -26t-83.5 26t-35.5 74v1483q0 48 35.5 74t83.5 26t83.5 -26t35.5 -74v-271h227v289q0 49 35.5 76t83.5 27zM813 993v-233h227v233
h-227z" />
    <glyph glyph-name="uni3153" unicode="&#x3153;" vert-adv-y="2263" 
d="M1098 1604q54 0 91.5 -28.5t37.5 -82.5v-1569q0 -54 -37.5 -82t-91.5 -28q-55 0 -93 28t-38 82v852h-258q-45 0 -69 32t-24 79q0 49 24 80.5t69 31.5h258v494q0 54 38 82.5t93 28.5z" />
    <glyph glyph-name="uni3154" unicode="&#x3154;" vert-adv-y="2263" 
d="M1278 1604q50 0 85.5 -27t35.5 -76v-1585q0 -49 -35.5 -75.5t-85.5 -26.5t-85.5 26.5t-35.5 75.5v1585q0 49 35.5 76t85.5 27zM905 1583q49 0 84 -26.5t35 -75.5v-1479q0 -49 -35 -75.5t-84 -26.5q-50 0 -85.5 26.5t-35.5 75.5v780h-206q-45 0 -69 32t-24 79q0 49 24 81
t69 32h206v475q0 49 35.5 75.5t85.5 26.5z" />
    <glyph glyph-name="uni3155" unicode="&#x3155;" vert-adv-y="2263" 
d="M1098 1604q54 0 91.5 -28.5t37.5 -82.5v-1569q0 -54 -37.5 -82t-91.5 -28t-91.5 28t-37.5 82v621h-244q-45 0 -67.5 31.5t-22.5 80.5q0 48 22.5 79.5t67.5 31.5h244v240h-244q-45 0 -67.5 31.5t-22.5 80.5q0 48 22.5 79.5t67.5 31.5h244v262q0 54 37.5 82.5t91.5 28.5z
" />
    <glyph glyph-name="uni3156" unicode="&#x3156;" vert-adv-y="2263" 
d="M1276 1604q50 0 85.5 -27t35.5 -76v-1585q0 -49 -35.5 -75.5t-85.5 -26.5t-85.5 26.5t-35.5 75.5v1585q0 49 35.5 76t85.5 27zM911 1583q49 0 84 -26.5t35 -75.5v-1479q0 -49 -35 -75.5t-84 -26.5q-50 0 -85 26.5t-35 75.5v541h-213q-45 0 -69 31.5t-24 78.5q0 49 24 81
t69 32h213v240h-213q-45 0 -69 31.5t-24 78.5q0 49 24 81t69 32h213v252q0 49 35 75.5t85 26.5z" />
    <glyph glyph-name="uni3157" unicode="&#x3157;" vert-adv-y="2263" 
d="M932 1063q55 0 93 -28.5t38 -82.5v-581h643q45 0 68.5 -32t23.5 -79t-23.5 -78.5t-68.5 -31.5h-1548q-45 0 -68.5 31.5t-23.5 78.5t23.5 79t68.5 32h643v581q0 54 38 82.5t93 28.5z" />
    <glyph glyph-name="uni3158" unicode="&#x3158;" vert-adv-y="2263" 
d="M1452 1604q55 0 92 -28t37 -81v-557h166q47 0 70.5 -32t23.5 -81q0 -51 -23.5 -82.5t-70.5 -31.5h-166v-789q0 -53 -37 -80.5t-92 -27.5t-92 27.5t-37 80.5v1573q0 53 37 81t92 28zM651 922q55 0 92 -28t37 -81v-401q163 5 365 22q45 4 70 -23.5t28 -74.5t-17 -81
t-63 -38q-402 -35 -1011 -35q-45 0 -69 32t-24 79t24 78.5t69 31.5q182 0 370 3v407q0 53 37 81t92 28z" />
    <glyph glyph-name="uni3159" unicode="&#x3159;" vert-adv-y="2263" 
d="M1653 1604q50 0 85.5 -27t35.5 -76v-1585q0 -49 -35.5 -75.5t-85.5 -26.5t-85.5 26.5t-35.5 75.5v789h-143v-703q0 -49 -35.5 -75.5t-85.5 -26.5q-49 0 -84 26.5t-35 75.5v1479q0 49 35 75.5t84 26.5q50 0 85.5 -26.5t35.5 -75.5v-555h143v575q0 49 35.5 76t85.5 27z
M592 918q54 0 89.5 -28t35.5 -81v-367q115 2 276 13q45 3 70 -25.5t27 -75.5t-19.5 -79t-64.5 -35q-364 -23 -820 -23q-45 0 -68.5 32t-23.5 79q0 46 23.5 77t68.5 31q187 0 281 2v371q0 53 35.5 81t89.5 28z" />
    <glyph glyph-name="uni315A" unicode="&#x315a;" vert-adv-y="2263" 
d="M1542 1604q54 0 91.5 -28.5t37.5 -82.5v-1569q0 -54 -37.5 -82t-91.5 -28q-55 0 -93 28t-38 82v1569q0 54 38 82.5t93 28.5zM702 922q55 0 92 -28t37 -81v-399q203 6 402 24q45 4 70 -23.5t28 -74.5t-17 -81t-63 -38q-424 -39 -1071 -39q-45 0 -68.5 32t-23.5 79
t23.5 78.5t68.5 31.5q194 0 393 3v407q0 53 37 81t92 28z" />
    <glyph glyph-name="uni315B" unicode="&#x315b;" vert-adv-y="2263" 
d="M643 1063q55 0 92 -28.5t37 -82.5v-583h320v583q0 54 37 82.5t92 28.5t92 -28.5t37 -82.5v-583h356q45 0 68.5 -31.5t23.5 -77.5q0 -47 -23.5 -78.5t-68.5 -31.5h-1548q-45 0 -68.5 31.5t-23.5 78.5q0 46 23.5 77.5t68.5 31.5h356v583q0 54 37 82.5t92 28.5z" />
    <glyph glyph-name="uni315C" unicode="&#x315c;" vert-adv-y="2263" 
d="M158 784h1548q45 0 68.5 -31.5t23.5 -78.5t-23.5 -79t-68.5 -32h-643v-596q0 -54 -38 -82t-93 -28t-93 28t-38 82v596h-643q-45 0 -68.5 32t-23.5 79t23.5 78.5t68.5 31.5z" />
    <glyph glyph-name="uni315D" unicode="&#x315d;" vert-adv-y="2263" 
d="M1542 1604q54 0 91.5 -28.5t37.5 -82.5v-1569q0 -54 -37.5 -82t-91.5 -28q-55 0 -93 28t-38 82v244h-274q-44 0 -67 30.5t-23 77.5t23 78t67 31h274v1108q0 54 38 82.5t93 28.5zM1231 748q45 4 71 -23t29 -74t-17 -81t-63 -38q-160 -16 -430 -26v-561q0 -54 -37.5 -82.5
t-91.5 -28.5t-91.5 28.5t-37.5 82.5v553q-127 -4 -383 -4q-45 0 -68.5 31.5t-23.5 78.5q0 46 23.5 77.5t68.5 31.5q663 0 1051 35z" />
    <glyph glyph-name="uni315E" unicode="&#x315e;" vert-adv-y="2263" 
d="M1243 1583q48 0 83.5 -26t35.5 -74v-1503q0 -48 -35.5 -74.5t-83.5 -26.5t-83.5 26.5t-35.5 74.5v249h-188q-44 0 -67 31t-23 78q0 46 23 76t67 30h188v1039q0 48 35.5 74t83.5 26zM1597 1604q50 0 85.5 -27t35.5 -76v-1585q0 -49 -35.5 -75.5t-85.5 -26.5
q-48 0 -83 26.5t-35 75.5v1585q0 49 35 76t83 27zM969 766q45 3 69.5 -25t26.5 -75q2 -46 -19.5 -78t-64.5 -35q-192 -12 -291 -14v-529q0 -53 -37.5 -81.5t-89.5 -28.5t-89.5 28.5t-37.5 81.5v522q-100 -2 -305 -2q-45 0 -68.5 31.5t-23.5 77.5t23.5 77.5t68.5 31.5
q494 0 838 18z" />
    <glyph glyph-name="uni315F" unicode="&#x315f;" vert-adv-y="2263" 
d="M1542 1604q54 0 91.5 -28.5t37.5 -82.5v-1569q0 -54 -37.5 -82t-91.5 -28q-55 0 -93 28t-38 82v1569q0 54 38 82.5t93 28.5zM1231 698q45 4 71 -22.5t29 -73.5t-17 -81t-63 -38q-215 -18 -411 -26v-512q0 -54 -37.5 -82.5t-91.5 -28.5q-55 0 -93 28.5t-38 82.5v504
q-328 -5 -400 -5q-45 0 -68.5 32t-23.5 79q0 46 23.5 77.5t68.5 31.5q674 0 1051 34z" />
    <glyph glyph-name="uni3160" unicode="&#x3160;" vert-adv-y="2263" 
d="M158 784h1548q45 0 68.5 -31.5t23.5 -78.5q0 -46 -23.5 -77.5t-68.5 -31.5h-360v-590q0 -53 -36.5 -80.5t-88.5 -27.5q-54 0 -90.5 27t-36.5 81v590h-324v-590q0 -53 -36.5 -80.5t-88.5 -27.5q-54 0 -90.5 27t-36.5 81v590h-360q-45 0 -68.5 31.5t-23.5 77.5
q0 47 23.5 78.5t68.5 31.5z" />
    <glyph glyph-name="uni3161" unicode="&#x3161;" vert-adv-y="2263" 
d="M158 434h1548q45 0 68.5 -31.5t23.5 -80.5q0 -47 -23.5 -79t-68.5 -32h-1548q-45 0 -68.5 32t-23.5 79q0 49 23.5 80.5t68.5 31.5z" />
    <glyph glyph-name="uni3162" unicode="&#x3162;" vert-adv-y="2263" 
d="M1542 1604q54 0 91.5 -28.5t37.5 -82.5v-1569q0 -54 -37.5 -82t-91.5 -28q-55 0 -93 28t-38 82v1569q0 54 38 82.5t93 28.5zM1233 449q45 4 70 -24t28 -75q3 -48 -17 -82.5t-63 -38.5q-424 -39 -1071 -39q-45 0 -68.5 32t-23.5 81q0 47 23.5 79t68.5 32q665 0 1053 35z
" />
    <glyph glyph-name="uni3163" unicode="&#x3163;" vert-adv-y="2263" 
d="M930 1604q57 0 95 -28.5t38 -82.5v-1569q0 -54 -38 -82t-95 -28q-55 0 -93 28t-38 82v1569q0 54 38 82.5t93 28.5z" />
    <glyph glyph-name="uni3165" unicode="&#x3165;" vert-adv-y="2263" 
d="M403 1182q56 0 94 -28.5t38 -82.5v-649q0 -26 10.5 -36.5t36.5 -10.5h223q45 0 68.5 -32t23.5 -81q0 -47 -23.5 -78.5t-68.5 -31.5h-359q-98 0 -136 36.5t-38 133.5v749q0 54 37.5 82.5t93.5 28.5zM1085 1182q56 0 94 -28.5t38 -82.5v-649q0 -26 10.5 -36.5t36.5 -10.5
h252q45 0 68.5 -32t23.5 -81q0 -47 -23.5 -78.5t-68.5 -31.5h-388q-98 0 -136 36.5t-38 133.5v749q0 54 37.5 82.5t93.5 28.5z" />
    <glyph glyph-name="uni3166" unicode="&#x3166;" vert-adv-y="2263" 
d="M403 1182q56 0 94 -28.5t38 -82.5v-649q0 -26 10.5 -36.5t36.5 -10.5h223q45 0 68.5 -32t23.5 -81q0 -47 -23.5 -78.5t-68.5 -31.5h-359q-98 0 -136 36.5t-38 133.5v749q0 54 37.5 82.5t93.5 28.5zM1128 1171h367q45 0 68.5 -31.5t23.5 -78.5t-23.5 -79t-68.5 -32h-229
q-26 0 -36.5 -10.5t-10.5 -36.5v-483q0 -26 10.5 -36.5t36.5 -10.5h250q45 0 68.5 -32t23.5 -79t-23.5 -78.5t-68.5 -31.5h-388q-98 0 -136 36.5t-38 133.5v679q0 97 38 133.5t136 36.5z" />
    <glyph glyph-name="uni3167" unicode="&#x3167;" vert-adv-y="2263" 
d="M311 1182q56 0 93.5 -28.5t37.5 -82.5v-649q0 -26 10.5 -36.5t36.5 -10.5h203q45 0 68.5 -32t23.5 -81q0 -47 -23.5 -78.5t-68.5 -31.5h-338q-98 0 -136 36.5t-38 133.5v749q0 54 37.5 82.5t93.5 28.5zM1235 1188q54 0 91.5 -28.5t37.5 -82.5v-229q0 -118 21.5 -186
t76.5 -138q84 -105 168 -196q33 -40 30 -80t-36 -74t-76 -38t-80 32q-79 84 -139 158q-80 101 -92 153h-2q-11 -49 -94 -153q-54 -67 -140 -158q-37 -36 -79.5 -32t-75.5 38t-36 74t30 80q84 91 168 196q55 70 76.5 138t21.5 186v229q0 54 37.5 82.5t91.5 28.5z" />
    <glyph glyph-name="uni3168" unicode="&#x3168;" vert-adv-y="2263" 
d="M356 1182q56 0 93.5 -28.5t37.5 -82.5v-649q0 -26 11 -36.5t37 -10.5h202q45 0 68.5 -32t23.5 -81q0 -47 -23.5 -78.5t-68.5 -31.5h-338q-98 0 -136 36.5t-38 133.5v749q0 54 37.5 82.5t93.5 28.5zM1255 788q-13 0 -20 -26l-92 -340q-9 -34 2 -47q13 -13 41 -13h139
q28 0 41 13q11 13 2 47l-92 340q-6 26 -21 26zM1255 1255q25 0 46 -16t30 -45l283 -926q20 -61 -6 -90q-20 -26 -80 -26h-545q-60 0 -80 26q-26 29 -6 90l283 926q9 29 29.5 45t45.5 16z" />
    <glyph glyph-name="uni3169" unicode="&#x3169;" vert-adv-y="2263" 
d="M1427 1186q52 0 84.5 -28t32.5 -83v-198q0 -126 14.5 -198t55.5 -136q84 -127 164 -224q29 -35 29 -75t-31 -72q-30 -33 -76.5 -33t-79.5 39q-64 76 -129 166q-44 62 -61 121h-3q-19 -59 -63 -121q-65 -90 -129 -166q-33 -39 -79.5 -39t-76.5 33h-2q-29 -29 -82 -29
q-52 0 -82 28t-30 83v655q0 26 -10.5 36.5t-36.5 10.5h-115q-45 0 -68.5 32t-23.5 79q0 49 23.5 81t68.5 32h221q97 0 131.5 -36t34.5 -134v-654q67 88 133 187q41 64 55.5 136t14.5 198v198q0 55 32 83t84 28zM143 1180h263q105 0 139.5 -33.5t34.5 -136.5v-271
q0 -103 -35 -138.5t-139 -35.5h-70q-26 0 -36.5 -10.5t-10.5 -36.5v-106q0 -26 10.5 -36.5t36.5 -10.5h250q42 0 64 -31.5t22 -75.5q0 -45 -22 -75.5t-64 -30.5h-350q-100 0 -137.5 36t-37.5 134v272q0 102 35 136t140 34h69q26 0 36.5 11t10.5 38v107q0 26 -10.5 36.5
t-36.5 10.5h-162q-42 0 -64 30.5t-22 75.5q0 44 22 75.5t64 31.5z" />
    <glyph glyph-name="uni316A" unicode="&#x316a;" vert-adv-y="2263" 
d="M334 1176h381q105 0 139.5 -33.5t34.5 -136.5v-273q0 -103 -34.5 -136.5t-139.5 -33.5h-178q-26 0 -37 -10.5t-11 -36.5v-106q0 -26 11 -37t37 -11h307q42 0 64 -31t22 -75q0 -45 -22 -75.5t-64 -30.5h-418q-100 0 -137 35.5t-37 133.5v273q0 103 34.5 136.5t139.5 33.5
h178q26 0 36.5 11t10.5 38v104q0 26 -10.5 37t-36.5 11h-270q-42 0 -64 30.5t-22 75.5q0 44 22 75.5t64 31.5zM1159 1176h357q45 0 68.5 -32t23.5 -79t-23.5 -79t-68.5 -32h-220q-26 0 -36.5 -10.5t-10.5 -36.5v-487q0 -26 10.5 -36.5t36.5 -10.5h250q45 0 68.5 -32
t23.5 -79t-23.5 -78.5t-68.5 -31.5h-387q-98 0 -136 36.5t-38 133.5v684q0 97 38 133.5t136 36.5z" />
    <glyph glyph-name="uni316B" unicode="&#x316b;" vert-adv-y="2263" 
d="M1427 1186q52 0 84.5 -28t32.5 -83v-198q0 -126 14.5 -198t55.5 -136q84 -127 164 -224q29 -35 29 -75t-31 -72q-30 -33 -76.5 -33t-79.5 39q-64 76 -129 166q-44 62 -61 121h-3q-19 -59 -63 -121q-65 -90 -129 -166q-33 -38 -78.5 -39t-75.5 31q-34 -20 -123 -20h-194
q-105 0 -139.5 33.5t-34.5 135.5v783q0 48 29 72t75 24q48 0 77.5 -24t29.5 -72v-240h121v240q0 48 29 72t75 24q48 0 77.5 -24t29.5 -72v-713l108 154q41 64 55.5 136t14.5 198v198q0 55 32 83t84 28zM121 1180h237q105 0 139.5 -33.5t34.5 -136.5v-271q0 -102 -33 -136
t-130 -34h-60q-26 0 -36.5 -10.5t-10.5 -36.5v-121q0 -26 10.5 -36.5t36.5 -10.5h170q42 0 64 -29.5t22 -72.5q0 -44 -22 -73t-64 -29h-266q-100 0 -137 35.5t-37 133.5v271q0 102 33.5 136t130.5 34h59q26 0 36.5 11t10.5 38v119q0 26 -10.5 36.5t-36.5 10.5h-141
q-42 0 -64 29t-22 73q0 43 22 73t64 30zM801 647v-237q0 -26 9.5 -35.5t35.5 -9.5h31q26 0 35.5 9.5t9.5 35.5v237h-121z" />
    <glyph glyph-name="uni316C" unicode="&#x316c;" vert-adv-y="2263" 
d="M297 1176h381q105 0 139.5 -33.5t34.5 -136.5v-273q0 -103 -34.5 -136.5t-139.5 -33.5h-178q-26 0 -36.5 -10.5t-10.5 -36.5v-106q0 -26 10.5 -37t36.5 -11h295q42 0 64 -31t22 -75q0 -45 -22 -75.5t-64 -30.5h-406q-100 0 -137 35.5t-37 133.5v273q0 103 34.5 136.5
t139.5 33.5h178q26 0 36.5 11t10.5 38v104q0 26 -10.5 37t-36.5 11h-270q-42 0 -64 30.5t-22 75.5q0 44 22 75.5t64 31.5zM1276 788q-14 0 -21 -26l-92 -340q-9 -34 2 -47q13 -13 41 -13h140q27 0 40 13q12 14 3 47l-93 340q-6 26 -20 26zM1276 1255q25 0 46 -16t30 -45
l282 -926q20 -61 -6 -90q-20 -26 -80 -26h-544q-60 0 -80 26q-26 29 -6 90l282 926q9 29 30 45t46 16z" />
    <glyph glyph-name="uni316D" unicode="&#x316d;" vert-adv-y="2263" 
d="M301 1176h371q105 0 139.5 -33.5t34.5 -136.5v-269q0 -103 -34.5 -136.5t-139.5 -33.5h-174q-26 0 -36.5 -10.5t-10.5 -36.5v-119q0 -26 10.5 -36.5t36.5 -10.5h333q42 0 64.5 -29.5t22.5 -72.5q0 -44 -22.5 -73t-64.5 -29h-438q-100 0 -137 35.5t-37 133.5v269
q0 103 34.5 136.5t139.5 33.5h174q26 0 36.5 11t10.5 38v117q0 26 -10.5 36.5t-36.5 10.5h-266q-42 0 -64 29t-22 73q0 43 22 73t64 30zM1294 834q171 0 266 -97.5t95 -267.5t-95 -267.5t-266 -97.5q-170 0 -265 97.5t-95 267.5t95 267.5t265 97.5zM1006 1174h575
q45 0 68.5 -30t23.5 -77q0 -45 -23.5 -74.5t-68.5 -29.5h-575q-45 0 -69 29.5t-24 74.5q0 47 24 77t69 30zM1294 637q-65 0 -101 -44.5t-36 -123.5t36 -123.5t101 -44.5t101.5 44.5t36.5 123.5q0 83 -36 125.5t-102 42.5z" />
    <glyph glyph-name="uni316E" unicode="&#x316e;" vert-adv-y="2263" 
d="M420 1176h295q98 0 136 -36.5t38 -133.5v-689q0 -97 -38 -133.5t-136 -36.5h-295q-98 0 -136 36.5t-38 133.5v689q0 97 38 133.5t136 36.5zM539 954q-26 0 -36.5 -10.5t-10.5 -36.5v-491q0 -26 10.5 -36.5t36.5 -10.5h71q26 0 36.5 10.5t10.5 36.5v491q0 26 -10.5 36.5
t-36.5 10.5h-71zM1094 1198q48 0 82 -25t34 -73v-238h189v238q0 48 33.5 73t80.5 25q48 0 82.5 -25t34.5 -73v-781q0 -102 -34.5 -135.5t-139.5 -33.5h-303q-105 0 -139.5 33.5t-34.5 135.5v781q0 48 34 73t81 25zM1210 647v-237q0 -26 9.5 -35.5t35.5 -9.5h99
q26 0 35.5 9.5t9.5 35.5v237h-189z" />
    <glyph glyph-name="uni316F" unicode="&#x316f;" vert-adv-y="2263" 
d="M350 1176h316q98 0 136 -36.5t38 -133.5v-689q0 -97 -38 -133.5t-136 -36.5h-316q-98 0 -136 36.5t-38 133.5v689q0 97 38 133.5t136 36.5zM469 956q-26 0 -36.5 -10.5t-10.5 -36.5v-493q0 -26 10.5 -36.5t36.5 -10.5h92q26 0 36.5 10.5t10.5 36.5v493q0 26 -10.5 36.5
t-36.5 10.5h-92zM1270 1188q54 0 91.5 -28.5t37.5 -82.5v-229q0 -118 21.5 -186t76.5 -138q84 -105 168 -196q33 -40 30 -80t-36 -74t-76 -38t-80 32q-79 84 -139 158q-80 101 -92 153h-2q-11 -49 -94 -153q-54 -67 -140 -158q-37 -36 -79.5 -32t-75.5 38t-36.5 74t29.5 80
q84 91 168 196q55 71 77 139t22 185v229q0 54 37.5 82.5t91.5 28.5z" />
    <glyph glyph-name="uni3170" unicode="&#x3170;" vert-adv-y="2263" 
d="M377 1176h315q98 0 136 -36.5t38 -133.5v-689q0 -97 -38 -133.5t-136 -36.5h-315q-98 0 -136 36.5t-38 133.5v689q0 97 38 133.5t136 36.5zM496 954q-26 0 -36.5 -10.5t-10.5 -36.5v-491q0 -26 10.5 -36.5t36.5 -10.5h92q26 0 36.5 10.5t10.5 36.5v491q0 26 -10.5 36.5
t-36.5 10.5h-92zM1272 788q-14 0 -21 -26l-92 -340q-9 -34 2 -47q13 -13 41 -13h139q28 0 41 13q11 13 2 47l-92 340q-6 26 -20 26zM1272 1255q25 0 46 -16t30 -45l282 -926q20 -61 -6 -90q-20 -26 -80 -26h-545q-59 0 -79 26q-27 30 -7 90l283 926q9 29 30 45t46 16z" />
    <glyph glyph-name="uni3171" unicode="&#x3171;" vert-adv-y="2263" 
d="M600 1417h662q98 0 136 -36.5t38 -133.5v-454q0 -97 -38 -133.5t-136 -36.5h-662q-98 0 -136 36.5t-38 133.5v454q0 97 38 133.5t136 36.5zM717 1208q-26 0 -36.5 -10.5t-10.5 -36.5v-282q0 -26 10.5 -37t36.5 -11h428q26 0 36.5 11t10.5 37v282q0 26 -10.5 36.5
t-36.5 10.5h-428zM932 545q178 0 276.5 -82t98.5 -217t-98.5 -217t-276.5 -82t-276.5 82t-98.5 217t98.5 217t276.5 82zM932 362q-79 0 -118.5 -32.5t-39.5 -83.5t39.5 -84t118.5 -33t117 33t38 84t-38 83.5t-117 32.5z" />
    <glyph glyph-name="uni3172" unicode="&#x3172;" vert-adv-y="2263" 
d="M1085 1176h357q105 0 139.5 -33.5t34.5 -136.5v-777q0 -54 -37.5 -82t-91.5 -28t-91.5 28t-37.5 82v662q0 63 -47 63h-226q-45 0 -68.5 32t-23.5 79t23.5 79t68.5 32zM348 1198q48 0 82.5 -25t34.5 -73v-242h221v242q0 48 34 73t81 25q48 0 82.5 -25t34.5 -73v-781
q0 -102 -35 -135.5t-140 -33.5h-335q-105 0 -140 33.5t-35 135.5v781q0 48 34 73t81 25zM465 643v-233q0 -26 9.5 -35.5t35.5 -9.5h131q26 0 35.5 9.5t9.5 35.5v233h-221z" />
    <glyph glyph-name="uni3173" unicode="&#x3173;" vert-adv-y="2263" 
d="M362 1198q48 0 82.5 -25t34.5 -73v-242h187v242q0 48 33.5 73t80.5 25q48 0 82.5 -25t34.5 -73v-781q0 -102 -34.5 -135.5t-139.5 -33.5h-301q-105 0 -139.5 33.5t-34.5 135.5v781q0 48 33.5 73t80.5 25zM479 643v-233q0 -26 9.5 -35.5t35.5 -9.5h97q26 0 35.5 9.5
t9.5 35.5v233h-187zM1171 1176h322q45 0 68.5 -32t23.5 -79t-23.5 -79t-68.5 -32h-195q-26 0 -36.5 -10.5t-10.5 -36.5v-487q0 -26 10.5 -36.5t36.5 -10.5h215q45 0 69 -32t24 -79t-24 -78.5t-69 -31.5h-342q-98 0 -136 36.5t-38 133.5v684q0 97 38 133.5t136 36.5z" />
    <glyph glyph-name="uni3174" unicode="&#x3174;" vert-adv-y="2263" 
d="M991 1186q52 0 84.5 -28t32.5 -83v-198q0 -126 14.5 -198t55.5 -136q88 -133 163 -224q29 -35 29 -75t-31 -72q-30 -33 -76 -33t-79 39q-64 76 -129 166q-45 64 -62 121h-2q-19 -59 -63 -121q-65 -90 -129 -166q-33 -38 -78.5 -39t-75.5 31q-34 -20 -123 -20h-217
q-105 0 -139.5 33.5t-34.5 135.5v771q0 48 29.5 72t75.5 24q47 0 76.5 -24t29.5 -72v-232h143v232q0 48 29.5 72t75.5 24q47 0 76.5 -24t29.5 -72v-701l109 154q41 64 55 135.5t14 198.5v198q0 55 32.5 83t84.5 28zM1294 1176h256q97 0 131.5 -36t34.5 -134v-752
q0 -55 -30 -83t-82 -28t-82.5 28t-30.5 83v651q0 26 -10.5 36.5t-36.5 10.5h-150q-45 0 -68.5 32t-23.5 79q0 49 23.5 81t68.5 32zM342 643v-233q0 -26 9.5 -35.5t35.5 -9.5h53q26 0 35.5 9.5t9.5 35.5v233h-143z" />
    <glyph glyph-name="uni3175" unicode="&#x3175;" vert-adv-y="2263" 
d="M1425 1176h183q45 0 68.5 -32t23.5 -79t-23.5 -79t-68.5 -32h-82q-26 0 -36.5 -10.5t-10.5 -36.5v-487q0 -26 10.5 -36.5t36.5 -10.5h102q45 0 68.5 -32t23.5 -79t-23.5 -78.5t-68.5 -31.5h-203q-86 0 -125 24l-4 -4q-30 -33 -76 -33t-79 39q-17 20 -125 170
q-51 73 -66 125h-2q-14 -50 -67 -125q-108 -150 -125 -170q-31 -37 -75.5 -39t-74.5 27q-36 -16 -114 -16h-193q-105 0 -139.5 33.5t-34.5 135.5v771q0 48 29 72t75 24q47 0 77 -24t30 -72v-232h119v232q0 48 29 72t75 24q47 0 77 -24t30 -72v-691l96 144q41 64 55 135.5
t14 198.5v198q0 55 32.5 83t84.5 28t84.5 -28t32.5 -83v-198q0 -126 14.5 -198t55.5 -136q114 -170 116 -172v635q0 97 38 133.5t136 36.5zM336 643v-233q0 -26 9.5 -35.5t35.5 -9.5h29q26 0 35.5 9.5t9.5 35.5v233h-119z" />
    <glyph glyph-name="uni3176" unicode="&#x3176;" vert-adv-y="2263" 
d="M993 1176h590q44 0 67 -31t23 -78t-23 -78t-67 -31h-170v-163q0 -143 86 -265q69 -100 156 -204q64 -77 4 -152q-31 -39 -78 -45.5t-86 31.5q-18 18 -36.5 42.5t-42.5 59t-32 45.5q-77 104 -94 176h-2q-16 -68 -96 -176q-90 -123 -111 -147q-37 -39 -84.5 -32t-78.5 46
q-30 36 -29 76.5t33 75.5q62 69 155 204q86 122 86 265v163h-170q-44 0 -67 31t-23 78t23 78t67 31zM324 1198q48 0 82 -25t34 -73v-242h203v242q0 48 34 73t81 25q48 0 82 -25t34 -73v-781q0 -102 -34.5 -135.5t-139.5 -33.5h-317q-105 0 -139.5 33.5t-34.5 135.5v781
q0 48 34 73t81 25zM440 643v-233q0 -26 9.5 -35.5t35.5 -9.5h113q26 0 35.5 9.5t9.5 35.5v233h-203z" />
    <glyph glyph-name="uni3177" unicode="&#x3177;" vert-adv-y="2263" 
d="M362 1198q48 0 82.5 -25t34.5 -73v-242h187v242q0 48 33.5 73t80.5 25q48 0 82.5 -25t34.5 -73v-781q0 -102 -34.5 -135.5t-139.5 -33.5h-301q-105 0 -139.5 33.5t-34.5 135.5v781q0 48 33.5 73t80.5 25zM479 643v-233q0 -26 9.5 -35.5t35.5 -9.5h97q26 0 35.5 9.5
t9.5 35.5v233h-187zM1174 1176h329q40 0 62 -29t22 -70t-21.5 -69.5t-62.5 -28.5h-246q-30 0 -30 -31v-190h260q39 0 59.5 -28t20.5 -68t-20.5 -67.5t-59.5 -27.5h-260v-190q0 -31 30 -31h267q41 0 62.5 -28.5t21.5 -69.5t-21.5 -69.5t-62.5 -28.5h-350q-105 0 -140 33.5
t-35 135.5v687q0 102 35 136t140 34z" />
    <glyph glyph-name="uni3178" unicode="&#x3178;" vert-adv-y="2263" 
d="M547 1442q52 0 86.5 -29t34.5 -82v-110h526v110q0 53 34.5 82t86.5 29t86.5 -29t34.5 -82v-522q0 -97 -38 -133.5t-136 -36.5h-662q-98 0 -136 36.5t-38 133.5v522q0 53 34.5 82t86.5 29zM668 1018v-129q0 -26 10.5 -36.5t36.5 -10.5h432q26 0 36.5 10.5t10.5 36.5v129
h-526zM932 545q178 0 276.5 -82t98.5 -217t-98.5 -217t-276.5 -82t-276.5 82t-98.5 217t98.5 217t276.5 82zM932 362q-79 0 -118.5 -32.5t-39.5 -83.5t39.5 -84t118.5 -33t117 33t38 84t-38 83.5t-117 32.5z" />
    <glyph glyph-name="uni3179" unicode="&#x3179;" vert-adv-y="2263" 
d="M442 1409q47 0 76 -24.5t29 -73.5v-123h145v123q0 49 28.5 73.5t74.5 24.5q47 0 75.5 -24.5t28.5 -73.5v-508q0 -103 -34.5 -136.5t-139.5 -33.5h-211q-105 0 -139.5 33.5t-34.5 136.5v508q0 49 28.5 73.5t73.5 24.5zM547 999v-133q0 -26 9.5 -35.5t35.5 -9.5h55
q26 0 35.5 9.5t9.5 35.5v133h-145zM1071 1409q47 0 76 -24.5t29 -73.5v-123h143v123q0 49 28.5 73.5t73.5 24.5q47 0 76 -24.5t29 -73.5v-508q0 -103 -34.5 -136.5t-139.5 -33.5h-209q-105 0 -139.5 33.5t-34.5 136.5v508q0 49 28.5 73.5t73.5 24.5zM1176 999v-133
q0 -26 9.5 -35.5t35.5 -9.5h53q26 0 35.5 9.5t9.5 35.5v133h-143zM932 545q178 0 276.5 -82t98.5 -217t-98.5 -217t-276.5 -82t-276.5 82t-98.5 217t98.5 217t276.5 82zM932 362q-79 0 -118.5 -32.5t-39.5 -83.5t39.5 -84t118.5 -33t117 33t38 84t-38 83.5t-117 32.5z" />
    <glyph glyph-name="uni317A" unicode="&#x317a;" vert-adv-y="2263" 
d="M1030 1165h428q105 0 139.5 -33.5t34.5 -136.5v-762q0 -54 -37.5 -82t-91.5 -28t-91.5 28t-37.5 82v648q0 63 -47 63h-297q-45 0 -68.5 32t-23.5 79t23.5 78.5t68.5 31.5zM676 1188q54 0 91.5 -28.5t37.5 -82.5v-229q0 -118 21.5 -186t76.5 -138q84 -105 168 -196
q33 -40 30 -80t-36 -74t-76 -38t-80 32q-79 84 -139 158q-80 101 -92 153h-2q-11 -49 -94 -153q-54 -67 -140 -158q-37 -36 -79.5 -32t-75.5 38t-36 74t30 80q84 91 168 196q55 70 76.5 138t21.5 186v229q0 54 37.5 82.5t91.5 28.5z" />
    <glyph glyph-name="uni317B" unicode="&#x317b;" vert-adv-y="2263" 
d="M612 1188q54 0 91.5 -28.5t37.5 -82.5v-229q0 -117 22 -185t77 -139q84 -105 168 -196l18 -27v776q0 54 37.5 82.5t93.5 28.5t93.5 -28.5t37.5 -82.5v-655q0 -26 10.5 -36.5t36.5 -10.5h252q45 0 68.5 -32t23.5 -81q0 -47 -23.5 -78.5t-68.5 -31.5h-387q-74 0 -112.5 18
t-51.5 63q-9 -30 -35 -59q-33 -34 -75.5 -38t-79.5 32q-79 84 -139 158q-45 57 -65.5 89.5t-27.5 63.5h-2q-11 -49 -94 -153q-60 -74 -139 -158q-37 -36 -80 -32t-76 38t-36 74t30 80q84 91 168 196q55 70 76.5 138t21.5 186v229q0 54 37.5 82.5t91.5 28.5z" />
    <glyph glyph-name="uni317C" unicode="&#x317c;" vert-adv-y="2263" 
d="M612 1188q54 0 91.5 -28.5t37.5 -82.5v-229q0 -117 22 -185t77 -139q84 -105 168 -196l18 -27v705q0 97 38 133.5t136 36.5h356q45 0 69 -32t24 -79t-24 -79t-69 -32h-229q-26 0 -36.5 -10.5t-10.5 -36.5v-487q0 -26 10.5 -36.5t36.5 -10.5h250q45 0 68.5 -32t23.5 -79
t-23.5 -78.5t-68.5 -31.5h-377q-73 0 -112 19.5t-52 64.5q-8 -32 -35 -62q-33 -34 -75.5 -38t-79.5 32q-79 84 -139 158q-45 57 -65.5 89.5t-27.5 63.5h-2q-11 -49 -94 -153q-60 -74 -139 -158q-37 -36 -80 -32t-76 38t-36 74t30 80q84 91 168 196q55 70 76.5 138t21.5 186
v229q0 54 37.5 82.5t91.5 28.5z" />
    <glyph glyph-name="uni317D" unicode="&#x317d;" vert-adv-y="2263" 
d="M612 1188q54 0 91.5 -28.5t37.5 -82.5v-229q0 -117 22 -185t77 -139q84 -105 168 -196l18 -27v801q0 46 34 71t81 25t80.5 -25t33.5 -71v-277h183v277q0 46 33.5 71t80.5 25t81 -25t34 -71v-783q0 -102 -34.5 -135.5t-139.5 -33.5h-293q-79 0 -116.5 16.5t-49.5 62.5
q-9 -31 -33 -55q-33 -34 -75.5 -38t-79.5 32q-79 84 -139 158q-45 57 -65.5 89.5t-27.5 63.5h-2q-11 -49 -94 -153q-60 -74 -139 -158q-37 -36 -80 -32t-76 38t-36 74t30 80q84 91 168 196q55 70 76.5 138t21.5 186v229q0 54 37.5 82.5t91.5 28.5zM1255 633v-242
q0 -26 9.5 -35.5t35.5 -9.5h93q26 0 35.5 9.5t9.5 35.5v242h-183z" />
    <glyph glyph-name="uni317E" unicode="&#x317e;" vert-adv-y="2263" 
d="M610 1188q54 0 91.5 -28.5t37.5 -82.5v-229q0 -117 22 -186t77 -138q30 -41 61 -75q19 -19 31 -19t31 19q50 58 63 75q56 68 77 136t21 188v110h-164q-44 0 -67 31t-23 78t23 78t67 31h590q44 0 67 -31t23 -78t-23 -78t-67 -31h-168v-110q0 -117 22 -185t77 -139
q84 -105 168 -196q33 -40 29.5 -80t-36.5 -74t-75.5 -38t-79.5 32q-79 84 -139 158q-49 61 -67.5 92t-25.5 71h-2q-7 -39 -25.5 -69.5t-68.5 -93.5q-62 -77 -139 -158q-41 -41 -88 -41q-45 0 -86 41q-76 80 -139 158q-45 57 -65.5 89.5t-27.5 63.5h-2q-11 -49 -94 -153
q-60 -74 -139 -158q-37 -36 -80 -32t-76 38t-36 74t30 80q84 91 168 196q55 70 76.5 138t21.5 186v229q0 54 37.5 82.5t91.5 28.5z" />
    <glyph glyph-name="uni317F" unicode="&#x317f;" vert-adv-y="2263" 
d="M930 903q-13 0 -23 -26l-162 -431q-8 -34 3 -51q14 -12 45 -12h280q31 0 43 12q15 18 2 51l-166 431q-10 26 -22 26zM930 1366q56 0 82 -66l409 -1003q23 -66 -6 -98q-23 -29 -86 -29h-797q-65 0 -88 29q-26 32 -6 98l410 1003q26 66 82 66z" />
    <glyph glyph-name="uni3180" unicode="&#x3180;" vert-adv-y="2263" 
d="M555 1190q95 0 166.5 -40.5t114 -113.5t63.5 -167.5t21 -209.5q0 -156 -36 -272t-119.5 -187t-209.5 -71t-209.5 71t-119.5 187t-36 272q0 92 13 171t41 146t70 114t103.5 73.5t137.5 26.5zM555 969q-38 0 -65 -24t-40.5 -69t-19.5 -97t-6 -120t6 -120.5t19.5 -97.5
t40.5 -69t65 -24t65 24t40.5 69t19.5 97.5t6 120.5t-6 120t-19.5 97t-40.5 69t-65 24zM1309 1190q95 0 166 -40.5t113.5 -113.5t63.5 -167.5t21 -209.5q0 -116 -20.5 -210.5t-63.5 -167t-114 -112.5t-166 -40q-126 0 -209.5 71t-119.5 187t-36 272q0 92 13 171t41 146
t70 114t103.5 73.5t137.5 26.5zM1309 969q-38 0 -65 -24t-40.5 -69t-19.5 -97t-6 -120t6 -120.5t19.5 -97.5t40.5 -69t65 -24t65 24t40.5 69t19.5 97.5t6 120.5t-6 120t-19.5 97t-40.5 69t-65 24z" />
    <glyph glyph-name="uni3181" unicode="&#x3181;" vert-adv-y="2263" 
d="M930 1397q57 0 95 -28.5t38 -82.5v-227q196 -35 315 -171t119 -353q0 -169 -75.5 -292.5t-201.5 -184t-288 -60.5t-288 60.5t-201.5 184t-75.5 292.5q0 216 118 352.5t314 171.5v227q0 54 38 82.5t93 28.5zM932 850q-141 0 -222 -86.5t-81 -228.5t81.5 -229t221.5 -87
q137 0 220 93t83 223t-83 222.5t-220 92.5z" />
    <glyph glyph-name="uni3182" unicode="&#x3182;" vert-adv-y="2263" 
d="M1241 1188q54 0 91.5 -28.5t37.5 -82.5v-229q0 -118 21.5 -186t76.5 -138q84 -105 168 -196q33 -40 30 -80t-36 -74t-75.5 -38t-79.5 32q-86 91 -140 158q-80 101 -92 153h-2q-11 -49 -94 -153q-60 -74 -139 -158q-37 -36 -80 -32t-76 38q-31 31 -37 66
q-92 -103 -262 -103q-94 0 -164.5 31.5t-114 89.5t-65 135.5t-21.5 173.5q0 160 58.5 267.5t177.5 144.5v129q0 54 37.5 82.5t91.5 28.5t91.5 -28.5t37.5 -82.5v-129q119 -37 177.5 -144.5t58.5 -267.5q0 -105 -27 -188q33 38 123 145q55 70 76.5 138t21.5 186v229
q0 54 37.5 82.5t91.5 28.5zM553 791q-133 0 -133 -224q0 -223 133 -223t133 223q0 224 -133 224z" />
    <glyph glyph-name="uni3183" unicode="&#x3183;" vert-adv-y="2263" 
d="M569 1219q54 0 91.5 -28.5t37.5 -82.5v-129q119 -37 177.5 -144.5t58.5 -267.5q0 -96 -21.5 -173.5t-65 -135.5t-114 -89.5t-164.5 -31.5q-184 0 -274 115.5t-90 314.5q0 160 58 267.5t177 144.5v129q0 54 37.5 82.5t91.5 28.5zM569 791q-133 0 -133 -224
q0 -223 133 -223t133 223q0 224 -133 224zM1292 788q-14 0 -20 -26l-92 -340q-9 -34 2 -47q13 -13 41 -13h139q28 0 41 13q11 13 2 47l-92 340q-7 26 -21 26zM1292 1255q25 0 46 -16t30 -45l283 -926q20 -61 -6 -90q-20 -26 -80 -26h-545q-60 0 -80 26q-26 29 -6 90l283 926
q9 29 29.5 45t45.5 16z" />
    <glyph glyph-name="uni3184" unicode="&#x3184;" vert-adv-y="2263" 
d="M508 1421h850q44 0 67 -29t23 -75q0 -47 -23 -76t-67 -29h-90v-360h112q44 0 67 -29t23 -75q0 -47 -23 -76t-67 -29h-895q-44 0 -67 29t-23 76q0 46 23 75t67 29h107v360h-84q-44 0 -67 29t-23 76q0 46 23 75t67 29zM819 1212v-360h221v360h-221zM932 545
q178 0 276.5 -82t98.5 -217t-98.5 -217t-276.5 -82t-276.5 82t-98.5 217t98.5 217t276.5 82zM932 362q-79 0 -118.5 -32.5t-39.5 -83.5t39.5 -84t118.5 -33t117 33t38 84t-38 83.5t-117 32.5z" />
    <glyph glyph-name="uni3185" unicode="&#x3185;" vert-adv-y="2263" 
d="M567 809q148 0 227.5 -94t79.5 -256t-80 -258.5t-227 -96.5t-227 96.5t-80 258.5t79.5 256t227.5 94zM567 1286q46 0 78.5 -25.5t32.5 -70.5v-107h162q39 0 59.5 -26.5t20.5 -65.5q0 -42 -20.5 -69t-59.5 -27h-545q-39 0 -59.5 27t-20.5 69q0 39 20.5 65.5t59.5 26.5h162
v107q0 45 32 70.5t78 25.5zM567 629q-55 0 -84.5 -43t-29.5 -127q0 -85 29.5 -129.5t84.5 -44.5t84 44.5t29 129.5q0 84 -29 127t-84 43zM1305 809q148 0 227.5 -94t79.5 -256t-80 -258.5t-227 -96.5q-148 0 -228 96.5t-80 258.5q0 161 80 255.5t228 94.5zM1305 1286
q46 0 78 -25.5t32 -70.5v-107h162q39 0 59.5 -26.5t20.5 -65.5q0 -42 -20.5 -69t-59.5 -27h-545q-39 0 -59.5 27t-20.5 69q0 39 20.5 65.5t59.5 26.5h162v107q0 45 32.5 70.5t78.5 25.5zM1305 629q-55 0 -85 -43t-30 -127q0 -85 30 -129.5t85 -44.5q112 0 112 174
q0 170 -112 170z" />
    <glyph glyph-name="uni3186" unicode="&#x3186;" vert-adv-y="2263" 
d="M932 1016q225 0 360 -134t135 -352t-135 -351.5t-360 -133.5t-360.5 133.5t-135.5 351.5t135.5 352t360.5 134zM467 1362h930q45 0 68.5 -32t23.5 -79t-23.5 -78.5t-68.5 -31.5h-930q-45 0 -68.5 31.5t-23.5 78.5t23.5 79t68.5 32zM932 809q-116 0 -188 -76.5t-72 -202.5
q0 -125 72 -201.5t188 -76.5t188 76.5t72 201.5q0 126 -72 202.5t-188 76.5z" />
    <glyph glyph-name="uni3187" unicode="&#x3187;" vert-adv-y="2263" 
d="M1452 1604q55 0 92 -28t37 -81v-264h166q47 0 70.5 -32t23.5 -81t-23.5 -80.5t-70.5 -31.5h-166v-238h166q47 0 70.5 -32t23.5 -81t-23.5 -80.5t-70.5 -31.5h-166v-621q0 -53 -37 -80.5t-92 -27.5t-92 27.5t-37 80.5v1573q0 53 37 81t92 28zM416 922q54 0 90.5 -28
t36.5 -81v-407q64 0 200 4v403q0 53 36.5 81t90.5 28q55 0 92 -28t37 -81v-391q21 1 45.5 3t54 5t46.5 4q45 4 70 -23.5t28 -74.5t-17 -81t-63 -38q-402 -35 -1011 -35q-45 0 -69 32t-24 79t24 78.5t69 31.5h135v410q0 53 37 81t92 28z" />
    <glyph glyph-name="uni3188" unicode="&#x3188;" vert-adv-y="2263" 
d="M1653 1604q50 0 85.5 -27t35.5 -76v-1585q0 -49 -35.5 -75.5t-85.5 -26.5t-85.5 26.5t-35.5 75.5v625h-143v-539q0 -49 -35.5 -75.5t-85.5 -26.5q-49 0 -84 26.5t-35 75.5v1479q0 49 35 75.5t84 26.5q50 0 85.5 -26.5t35.5 -75.5v-269h143v289q0 49 35.5 76t85.5 27z
M385 918q54 0 88.5 -28t34.5 -81v-373q49 0 151 4v369q0 53 34.5 81t88.5 28t88.5 -28t34.5 -81v-358q26 0 88 4q45 3 70 -25.5t27 -75.5t-19.5 -79t-64.5 -35q-364 -23 -820 -23q-45 0 -68.5 32t-23.5 79q0 46 23.5 77t68.5 31h76v373q0 53 34.5 81t88.5 28zM1389 995v-237
h143v237h-143z" />
    <glyph glyph-name="uni3189" unicode="&#x3189;" vert-adv-y="2263" 
d="M483 922q54 0 90.5 -28t36.5 -81v-405q67 0 203 4v401q0 53 37 81t92 28q54 0 90.5 -28t36.5 -81v-389q107 8 164 14q45 4 70 -23.5t28 -74.5t-17 -81t-63 -38q-424 -39 -1071 -39q-45 0 -68.5 32t-23.5 79t23.5 78.5t68.5 31.5h174v410q0 53 37 81t92 28zM1542 1604
q54 0 91.5 -28.5t37.5 -82.5v-1569q0 -54 -37.5 -82t-91.5 -28q-55 0 -93 28t-38 82v1569q0 54 38 82.5t93 28.5z" />
    <glyph glyph-name="uni318A" unicode="&#x318a;" vert-adv-y="2263" 
d="M1231 788q45 4 71 -22.5t29 -73.5q3 -46 -17 -79.5t-63 -39.5q-81 -10 -247 -18v-610q0 -54 -37 -82.5t-90 -28.5q-54 0 -91.5 28.5t-37.5 82.5v600l-156 -6v-594q0 -54 -37 -82.5t-90 -28.5q-54 0 -91.5 28.5t-37.5 82.5v590h-156q-45 0 -68.5 31.5t-23.5 78.5
q0 46 23.5 77.5t68.5 31.5q674 0 1051 34zM1542 1604q54 0 91.5 -28.5t37.5 -82.5v-1569q0 -54 -37.5 -82t-91.5 -28q-55 0 -93 28t-38 82v37h-233q-44 0 -67.5 29.5t-23.5 75.5t23.5 75t67.5 29h233v88h-233q-44 0 -67.5 29t-23.5 75t23.5 75.5t67.5 29.5h233v1026
q0 54 38 82.5t93 28.5z" />
    <glyph glyph-name="uni318B" unicode="&#x318b;" vert-adv-y="2263" 
d="M969 807q45 3 69.5 -25t26.5 -75q2 -46 -19.5 -77.5t-64.5 -35.5q-54 -6 -172 -10v-574q0 -54 -36 -82t-87 -28t-87 28t-36 82v565q-20 0 -57 -1t-55 -1v-563q0 -54 -36 -82t-87 -28t-87 28t-36 82v561h-74q-45 0 -68.5 31.5t-23.5 77.5t23.5 77t68.5 31q475 0 838 19z
M1243 1583q48 0 83.5 -26t35.5 -74v-1503q0 -48 -35.5 -74.5t-83.5 -26.5t-83.5 26.5t-35.5 74.5v32h-147q-44 0 -67 29t-23 76q0 45 23 73.5t67 28.5h147v80h-147q-44 0 -67 29t-23 75q0 45 23 74t67 29h147v977q0 48 35.5 74t83.5 26zM1597 1604q50 0 85.5 -27t35.5 -76
v-1585q0 -49 -35.5 -75.5t-85.5 -26.5q-48 0 -83 26.5t-35 75.5v1585q0 49 35 76t83 27z" />
    <glyph glyph-name="uni318C" unicode="&#x318c;" vert-adv-y="2263" 
d="M1231 739q45 4 71 -22.5t29 -73.5t-17 -81t-63 -38q-57 -6 -176 -14v-565q0 -54 -37 -82.5t-90 -28.5q-55 0 -92 28.5t-37 82.5v553q-111 -6 -225 -9v-544q0 -54 -37 -82.5t-90 -28.5q-55 0 -92 28.5t-37 82.5v540h-158q-45 0 -68.5 32t-23.5 79q0 46 23.5 77.5
t68.5 31.5q674 0 1051 34zM1542 1604q54 0 91.5 -28.5t37.5 -82.5v-1569q0 -54 -37.5 -82t-91.5 -28q-55 0 -93 28t-38 82v1569q0 54 38 82.5t93 28.5z" />
    <glyph glyph-name="uni318D" unicode="&#x318d;" vert-adv-y="2263" 
d="M934 903q69 0 115.5 -46.5t46.5 -115.5t-46.5 -115t-115.5 -46t-115.5 46t-46.5 115t46.5 115.5t115.5 46.5z" />
    <glyph glyph-name="uni318E" unicode="&#x318e;" vert-adv-y="2263" 
d="M1087 1604q57 0 95.5 -28.5t38.5 -82.5v-1569q0 -54 -38.5 -82t-95.5 -28q-55 0 -93 28t-38 82v1569q0 54 38 82.5t93 28.5zM569 903q69 0 115.5 -46.5t46.5 -115.5t-46.5 -115t-115.5 -46t-115 46t-46 115t46 115.5t115 46.5z" />
    <glyph glyph-name="uni2170" unicode="&#x2170;" vert-adv-y="2263" 
d="M932 1108q55 0 92 -28t37 -81v-895q0 -53 -37 -80.5t-92 -27.5q-54 0 -91.5 28t-37.5 80v895q0 52 37.5 80.5t91.5 28.5zM932 1532q67 0 114.5 -45.5t47.5 -110.5t-47.5 -110t-114.5 -45t-114.5 45t-47.5 110t47.5 110.5t114.5 45.5z" />
    <glyph glyph-name="uni2171" unicode="&#x2171;" vert-adv-y="2263" 
d="M676 1108q55 0 92 -28t37 -81v-895q0 -53 -37 -80.5t-92 -27.5q-54 0 -91.5 28t-37.5 80v895q0 52 37.5 80.5t91.5 28.5zM676 1532q67 0 114.5 -45.5t47.5 -110.5t-47.5 -110t-114.5 -45t-114.5 45t-47.5 110t47.5 110.5t114.5 45.5zM1190 1108q55 0 92 -28t37 -81v-895
q0 -53 -37 -80.5t-92 -27.5q-54 0 -91.5 28t-37.5 80v895q0 52 37.5 80.5t91.5 28.5zM1190 1532q67 0 114.5 -45.5t47.5 -110.5t-47.5 -110t-114.5 -45t-114.5 45t-47.5 110t47.5 110.5t114.5 45.5z" />
    <glyph glyph-name="uni2172" unicode="&#x2172;" vert-adv-y="2263" 
d="M465 1108q55 0 92 -28t37 -81v-895q0 -53 -37 -80.5t-92 -27.5q-54 0 -91.5 28t-37.5 80v895q0 52 37.5 80.5t91.5 28.5zM465 1532q67 0 114.5 -45.5t47.5 -110.5t-47.5 -110t-114.5 -45t-114.5 45t-47.5 110t47.5 110.5t114.5 45.5zM934 1108q55 0 92 -28t37 -81v-895
q0 -53 -37 -80.5t-92 -27.5q-54 0 -91.5 28t-37.5 80v895q0 52 37.5 80.5t91.5 28.5zM934 1532q67 0 114.5 -45.5t47.5 -110.5t-47.5 -110t-114.5 -45t-114.5 45t-47.5 110t47.5 110.5t114.5 45.5zM1401 1108q55 0 92 -28t37 -81v-895q0 -53 -37 -80.5t-92 -27.5
q-54 0 -91.5 28t-37.5 80v895q0 52 37.5 80.5t91.5 28.5zM1401 1532q67 0 114.5 -45.5t47.5 -110.5t-47.5 -110t-114.5 -45t-114.5 45t-47.5 110t47.5 110.5t114.5 45.5z" />
    <glyph glyph-name="uni2173" unicode="&#x2173;" vert-adv-y="2263" 
d="M537 1108q55 0 92 -28t37 -81v-895q0 -53 -37 -80.5t-92 -27.5q-54 0 -91.5 28t-37.5 80v895q0 52 37.5 80.5t91.5 28.5zM537 1532q67 0 114 -45.5t47 -110.5t-47 -110t-114 -45t-114.5 45t-47.5 110t47.5 110.5t114.5 45.5zM799 1100q50 20 98 0t64 -80l202 -735
l195 735q16 60 64 80t98 0q48 -16 69 -54.5t4 -93.5l-245 -819q-41 -137 -189 -137q-147 0 -188 137l-246 819q-17 55 4.5 93.5t69.5 54.5z" />
    <glyph glyph-name="uni2174" unicode="&#x2174;" vert-adv-y="2263" 
d="M510 1096q33 10 65.5 12t61 -17.5t41.5 -58.5l258 -762l260 762q19 56 68.5 70.5t95.5 -6.5q49 -18 71 -58.5t1 -93.5l-310 -811q-53 -137 -190 -137q-138 0 -191 137l-309 811q-20 52 4 92.5t74 59.5z" />
    <glyph glyph-name="uni2175" unicode="&#x2175;" vert-adv-y="2263" 
d="M1327 1108q55 0 92 -28t37 -81v-895q0 -53 -37 -80.5t-92 -27.5q-54 0 -91.5 28t-37.5 80v895q0 52 37.5 80.5t91.5 28.5zM1327 1532q67 0 114.5 -45.5t47.5 -110.5t-47.5 -110t-114.5 -45t-114.5 45t-47.5 110t47.5 110.5t114.5 45.5zM346 1100q50 20 98 0t64 -80
l203 -733l194 733q16 60 64 80t98 0q48 -16 69.5 -54.5t4.5 -93.5l-246 -819q-41 -137 -188 -137q-148 0 -189 137l-246 819q-17 55 4.5 93.5t69.5 54.5z" />
    <glyph glyph-name="uni2176" unicode="&#x2176;" vert-adv-y="2263" 
d="M1178 1108q55 0 90 -28t35 -81v-895q0 -53 -35 -80.5t-90 -27.5q-54 0 -89.5 27.5t-35.5 80.5v895q0 53 35.5 81t89.5 28zM1178 1532q68 0 112.5 -45.5t44.5 -110.5t-44.5 -110t-112.5 -45t-113 45t-45 110t45 110.5t113 45.5zM1550 1108q55 0 90 -28t35 -81v-895
q0 -53 -35 -80.5t-90 -27.5q-54 0 -89.5 27.5t-35.5 80.5v895q0 53 35.5 81t89.5 28zM1550 1532q68 0 113 -45.5t45 -110.5t-45 -110t-113 -45t-112.5 45t-44.5 110t44.5 110.5t112.5 45.5zM240 1102q55 15 97 -4t58 -78l191 -733l178 733q14 59 57 78t99 4q47 -12 67.5 -52
t5.5 -96l-223 -821q-39 -137 -188 -137q-150 0 -189 137l-227 823q-15 56 6 95t68 51z" />
    <glyph glyph-name="uni2177" unicode="&#x2177;" vert-adv-y="2263" 
d="M184 1104q121 28 148 -86l168 -690l155 690q13 59 53.5 79t96.5 7q47 -11 71 -51t9 -95l-209 -825q-36 -137 -180 -137q-145 0 -181 137l-213 825q-14 55 10 95t72 51zM1051 1532q70 0 107.5 -44t37.5 -112t-37.5 -111.5t-107.5 -43.5q-71 0 -108.5 43.5t-37.5 111.5
t38 112t108 44zM1051 1108q112 0 112 -109v-895q0 -108 -112 -108q-113 0 -113 108v895q0 109 113 109zM1366 1532q70 0 107.5 -44t37.5 -112t-37.5 -111.5t-107.5 -43.5t-107.5 43.5t-37.5 111.5t37.5 112t107.5 44zM1366 1108q113 0 113 -109v-895q0 -108 -113 -108
t-113 108v895q0 109 113 109zM1681 1532q70 0 108 -44t38 -112t-37.5 -111.5t-108.5 -43.5q-70 0 -107.5 43.5t-37.5 111.5t37.5 112t107.5 44zM1681 1108q113 0 113 -109v-895q0 -108 -113 -108q-112 0 -112 108v895q0 109 112 109z" />
    <glyph glyph-name="uni2178" unicode="&#x2178;" vert-adv-y="2263" 
d="M518 1108q55 0 92 -28t37 -81v-895q0 -53 -37 -80.5t-92 -27.5q-54 0 -91.5 28t-37.5 80v895q0 52 37.5 80.5t91.5 28.5zM518 1532q67 0 114.5 -45.5t47.5 -110.5t-47.5 -110t-114.5 -45t-114.5 45t-47.5 110t47.5 110.5t114.5 45.5zM1604 1081q43 -32 49.5 -77
t-25.5 -89l-276 -352l284 -377q33 -46 27.5 -89.5t-45.5 -73.5q-39 -31 -86.5 -24.5t-83.5 52.5l-256 340l-248 -340q-34 -47 -83 -53t-87 25q-40 30 -45.5 73.5t27.5 89.5l284 377l-260 352q-32 44 -25 89t50 77q44 34 94 26t82 -54l219 -312l227 312q32 46 82.5 54
t94.5 -26z" />
    <glyph glyph-name="uni2179" unicode="&#x2179;" vert-adv-y="2263" 
d="M530 1079q37 33 91.5 28t87.5 -50l229 -316l229 314q34 47 84.5 52.5t87.5 -26.5q43 -32 51 -76.5t-24 -89.5l-276 -352l294 -364q34 -42 28.5 -89t-50.5 -85q-37 -33 -91 -28t-87 50l-254 338l-254 -336q-35 -47 -85 -52.5t-87 26.5q-43 34 -51.5 76.5t24.5 88.5
l301 375l-270 342q-34 42 -28.5 89t50.5 85z" />
    <glyph glyph-name="uni2160" unicode="&#x2160;" vert-adv-y="2263" 
d="M932 1477q56 0 93.5 -29t37.5 -84v-1255q0 -55 -37.5 -84t-93.5 -29t-93.5 29t-37.5 84v1255q0 55 37.5 84t93.5 29z" />
    <glyph glyph-name="uni2161" unicode="&#x2161;" vert-adv-y="2263" 
d="M682 1477q56 0 93.5 -29t37.5 -84v-1255q0 -55 -37.5 -84t-93.5 -29t-93.5 29t-37.5 84v1255q0 55 37.5 84t93.5 29zM1182 1477q56 0 93.5 -29t37.5 -84v-1255q0 -55 -37.5 -84t-93.5 -29t-93.5 29t-37.5 84v1255q0 55 37.5 84t93.5 29z" />
    <glyph glyph-name="uni2162" unicode="&#x2162;" vert-adv-y="2263" 
d="M444 1477q56 0 93.5 -29t37.5 -84v-1255q0 -55 -37.5 -84t-93.5 -29t-93.5 29t-37.5 84v1255q0 55 37.5 84t93.5 29zM934 1477q56 0 93.5 -29t37.5 -84v-1255q0 -55 -37.5 -84t-93.5 -29t-93.5 29t-37.5 84v1255q0 55 37.5 84t93.5 29zM1415 1477q56 0 93.5 -29t37.5 -84
v-1255q0 -55 -37.5 -84t-93.5 -29t-93.5 29t-37.5 84v1255q0 55 37.5 84t93.5 29z" />
    <glyph glyph-name="uni2163" unicode="&#x2163;" vert-adv-y="2263" 
d="M449 1477q56 0 93.5 -29t37.5 -84v-1255q0 -55 -37.5 -84t-93.5 -29q-57 0 -94.5 29t-37.5 84v1255q0 55 37.5 84t94.5 29zM782 1470q128 29 154 -81l262 -1018l272 1018q29 109 150 81q55 -12 78 -51.5t6 -95.5l-354 -1206q-37 -121 -158 -121q-127 0 -160 121
l-340 1206q-15 56 10 95.5t80 51.5z" />
    <glyph glyph-name="uni2164" unicode="&#x2164;" vert-adv-y="2263" 
d="M1481 1466q51 -18 69.5 -57t-2.5 -98l-465 -1194q-26 -67 -64.5 -94t-92.5 -27q-56 0 -95 27t-65 94l-451 1192q-21 61 -1.5 99t73.5 58q50 22 102.5 4.5t71.5 -71.5l371 -1069l383 1065q21 57 67.5 74.5t98.5 -3.5z" />
    <glyph glyph-name="uni2165" unicode="&#x2165;" vert-adv-y="2263" 
d="M256 1470q128 29 154 -81l262 -1018l272 1018q29 109 150 81q55 -12 78 -51.5t6 -95.5l-355 -1206q-37 -121 -157 -121q-127 0 -160 121l-340 1206q-15 56 10 95.5t80 51.5zM1415 1477q56 0 93.5 -29t37.5 -84v-1255q0 -55 -37.5 -84t-93.5 -29t-93.5 29t-37.5 84v1255
q0 55 37.5 84t93.5 29z" />
    <glyph glyph-name="uni2166" unicode="&#x2166;" vert-adv-y="2263" 
d="M1229 1477q117 0 117 -113v-1255q0 -113 -117 -113t-117 113v1255q0 113 117 113zM1573 1477q117 0 117 -113v-1255q0 -113 -117 -113t-117 113v1255q0 113 117 113zM168 1470q125 29 151 -81l236 -998l246 998q26 109 147 81q53 -12 73 -50.5t5 -96.5l-319 -1206
q-37 -121 -158 -121q-127 0 -160 121l-305 1206q-15 57 7.5 96t76.5 51z" />
    <glyph glyph-name="uni2167" unicode="&#x2167;" vert-adv-y="2263" 
d="M1663 1477q109 0 109 -113v-1255q0 -113 -109 -113t-109 113v1255q0 113 109 113zM174 1475q119 17 133 -93l156 -991l164 993q13 105 129 91q112 -13 92 -125l-234 -1233q-22 -121 -157 -121q-141 0 -160 121l-219 1233q-17 108 96 125zM1339 1477q109 0 109 -113v-1255
q0 -113 -109 -113q-108 0 -108 113v1255q0 113 108 113zM1026 1477q109 0 109 -113v-1255q0 -113 -109 -113q-108 0 -108 113v1255q0 113 108 113z" />
    <glyph glyph-name="uni2168" unicode="&#x2168;" vert-adv-y="2263" 
d="M477 1477q55 0 91 -28.5t36 -84.5v-1255q0 -56 -36 -84.5t-91 -28.5t-91 28.5t-36 84.5v1255q0 56 36 84.5t91 28.5zM1630 1460q51 -26 60.5 -70t-21.5 -96l-309 -538l336 -588q27 -48 15 -89.5t-58 -66.5q-52 -27 -94.5 -13.5t-69.5 60.5l-293 512l-276 -512
q-27 -47 -69.5 -60.5t-94.5 13.5q-46 25 -58 66.5t15 89.5l325 588l-290 538q-29 53 -15.5 96.5t66.5 69.5t100.5 11t73.5 -66l241 -479l242 479q26 52 74 67t100 -12z" />
    <glyph glyph-name="uni2169" unicode="&#x2169;" vert-adv-y="2263" 
d="M1430 1458q51 -28 63.5 -73t-20.5 -97l-371 -538l381 -557q34 -49 24 -97.5t-61 -79.5q-43 -28 -95.5 -19.5t-82.5 54.5l-338 520l-340 -516q-29 -44 -79.5 -55.5t-94.5 14.5q-47 28 -59 75t18 93l397 574l-360 524q-33 50 -17 100t70 78q49 27 101 15t81 -60l301 -487
l312 489q30 47 77.5 58.5t92.5 -15.5z" />
    <glyph glyph-name="Alpha" unicode="&#x391;" horiz-adv-x="1413" vert-adv-y="2263" 
d="M705 1477q56 0 94.5 -27t64.5 -94l461 -1188q22 -59 0.5 -103t-74.5 -59q-134 -39 -174 74l-119 328h-516l-120 -336q-20 -56 -68 -71.5t-96 5.5q-52 18 -72.5 57.5t0.5 94.5l461 1198q25 67 64 94t94 27zM700 1149q-35 -123 -71 -227l-109 -297h361l-107 297
q-46 126 -74 227z" />
    </font>
</defs>
</svg>
